G04 #@! TF.FileFunction,Copper,L2,Bot,Signal*
%FSLAX46Y46*%
G04 Gerber Fmt 4.6, Leading zero omitted, Abs format (unit mm)*
G04 Created by KiCad (PCBNEW 4.0.7-e2-6376~58~ubuntu14.04.1) date Sat Mar 16 06:29:51 2019*
%MOMM*%
%LPD*%
G01*
G04 APERTURE LIST*
%ADD10C,0.100000*%
%ADD11C,5.600000*%
%ADD12C,1.998980*%
%ADD13C,1.600000*%
%ADD14O,1.600000X1.600000*%
%ADD15C,2.350000*%
%ADD16C,1.800000*%
%ADD17R,3.960000X5.000000*%
%ADD18R,3.200000X3.200000*%
%ADD19O,3.200000X3.200000*%
%ADD20C,0.600000*%
%ADD21C,0.400000*%
%ADD22C,0.254000*%
G04 APERTURE END LIST*
D10*
D11*
X88000000Y-37000000D03*
X37000000Y-37000000D03*
X129000000Y-37000000D03*
X78000000Y-37000000D03*
D12*
X126000000Y-46000000D03*
X126000000Y-56160000D03*
X40000000Y-46000000D03*
X40000000Y-56160000D03*
D13*
X118000000Y-42000000D03*
D14*
X107840000Y-42000000D03*
D13*
X108000000Y-45000000D03*
D14*
X108000000Y-55160000D03*
D13*
X109000000Y-58000000D03*
D14*
X98840000Y-58000000D03*
D13*
X120000000Y-60000000D03*
D14*
X130160000Y-60000000D03*
D13*
X128000000Y-66000000D03*
D14*
X128000000Y-76160000D03*
D13*
X104000000Y-62000000D03*
D14*
X93840000Y-62000000D03*
D13*
X117000000Y-62000000D03*
D14*
X106840000Y-62000000D03*
D15*
X104100000Y-74100000D03*
X99100000Y-74100000D03*
X114100000Y-74100000D03*
X119100000Y-74100000D03*
D13*
X78000000Y-47000000D03*
D14*
X88160000Y-47000000D03*
D13*
X48000000Y-42000000D03*
D14*
X58160000Y-42000000D03*
D13*
X58000000Y-45000000D03*
D14*
X58000000Y-55160000D03*
D13*
X57000000Y-58000000D03*
D14*
X67160000Y-58000000D03*
D13*
X46000000Y-60000000D03*
D14*
X35840000Y-60000000D03*
D13*
X38000000Y-66000000D03*
D14*
X38000000Y-76160000D03*
D13*
X62000000Y-62000000D03*
D14*
X72160000Y-62000000D03*
D13*
X49000000Y-62000000D03*
D14*
X59160000Y-62000000D03*
D13*
X77000000Y-61000000D03*
D14*
X77000000Y-71160000D03*
D13*
X108200000Y-80600000D03*
D14*
X98040000Y-80600000D03*
D16*
X69980000Y-78843000D03*
X59820000Y-78843000D03*
D17*
X61280000Y-80350000D03*
X68520000Y-80350000D03*
D16*
X67440000Y-78843000D03*
X62360000Y-78843000D03*
X64900000Y-78843000D03*
D18*
X97000000Y-67000000D03*
D19*
X112240000Y-67000000D03*
D11*
X44000000Y-66000000D03*
X122000000Y-66000000D03*
D20*
X110000000Y-62000000D03*
X98100000Y-61900000D03*
X65400000Y-67400000D03*
X65000000Y-70900000D03*
X71000000Y-70900000D03*
X75200000Y-70200000D03*
X84000000Y-71900000D03*
X98300000Y-71800000D03*
X108600000Y-70900000D03*
X108600000Y-64600000D03*
X103700000Y-66700000D03*
X99900000Y-64300000D03*
X99800000Y-77700000D03*
X93500000Y-79000000D03*
X95300000Y-75500000D03*
X94500000Y-71300000D03*
X94500000Y-67700000D03*
X77100000Y-81900000D03*
X77100000Y-78500000D03*
X83500000Y-81800000D03*
X83500000Y-78800000D03*
X69600000Y-64100000D03*
X74400000Y-62900000D03*
X72500000Y-65800000D03*
X79400000Y-68400000D03*
X80800000Y-72700000D03*
X82000000Y-58000000D03*
X78800000Y-62100000D03*
X75000000Y-57700000D03*
X77300000Y-65800000D03*
X83700000Y-67500000D03*
X86500000Y-64400000D03*
X91000000Y-57600000D03*
X91700000Y-60500000D03*
X89500000Y-54000000D03*
X93200000Y-54000000D03*
X76700000Y-54000000D03*
X69600000Y-57700000D03*
X69100000Y-54300000D03*
X85500000Y-56500000D03*
X83000000Y-45000000D03*
X80000000Y-56000000D03*
X64000000Y-51000000D03*
X102000000Y-51000000D03*
X81500000Y-65500000D03*
X74000000Y-67500000D03*
X83000000Y-61000000D03*
D21*
X112240000Y-67000000D02*
X112240000Y-64240000D01*
X112240000Y-64240000D02*
X110000000Y-62000000D01*
X65400000Y-70500000D02*
X65400000Y-67400000D01*
X65000000Y-70900000D02*
X65400000Y-70500000D01*
X74500000Y-70900000D02*
X71000000Y-70900000D01*
X75200000Y-70200000D02*
X74500000Y-70900000D01*
X85050000Y-66150000D02*
X85050000Y-70850000D01*
X85050000Y-70850000D02*
X84000000Y-71900000D01*
X108600000Y-64600000D02*
X108600000Y-70900000D01*
X102300000Y-66700000D02*
X103700000Y-66700000D01*
X99900000Y-64300000D02*
X102300000Y-66700000D01*
X95300000Y-77700000D02*
X99800000Y-77700000D01*
X94400000Y-79000000D02*
X93500000Y-79000000D01*
X95300000Y-78100000D02*
X94400000Y-79000000D01*
X95300000Y-75500000D02*
X95300000Y-77700000D01*
X95300000Y-77700000D02*
X95300000Y-78100000D01*
X94500000Y-67700000D02*
X94500000Y-71300000D01*
X77100000Y-78500000D02*
X77100000Y-81900000D01*
X83500000Y-78800000D02*
X83500000Y-81800000D01*
X69600000Y-57700000D02*
X69600000Y-64100000D01*
X79400000Y-68400000D02*
X79400000Y-71300000D01*
X79400000Y-71300000D02*
X80800000Y-72700000D01*
X82000000Y-58000000D02*
X82000000Y-58900000D01*
X80000000Y-56000000D02*
X82000000Y-58000000D01*
X82000000Y-58900000D02*
X78800000Y-62100000D01*
X83700000Y-67500000D02*
X85050000Y-66150000D01*
X85050000Y-66150000D02*
X86400000Y-64800000D01*
X86400000Y-64500000D02*
X86500000Y-64400000D01*
X86400000Y-64800000D02*
X86400000Y-64500000D01*
X91500000Y-54000000D02*
X91500000Y-57100000D01*
X91500000Y-57100000D02*
X91000000Y-57600000D01*
X89500000Y-54000000D02*
X91500000Y-54000000D01*
X91500000Y-54000000D02*
X93200000Y-54000000D01*
X76700000Y-56000000D02*
X76700000Y-54000000D01*
X75000000Y-57700000D02*
X69600000Y-57700000D01*
X76700000Y-56000000D02*
X75000000Y-57700000D01*
X80000000Y-56000000D02*
X76700000Y-56000000D01*
X88160000Y-47000000D02*
X88160000Y-55840000D01*
X88160000Y-55840000D02*
X83000000Y-61000000D01*
X80000000Y-65500000D02*
X81500000Y-65500000D01*
X78000000Y-67500000D02*
X80000000Y-65500000D01*
X74000000Y-67500000D02*
X78000000Y-67500000D01*
D22*
G36*
X87873000Y-45875501D02*
X87686523Y-45912594D01*
X87304676Y-46167735D01*
X87049535Y-46549582D01*
X86959941Y-47000000D01*
X87049535Y-47450418D01*
X87304676Y-47832265D01*
X87583000Y-48018234D01*
X87583000Y-55600998D01*
X82857727Y-60326271D01*
X82617011Y-60425733D01*
X82426402Y-60616010D01*
X82323118Y-60864746D01*
X82322883Y-61134073D01*
X82425733Y-61382989D01*
X82616010Y-61573598D01*
X82864746Y-61676882D01*
X83134073Y-61677117D01*
X83382989Y-61574267D01*
X83573598Y-61383990D01*
X83674137Y-61141865D01*
X84582909Y-60233093D01*
X118822796Y-60233093D01*
X119001606Y-60665846D01*
X119332412Y-60997230D01*
X119764853Y-61176795D01*
X120233093Y-61177204D01*
X120665846Y-60998394D01*
X120997230Y-60667588D01*
X121176795Y-60235147D01*
X121177000Y-60000000D01*
X128959941Y-60000000D01*
X129049535Y-60450418D01*
X129304676Y-60832265D01*
X129686523Y-61087406D01*
X130136941Y-61177000D01*
X130183059Y-61177000D01*
X130633477Y-61087406D01*
X131015324Y-60832265D01*
X131270465Y-60450418D01*
X131360059Y-60000000D01*
X131270465Y-59549582D01*
X131015324Y-59167735D01*
X130633477Y-58912594D01*
X130183059Y-58823000D01*
X130136941Y-58823000D01*
X129686523Y-58912594D01*
X129304676Y-59167735D01*
X129049535Y-59549582D01*
X128959941Y-60000000D01*
X121177000Y-60000000D01*
X121177204Y-59766907D01*
X120998394Y-59334154D01*
X120667588Y-59002770D01*
X120235147Y-58823205D01*
X119766907Y-58822796D01*
X119334154Y-59001606D01*
X119002770Y-59332412D01*
X118823205Y-59764853D01*
X118822796Y-60233093D01*
X84582909Y-60233093D01*
X86816002Y-58000000D01*
X97639941Y-58000000D01*
X97729535Y-58450418D01*
X97984676Y-58832265D01*
X98366523Y-59087406D01*
X98816941Y-59177000D01*
X98863059Y-59177000D01*
X99313477Y-59087406D01*
X99695324Y-58832265D01*
X99950465Y-58450418D01*
X99993693Y-58233093D01*
X107822796Y-58233093D01*
X108001606Y-58665846D01*
X108332412Y-58997230D01*
X108764853Y-59176795D01*
X109233093Y-59177204D01*
X109665846Y-58998394D01*
X109997230Y-58667588D01*
X110176795Y-58235147D01*
X110177204Y-57766907D01*
X109998394Y-57334154D01*
X109835711Y-57171186D01*
X125168419Y-57171186D01*
X125281198Y-57365411D01*
X125797205Y-57548728D01*
X126344085Y-57520624D01*
X126718802Y-57365411D01*
X126831581Y-57171186D01*
X126000000Y-56339605D01*
X125168419Y-57171186D01*
X109835711Y-57171186D01*
X109667588Y-57002770D01*
X109235147Y-56823205D01*
X108766907Y-56822796D01*
X108334154Y-57001606D01*
X108002770Y-57332412D01*
X107823205Y-57764853D01*
X107822796Y-58233093D01*
X99993693Y-58233093D01*
X100040059Y-58000000D01*
X99950465Y-57549582D01*
X99695324Y-57167735D01*
X99313477Y-56912594D01*
X98863059Y-56823000D01*
X98816941Y-56823000D01*
X98366523Y-56912594D01*
X97984676Y-57167735D01*
X97729535Y-57549582D01*
X97639941Y-58000000D01*
X86816002Y-58000000D01*
X88568001Y-56248001D01*
X88693078Y-56060808D01*
X88737001Y-55840000D01*
X88737000Y-55839995D01*
X88737000Y-55136941D01*
X106823000Y-55136941D01*
X106823000Y-55183059D01*
X106912594Y-55633477D01*
X107167735Y-56015324D01*
X107549582Y-56270465D01*
X108000000Y-56360059D01*
X108450418Y-56270465D01*
X108832265Y-56015324D01*
X108871098Y-55957205D01*
X124611272Y-55957205D01*
X124639376Y-56504085D01*
X124794589Y-56878802D01*
X124988814Y-56991581D01*
X125820395Y-56160000D01*
X126179605Y-56160000D01*
X127011186Y-56991581D01*
X127205411Y-56878802D01*
X127388728Y-56362795D01*
X127360624Y-55815915D01*
X127205411Y-55441198D01*
X127011186Y-55328419D01*
X126179605Y-56160000D01*
X125820395Y-56160000D01*
X124988814Y-55328419D01*
X124794589Y-55441198D01*
X124611272Y-55957205D01*
X108871098Y-55957205D01*
X109087406Y-55633477D01*
X109177000Y-55183059D01*
X109177000Y-55148814D01*
X125168419Y-55148814D01*
X126000000Y-55980395D01*
X126831581Y-55148814D01*
X126718802Y-54954589D01*
X126202795Y-54771272D01*
X125655915Y-54799376D01*
X125281198Y-54954589D01*
X125168419Y-55148814D01*
X109177000Y-55148814D01*
X109177000Y-55136941D01*
X109087406Y-54686523D01*
X108832265Y-54304676D01*
X108450418Y-54049535D01*
X108000000Y-53959941D01*
X107549582Y-54049535D01*
X107167735Y-54304676D01*
X106912594Y-54686523D01*
X106823000Y-55136941D01*
X88737000Y-55136941D01*
X88737000Y-50127000D01*
X132548000Y-50127000D01*
X132548000Y-82548000D01*
X70877000Y-82548000D01*
X70877000Y-80600000D01*
X96839941Y-80600000D01*
X96929535Y-81050418D01*
X97184676Y-81432265D01*
X97566523Y-81687406D01*
X98016941Y-81777000D01*
X98063059Y-81777000D01*
X98513477Y-81687406D01*
X98895324Y-81432265D01*
X99150465Y-81050418D01*
X99193693Y-80833093D01*
X107022796Y-80833093D01*
X107201606Y-81265846D01*
X107532412Y-81597230D01*
X107964853Y-81776795D01*
X108433093Y-81777204D01*
X108865846Y-81598394D01*
X109197230Y-81267588D01*
X109376795Y-80835147D01*
X109377204Y-80366907D01*
X109198394Y-79934154D01*
X108867588Y-79602770D01*
X108435147Y-79423205D01*
X107966907Y-79422796D01*
X107534154Y-79601606D01*
X107202770Y-79932412D01*
X107023205Y-80364853D01*
X107022796Y-80833093D01*
X99193693Y-80833093D01*
X99240059Y-80600000D01*
X99150465Y-80149582D01*
X98895324Y-79767735D01*
X98513477Y-79512594D01*
X98063059Y-79423000D01*
X98016941Y-79423000D01*
X97566523Y-79512594D01*
X97184676Y-79767735D01*
X96929535Y-80149582D01*
X96839941Y-80600000D01*
X70877000Y-80600000D01*
X70877000Y-80571250D01*
X70782750Y-80477000D01*
X68647000Y-80477000D01*
X68647000Y-80497000D01*
X68393000Y-80497000D01*
X68393000Y-80477000D01*
X66257250Y-80477000D01*
X66163000Y-80571250D01*
X66163000Y-82548000D01*
X63637000Y-82548000D01*
X63637000Y-80571250D01*
X63542750Y-80477000D01*
X61407000Y-80477000D01*
X61407000Y-80497000D01*
X61153000Y-80497000D01*
X61153000Y-80477000D01*
X59017250Y-80477000D01*
X58923000Y-80571250D01*
X58923000Y-82548000D01*
X33452000Y-82548000D01*
X33452000Y-78663991D01*
X58530347Y-78663991D01*
X58560012Y-79171146D01*
X58697020Y-79501912D01*
X58880911Y-79602484D01*
X58923000Y-79560395D01*
X58923000Y-80128750D01*
X59017250Y-80223000D01*
X61153000Y-80223000D01*
X61153000Y-79299070D01*
X61237020Y-79501912D01*
X61407000Y-79594876D01*
X61407000Y-79616392D01*
X61351290Y-79672102D01*
X61407000Y-79727812D01*
X61407000Y-80223000D01*
X63542750Y-80223000D01*
X63637000Y-80128750D01*
X63637000Y-79130314D01*
X63816781Y-79565417D01*
X64175693Y-79924957D01*
X64644875Y-80119778D01*
X65152897Y-80120221D01*
X65622417Y-79926219D01*
X65981957Y-79567307D01*
X66163000Y-79131306D01*
X66163000Y-80128750D01*
X66257250Y-80223000D01*
X68393000Y-80223000D01*
X68393000Y-79727812D01*
X68448710Y-79672102D01*
X68393000Y-79616392D01*
X68393000Y-79594876D01*
X68562980Y-79501912D01*
X68647000Y-79259992D01*
X68647000Y-80223000D01*
X70782750Y-80223000D01*
X70877000Y-80128750D01*
X70877000Y-79560395D01*
X70919089Y-79602484D01*
X71102980Y-79501912D01*
X71269653Y-79022009D01*
X71239988Y-78514854D01*
X71102980Y-78184088D01*
X70919089Y-78083516D01*
X70877000Y-78125605D01*
X70877000Y-77775010D01*
X70819605Y-77636447D01*
X70713553Y-77530395D01*
X70574990Y-77473000D01*
X68741250Y-77473000D01*
X68647000Y-77567250D01*
X68647000Y-78386930D01*
X68562980Y-78184088D01*
X68393000Y-78091124D01*
X68393000Y-78069608D01*
X68448710Y-78013898D01*
X68393000Y-77958188D01*
X68393000Y-77567250D01*
X68298750Y-77473000D01*
X66465010Y-77473000D01*
X66326447Y-77530395D01*
X66220395Y-77636447D01*
X66163000Y-77775010D01*
X66163000Y-78555686D01*
X65983219Y-78120583D01*
X65624307Y-77761043D01*
X65155125Y-77566222D01*
X64647103Y-77565779D01*
X64177583Y-77759781D01*
X63818043Y-78118693D01*
X63637000Y-78554694D01*
X63637000Y-77775010D01*
X63579605Y-77636447D01*
X63473553Y-77530395D01*
X63334990Y-77473000D01*
X61501250Y-77473000D01*
X61407000Y-77567250D01*
X61407000Y-77958188D01*
X61351290Y-78013898D01*
X61407000Y-78069608D01*
X61407000Y-78091124D01*
X61237020Y-78184088D01*
X61153000Y-78426008D01*
X61153000Y-77567250D01*
X61058750Y-77473000D01*
X59225010Y-77473000D01*
X59086447Y-77530395D01*
X58980395Y-77636447D01*
X58923000Y-77775010D01*
X58923000Y-78125605D01*
X58880911Y-78083516D01*
X58697020Y-78184088D01*
X58530347Y-78663991D01*
X33452000Y-78663991D01*
X33452000Y-76468487D01*
X36864134Y-76468487D01*
X37068650Y-76879682D01*
X37414955Y-77181312D01*
X37691515Y-77295855D01*
X37873000Y-77235276D01*
X37873000Y-76287000D01*
X38127000Y-76287000D01*
X38127000Y-77235276D01*
X38308485Y-77295855D01*
X38585045Y-77181312D01*
X38931350Y-76879682D01*
X39135866Y-76468487D01*
X126864134Y-76468487D01*
X127068650Y-76879682D01*
X127414955Y-77181312D01*
X127691515Y-77295855D01*
X127873000Y-77235276D01*
X127873000Y-76287000D01*
X128127000Y-76287000D01*
X128127000Y-77235276D01*
X128308485Y-77295855D01*
X128585045Y-77181312D01*
X128931350Y-76879682D01*
X129135866Y-76468487D01*
X129075890Y-76287000D01*
X128127000Y-76287000D01*
X127873000Y-76287000D01*
X126924110Y-76287000D01*
X126864134Y-76468487D01*
X39135866Y-76468487D01*
X39075890Y-76287000D01*
X38127000Y-76287000D01*
X37873000Y-76287000D01*
X36924110Y-76287000D01*
X36864134Y-76468487D01*
X33452000Y-76468487D01*
X33452000Y-75851513D01*
X36864134Y-75851513D01*
X36924110Y-76033000D01*
X37873000Y-76033000D01*
X37873000Y-75084724D01*
X38127000Y-75084724D01*
X38127000Y-76033000D01*
X39075890Y-76033000D01*
X39135866Y-75851513D01*
X126864134Y-75851513D01*
X126924110Y-76033000D01*
X127873000Y-76033000D01*
X127873000Y-75084724D01*
X128127000Y-75084724D01*
X128127000Y-76033000D01*
X129075890Y-76033000D01*
X129135866Y-75851513D01*
X128931350Y-75440318D01*
X128585045Y-75138688D01*
X128308485Y-75024145D01*
X128127000Y-75084724D01*
X127873000Y-75084724D01*
X127691515Y-75024145D01*
X127414955Y-75138688D01*
X127068650Y-75440318D01*
X126864134Y-75851513D01*
X39135866Y-75851513D01*
X38931350Y-75440318D01*
X38585045Y-75138688D01*
X38308485Y-75024145D01*
X38127000Y-75084724D01*
X37873000Y-75084724D01*
X37691515Y-75024145D01*
X37414955Y-75138688D01*
X37068650Y-75440318D01*
X36864134Y-75851513D01*
X33452000Y-75851513D01*
X33452000Y-74407357D01*
X97547732Y-74407357D01*
X97783512Y-74977989D01*
X98219715Y-75414954D01*
X98789934Y-75651730D01*
X99407357Y-75652268D01*
X99977989Y-75416488D01*
X100414954Y-74980285D01*
X100651730Y-74410066D01*
X100651732Y-74407357D01*
X102547732Y-74407357D01*
X102783512Y-74977989D01*
X103219715Y-75414954D01*
X103789934Y-75651730D01*
X104407357Y-75652268D01*
X104977989Y-75416488D01*
X105414954Y-74980285D01*
X105651730Y-74410066D01*
X105651732Y-74407357D01*
X112547732Y-74407357D01*
X112783512Y-74977989D01*
X113219715Y-75414954D01*
X113789934Y-75651730D01*
X114407357Y-75652268D01*
X114977989Y-75416488D01*
X115414954Y-74980285D01*
X115651730Y-74410066D01*
X115651732Y-74407357D01*
X117547732Y-74407357D01*
X117783512Y-74977989D01*
X118219715Y-75414954D01*
X118789934Y-75651730D01*
X119407357Y-75652268D01*
X119977989Y-75416488D01*
X120414954Y-74980285D01*
X120651730Y-74410066D01*
X120652268Y-73792643D01*
X120416488Y-73222011D01*
X119980285Y-72785046D01*
X119410066Y-72548270D01*
X118792643Y-72547732D01*
X118222011Y-72783512D01*
X117785046Y-73219715D01*
X117548270Y-73789934D01*
X117547732Y-74407357D01*
X115651732Y-74407357D01*
X115652268Y-73792643D01*
X115416488Y-73222011D01*
X114980285Y-72785046D01*
X114410066Y-72548270D01*
X113792643Y-72547732D01*
X113222011Y-72783512D01*
X112785046Y-73219715D01*
X112548270Y-73789934D01*
X112547732Y-74407357D01*
X105651732Y-74407357D01*
X105652268Y-73792643D01*
X105416488Y-73222011D01*
X104980285Y-72785046D01*
X104410066Y-72548270D01*
X103792643Y-72547732D01*
X103222011Y-72783512D01*
X102785046Y-73219715D01*
X102548270Y-73789934D01*
X102547732Y-74407357D01*
X100651732Y-74407357D01*
X100652268Y-73792643D01*
X100416488Y-73222011D01*
X99980285Y-72785046D01*
X99410066Y-72548270D01*
X98792643Y-72547732D01*
X98222011Y-72783512D01*
X97785046Y-73219715D01*
X97548270Y-73789934D01*
X97547732Y-74407357D01*
X33452000Y-74407357D01*
X33452000Y-71136941D01*
X75823000Y-71136941D01*
X75823000Y-71183059D01*
X75912594Y-71633477D01*
X76167735Y-72015324D01*
X76549582Y-72270465D01*
X77000000Y-72360059D01*
X77450418Y-72270465D01*
X77832265Y-72015324D01*
X78087406Y-71633477D01*
X78177000Y-71183059D01*
X78177000Y-71136941D01*
X78087406Y-70686523D01*
X77832265Y-70304676D01*
X77450418Y-70049535D01*
X77000000Y-69959941D01*
X76549582Y-70049535D01*
X76167735Y-70304676D01*
X75912594Y-70686523D01*
X75823000Y-71136941D01*
X33452000Y-71136941D01*
X33452000Y-68311833D01*
X41867772Y-68311833D01*
X42200232Y-68693235D01*
X43367887Y-69176966D01*
X44631776Y-69177034D01*
X45799483Y-68693426D01*
X45799768Y-68693235D01*
X46132228Y-68311833D01*
X44000000Y-66179605D01*
X41867772Y-68311833D01*
X33452000Y-68311833D01*
X33452000Y-66233093D01*
X36822796Y-66233093D01*
X37001606Y-66665846D01*
X37332412Y-66997230D01*
X37764853Y-67176795D01*
X38233093Y-67177204D01*
X38665846Y-66998394D01*
X38997230Y-66667588D01*
X39012100Y-66631776D01*
X40822966Y-66631776D01*
X41306574Y-67799483D01*
X41306765Y-67799768D01*
X41688167Y-68132228D01*
X43820395Y-66000000D01*
X44179605Y-66000000D01*
X46311833Y-68132228D01*
X46693235Y-67799768D01*
X46761878Y-67634073D01*
X73322883Y-67634073D01*
X73425733Y-67882989D01*
X73616010Y-68073598D01*
X73864746Y-68176882D01*
X74134073Y-68177117D01*
X74376375Y-68077000D01*
X77999995Y-68077000D01*
X78000000Y-68077001D01*
X78220808Y-68033078D01*
X78408001Y-67908001D01*
X80239002Y-66077000D01*
X81124203Y-66077000D01*
X81364746Y-66176882D01*
X81634073Y-66177117D01*
X81882989Y-66074267D01*
X82073598Y-65883990D01*
X82176882Y-65635254D01*
X82177087Y-65400000D01*
X95015615Y-65400000D01*
X95015615Y-68600000D01*
X95041903Y-68739708D01*
X95124470Y-68868020D01*
X95250453Y-68954101D01*
X95400000Y-68984385D01*
X98600000Y-68984385D01*
X98739708Y-68958097D01*
X98868020Y-68875530D01*
X98954101Y-68749547D01*
X98984385Y-68600000D01*
X98984385Y-67434069D01*
X110311240Y-67434069D01*
X110569222Y-68056910D01*
X111100864Y-68615837D01*
X111805930Y-68928767D01*
X112113000Y-68878674D01*
X112113000Y-67127000D01*
X112367000Y-67127000D01*
X112367000Y-68878674D01*
X112674070Y-68928767D01*
X113379136Y-68615837D01*
X113668299Y-68311833D01*
X119867772Y-68311833D01*
X120200232Y-68693235D01*
X121367887Y-69176966D01*
X122631776Y-69177034D01*
X123799483Y-68693426D01*
X123799768Y-68693235D01*
X124132228Y-68311833D01*
X122000000Y-66179605D01*
X119867772Y-68311833D01*
X113668299Y-68311833D01*
X113910778Y-68056910D01*
X114168760Y-67434069D01*
X114118462Y-67127000D01*
X112367000Y-67127000D01*
X112113000Y-67127000D01*
X110361538Y-67127000D01*
X110311240Y-67434069D01*
X98984385Y-67434069D01*
X98984385Y-66565931D01*
X110311240Y-66565931D01*
X110361538Y-66873000D01*
X112113000Y-66873000D01*
X112113000Y-65121326D01*
X112367000Y-65121326D01*
X112367000Y-66873000D01*
X114118462Y-66873000D01*
X114157974Y-66631776D01*
X118822966Y-66631776D01*
X119306574Y-67799483D01*
X119306765Y-67799768D01*
X119688167Y-68132228D01*
X121820395Y-66000000D01*
X122179605Y-66000000D01*
X124311833Y-68132228D01*
X124693235Y-67799768D01*
X125176966Y-66632113D01*
X125176987Y-66233093D01*
X126822796Y-66233093D01*
X127001606Y-66665846D01*
X127332412Y-66997230D01*
X127764853Y-67176795D01*
X128233093Y-67177204D01*
X128665846Y-66998394D01*
X128997230Y-66667588D01*
X129176795Y-66235147D01*
X129177204Y-65766907D01*
X128998394Y-65334154D01*
X128667588Y-65002770D01*
X128235147Y-64823205D01*
X127766907Y-64822796D01*
X127334154Y-65001606D01*
X127002770Y-65332412D01*
X126823205Y-65764853D01*
X126822796Y-66233093D01*
X125176987Y-66233093D01*
X125177034Y-65368224D01*
X124693426Y-64200517D01*
X124693235Y-64200232D01*
X124311833Y-63867772D01*
X122179605Y-66000000D01*
X121820395Y-66000000D01*
X119688167Y-63867772D01*
X119306765Y-64200232D01*
X118823034Y-65367887D01*
X118822966Y-66631776D01*
X114157974Y-66631776D01*
X114168760Y-66565931D01*
X113910778Y-65943090D01*
X113379136Y-65384163D01*
X112674070Y-65071233D01*
X112367000Y-65121326D01*
X112113000Y-65121326D01*
X111805930Y-65071233D01*
X111100864Y-65384163D01*
X110569222Y-65943090D01*
X110311240Y-66565931D01*
X98984385Y-66565931D01*
X98984385Y-65400000D01*
X98958097Y-65260292D01*
X98875530Y-65131980D01*
X98749547Y-65045899D01*
X98600000Y-65015615D01*
X95400000Y-65015615D01*
X95260292Y-65041903D01*
X95131980Y-65124470D01*
X95045899Y-65250453D01*
X95015615Y-65400000D01*
X82177087Y-65400000D01*
X82177117Y-65365927D01*
X82074267Y-65117011D01*
X81883990Y-64926402D01*
X81635254Y-64823118D01*
X81365927Y-64822883D01*
X81123625Y-64923000D01*
X80000000Y-64923000D01*
X79779192Y-64966922D01*
X79591999Y-65091999D01*
X77760998Y-66923000D01*
X74375797Y-66923000D01*
X74135254Y-66823118D01*
X73865927Y-66822883D01*
X73617011Y-66925733D01*
X73426402Y-67116010D01*
X73323118Y-67364746D01*
X73322883Y-67634073D01*
X46761878Y-67634073D01*
X47176966Y-66632113D01*
X47177034Y-65368224D01*
X46693426Y-64200517D01*
X46693235Y-64200232D01*
X46311833Y-63867772D01*
X44179605Y-66000000D01*
X43820395Y-66000000D01*
X41688167Y-63867772D01*
X41306765Y-64200232D01*
X40823034Y-65367887D01*
X40822966Y-66631776D01*
X39012100Y-66631776D01*
X39176795Y-66235147D01*
X39177204Y-65766907D01*
X38998394Y-65334154D01*
X38667588Y-65002770D01*
X38235147Y-64823205D01*
X37766907Y-64822796D01*
X37334154Y-65001606D01*
X37002770Y-65332412D01*
X36823205Y-65764853D01*
X36822796Y-66233093D01*
X33452000Y-66233093D01*
X33452000Y-63688167D01*
X41867772Y-63688167D01*
X44000000Y-65820395D01*
X46132228Y-63688167D01*
X119867772Y-63688167D01*
X122000000Y-65820395D01*
X124132228Y-63688167D01*
X123799768Y-63306765D01*
X122632113Y-62823034D01*
X121368224Y-62822966D01*
X120200517Y-63306574D01*
X120200232Y-63306765D01*
X119867772Y-63688167D01*
X46132228Y-63688167D01*
X45799768Y-63306765D01*
X44737164Y-62866554D01*
X48313051Y-62866554D01*
X48401329Y-63040065D01*
X48844916Y-63189996D01*
X49312113Y-63158761D01*
X49598671Y-63040065D01*
X49686949Y-62866554D01*
X49000000Y-62179605D01*
X48313051Y-62866554D01*
X44737164Y-62866554D01*
X44632113Y-62823034D01*
X43368224Y-62822966D01*
X42200517Y-63306574D01*
X42200232Y-63306765D01*
X41867772Y-63688167D01*
X33452000Y-63688167D01*
X33452000Y-61844916D01*
X47810004Y-61844916D01*
X47841239Y-62312113D01*
X47959935Y-62598671D01*
X48133446Y-62686949D01*
X48820395Y-62000000D01*
X49179605Y-62000000D01*
X49866554Y-62686949D01*
X50040065Y-62598671D01*
X50189996Y-62155084D01*
X50179628Y-62000000D01*
X57959941Y-62000000D01*
X58049535Y-62450418D01*
X58304676Y-62832265D01*
X58686523Y-63087406D01*
X59136941Y-63177000D01*
X59183059Y-63177000D01*
X59633477Y-63087406D01*
X60015324Y-62832265D01*
X60270465Y-62450418D01*
X60313693Y-62233093D01*
X60822796Y-62233093D01*
X61001606Y-62665846D01*
X61332412Y-62997230D01*
X61764853Y-63176795D01*
X62233093Y-63177204D01*
X62665846Y-62998394D01*
X62997230Y-62667588D01*
X63176795Y-62235147D01*
X63177000Y-62000000D01*
X70959941Y-62000000D01*
X71049535Y-62450418D01*
X71304676Y-62832265D01*
X71686523Y-63087406D01*
X72136941Y-63177000D01*
X72183059Y-63177000D01*
X72633477Y-63087406D01*
X73015324Y-62832265D01*
X73270465Y-62450418D01*
X73360059Y-62000000D01*
X73270465Y-61549582D01*
X73058995Y-61233093D01*
X75822796Y-61233093D01*
X76001606Y-61665846D01*
X76332412Y-61997230D01*
X76764853Y-62176795D01*
X77233093Y-62177204D01*
X77661959Y-62000000D01*
X92639941Y-62000000D01*
X92729535Y-62450418D01*
X92984676Y-62832265D01*
X93366523Y-63087406D01*
X93816941Y-63177000D01*
X93863059Y-63177000D01*
X94313477Y-63087406D01*
X94695324Y-62832265D01*
X94950465Y-62450418D01*
X94993693Y-62233093D01*
X102822796Y-62233093D01*
X103001606Y-62665846D01*
X103332412Y-62997230D01*
X103764853Y-63176795D01*
X104233093Y-63177204D01*
X104665846Y-62998394D01*
X104997230Y-62667588D01*
X105176795Y-62235147D01*
X105177000Y-62000000D01*
X105639941Y-62000000D01*
X105729535Y-62450418D01*
X105984676Y-62832265D01*
X106366523Y-63087406D01*
X106816941Y-63177000D01*
X106863059Y-63177000D01*
X107313477Y-63087406D01*
X107644006Y-62866554D01*
X116313051Y-62866554D01*
X116401329Y-63040065D01*
X116844916Y-63189996D01*
X117312113Y-63158761D01*
X117598671Y-63040065D01*
X117686949Y-62866554D01*
X117000000Y-62179605D01*
X116313051Y-62866554D01*
X107644006Y-62866554D01*
X107695324Y-62832265D01*
X107950465Y-62450418D01*
X108040059Y-62000000D01*
X108009211Y-61844916D01*
X115810004Y-61844916D01*
X115841239Y-62312113D01*
X115959935Y-62598671D01*
X116133446Y-62686949D01*
X116820395Y-62000000D01*
X117179605Y-62000000D01*
X117866554Y-62686949D01*
X118040065Y-62598671D01*
X118189996Y-62155084D01*
X118158761Y-61687887D01*
X118040065Y-61401329D01*
X117866554Y-61313051D01*
X117179605Y-62000000D01*
X116820395Y-62000000D01*
X116133446Y-61313051D01*
X115959935Y-61401329D01*
X115810004Y-61844916D01*
X108009211Y-61844916D01*
X107950465Y-61549582D01*
X107695324Y-61167735D01*
X107644007Y-61133446D01*
X116313051Y-61133446D01*
X117000000Y-61820395D01*
X117686949Y-61133446D01*
X117598671Y-60959935D01*
X117155084Y-60810004D01*
X116687887Y-60841239D01*
X116401329Y-60959935D01*
X116313051Y-61133446D01*
X107644007Y-61133446D01*
X107313477Y-60912594D01*
X106863059Y-60823000D01*
X106816941Y-60823000D01*
X106366523Y-60912594D01*
X105984676Y-61167735D01*
X105729535Y-61549582D01*
X105639941Y-62000000D01*
X105177000Y-62000000D01*
X105177204Y-61766907D01*
X104998394Y-61334154D01*
X104667588Y-61002770D01*
X104235147Y-60823205D01*
X103766907Y-60822796D01*
X103334154Y-61001606D01*
X103002770Y-61332412D01*
X102823205Y-61764853D01*
X102822796Y-62233093D01*
X94993693Y-62233093D01*
X95040059Y-62000000D01*
X94950465Y-61549582D01*
X94695324Y-61167735D01*
X94313477Y-60912594D01*
X93863059Y-60823000D01*
X93816941Y-60823000D01*
X93366523Y-60912594D01*
X92984676Y-61167735D01*
X92729535Y-61549582D01*
X92639941Y-62000000D01*
X77661959Y-62000000D01*
X77665846Y-61998394D01*
X77997230Y-61667588D01*
X78176795Y-61235147D01*
X78177204Y-60766907D01*
X77998394Y-60334154D01*
X77667588Y-60002770D01*
X77235147Y-59823205D01*
X76766907Y-59822796D01*
X76334154Y-60001606D01*
X76002770Y-60332412D01*
X75823205Y-60764853D01*
X75822796Y-61233093D01*
X73058995Y-61233093D01*
X73015324Y-61167735D01*
X72633477Y-60912594D01*
X72183059Y-60823000D01*
X72136941Y-60823000D01*
X71686523Y-60912594D01*
X71304676Y-61167735D01*
X71049535Y-61549582D01*
X70959941Y-62000000D01*
X63177000Y-62000000D01*
X63177204Y-61766907D01*
X62998394Y-61334154D01*
X62667588Y-61002770D01*
X62235147Y-60823205D01*
X61766907Y-60822796D01*
X61334154Y-61001606D01*
X61002770Y-61332412D01*
X60823205Y-61764853D01*
X60822796Y-62233093D01*
X60313693Y-62233093D01*
X60360059Y-62000000D01*
X60270465Y-61549582D01*
X60015324Y-61167735D01*
X59633477Y-60912594D01*
X59183059Y-60823000D01*
X59136941Y-60823000D01*
X58686523Y-60912594D01*
X58304676Y-61167735D01*
X58049535Y-61549582D01*
X57959941Y-62000000D01*
X50179628Y-62000000D01*
X50158761Y-61687887D01*
X50040065Y-61401329D01*
X49866554Y-61313051D01*
X49179605Y-62000000D01*
X48820395Y-62000000D01*
X48133446Y-61313051D01*
X47959935Y-61401329D01*
X47810004Y-61844916D01*
X33452000Y-61844916D01*
X33452000Y-60000000D01*
X34639941Y-60000000D01*
X34729535Y-60450418D01*
X34984676Y-60832265D01*
X35366523Y-61087406D01*
X35816941Y-61177000D01*
X35863059Y-61177000D01*
X36313477Y-61087406D01*
X36695324Y-60832265D01*
X36950465Y-60450418D01*
X36993693Y-60233093D01*
X44822796Y-60233093D01*
X45001606Y-60665846D01*
X45332412Y-60997230D01*
X45764853Y-61176795D01*
X46233093Y-61177204D01*
X46338995Y-61133446D01*
X48313051Y-61133446D01*
X49000000Y-61820395D01*
X49686949Y-61133446D01*
X49598671Y-60959935D01*
X49155084Y-60810004D01*
X48687887Y-60841239D01*
X48401329Y-60959935D01*
X48313051Y-61133446D01*
X46338995Y-61133446D01*
X46665846Y-60998394D01*
X46997230Y-60667588D01*
X47176795Y-60235147D01*
X47177204Y-59766907D01*
X46998394Y-59334154D01*
X46667588Y-59002770D01*
X46235147Y-58823205D01*
X45766907Y-58822796D01*
X45334154Y-59001606D01*
X45002770Y-59332412D01*
X44823205Y-59764853D01*
X44822796Y-60233093D01*
X36993693Y-60233093D01*
X37040059Y-60000000D01*
X36950465Y-59549582D01*
X36695324Y-59167735D01*
X36313477Y-58912594D01*
X35863059Y-58823000D01*
X35816941Y-58823000D01*
X35366523Y-58912594D01*
X34984676Y-59167735D01*
X34729535Y-59549582D01*
X34639941Y-60000000D01*
X33452000Y-60000000D01*
X33452000Y-58233093D01*
X55822796Y-58233093D01*
X56001606Y-58665846D01*
X56332412Y-58997230D01*
X56764853Y-59176795D01*
X57233093Y-59177204D01*
X57665846Y-58998394D01*
X57997230Y-58667588D01*
X58176795Y-58235147D01*
X58177000Y-58000000D01*
X65959941Y-58000000D01*
X66049535Y-58450418D01*
X66304676Y-58832265D01*
X66686523Y-59087406D01*
X67136941Y-59177000D01*
X67183059Y-59177000D01*
X67633477Y-59087406D01*
X68015324Y-58832265D01*
X68270465Y-58450418D01*
X68360059Y-58000000D01*
X68270465Y-57549582D01*
X68015324Y-57167735D01*
X67633477Y-56912594D01*
X67183059Y-56823000D01*
X67136941Y-56823000D01*
X66686523Y-56912594D01*
X66304676Y-57167735D01*
X66049535Y-57549582D01*
X65959941Y-58000000D01*
X58177000Y-58000000D01*
X58177204Y-57766907D01*
X57998394Y-57334154D01*
X57667588Y-57002770D01*
X57235147Y-56823205D01*
X56766907Y-56822796D01*
X56334154Y-57001606D01*
X56002770Y-57332412D01*
X55823205Y-57764853D01*
X55822796Y-58233093D01*
X33452000Y-58233093D01*
X33452000Y-57171186D01*
X39168419Y-57171186D01*
X39281198Y-57365411D01*
X39797205Y-57548728D01*
X40344085Y-57520624D01*
X40718802Y-57365411D01*
X40831581Y-57171186D01*
X40000000Y-56339605D01*
X39168419Y-57171186D01*
X33452000Y-57171186D01*
X33452000Y-55957205D01*
X38611272Y-55957205D01*
X38639376Y-56504085D01*
X38794589Y-56878802D01*
X38988814Y-56991581D01*
X39820395Y-56160000D01*
X40179605Y-56160000D01*
X41011186Y-56991581D01*
X41205411Y-56878802D01*
X41388728Y-56362795D01*
X41360624Y-55815915D01*
X41205411Y-55441198D01*
X41011186Y-55328419D01*
X40179605Y-56160000D01*
X39820395Y-56160000D01*
X38988814Y-55328419D01*
X38794589Y-55441198D01*
X38611272Y-55957205D01*
X33452000Y-55957205D01*
X33452000Y-55148814D01*
X39168419Y-55148814D01*
X40000000Y-55980395D01*
X40831581Y-55148814D01*
X40824687Y-55136941D01*
X56823000Y-55136941D01*
X56823000Y-55183059D01*
X56912594Y-55633477D01*
X57167735Y-56015324D01*
X57549582Y-56270465D01*
X58000000Y-56360059D01*
X58450418Y-56270465D01*
X58832265Y-56015324D01*
X59087406Y-55633477D01*
X59177000Y-55183059D01*
X59177000Y-55136941D01*
X59087406Y-54686523D01*
X58832265Y-54304676D01*
X58450418Y-54049535D01*
X58000000Y-53959941D01*
X57549582Y-54049535D01*
X57167735Y-54304676D01*
X56912594Y-54686523D01*
X56823000Y-55136941D01*
X40824687Y-55136941D01*
X40718802Y-54954589D01*
X40202795Y-54771272D01*
X39655915Y-54799376D01*
X39281198Y-54954589D01*
X39168419Y-55148814D01*
X33452000Y-55148814D01*
X33452000Y-50127000D01*
X78000000Y-50127000D01*
X78049410Y-50116994D01*
X78091035Y-50088553D01*
X78118315Y-50046159D01*
X78127000Y-50000000D01*
X78127000Y-48177111D01*
X78233093Y-48177204D01*
X78665846Y-47998394D01*
X78997230Y-47667588D01*
X79176795Y-47235147D01*
X79177204Y-46766907D01*
X78998394Y-46334154D01*
X78667588Y-46002770D01*
X78235147Y-45823205D01*
X78127000Y-45823111D01*
X78127000Y-43627000D01*
X87873000Y-43627000D01*
X87873000Y-45875501D01*
X87873000Y-45875501D01*
G37*
X87873000Y-45875501D02*
X87686523Y-45912594D01*
X87304676Y-46167735D01*
X87049535Y-46549582D01*
X86959941Y-47000000D01*
X87049535Y-47450418D01*
X87304676Y-47832265D01*
X87583000Y-48018234D01*
X87583000Y-55600998D01*
X82857727Y-60326271D01*
X82617011Y-60425733D01*
X82426402Y-60616010D01*
X82323118Y-60864746D01*
X82322883Y-61134073D01*
X82425733Y-61382989D01*
X82616010Y-61573598D01*
X82864746Y-61676882D01*
X83134073Y-61677117D01*
X83382989Y-61574267D01*
X83573598Y-61383990D01*
X83674137Y-61141865D01*
X84582909Y-60233093D01*
X118822796Y-60233093D01*
X119001606Y-60665846D01*
X119332412Y-60997230D01*
X119764853Y-61176795D01*
X120233093Y-61177204D01*
X120665846Y-60998394D01*
X120997230Y-60667588D01*
X121176795Y-60235147D01*
X121177000Y-60000000D01*
X128959941Y-60000000D01*
X129049535Y-60450418D01*
X129304676Y-60832265D01*
X129686523Y-61087406D01*
X130136941Y-61177000D01*
X130183059Y-61177000D01*
X130633477Y-61087406D01*
X131015324Y-60832265D01*
X131270465Y-60450418D01*
X131360059Y-60000000D01*
X131270465Y-59549582D01*
X131015324Y-59167735D01*
X130633477Y-58912594D01*
X130183059Y-58823000D01*
X130136941Y-58823000D01*
X129686523Y-58912594D01*
X129304676Y-59167735D01*
X129049535Y-59549582D01*
X128959941Y-60000000D01*
X121177000Y-60000000D01*
X121177204Y-59766907D01*
X120998394Y-59334154D01*
X120667588Y-59002770D01*
X120235147Y-58823205D01*
X119766907Y-58822796D01*
X119334154Y-59001606D01*
X119002770Y-59332412D01*
X118823205Y-59764853D01*
X118822796Y-60233093D01*
X84582909Y-60233093D01*
X86816002Y-58000000D01*
X97639941Y-58000000D01*
X97729535Y-58450418D01*
X97984676Y-58832265D01*
X98366523Y-59087406D01*
X98816941Y-59177000D01*
X98863059Y-59177000D01*
X99313477Y-59087406D01*
X99695324Y-58832265D01*
X99950465Y-58450418D01*
X99993693Y-58233093D01*
X107822796Y-58233093D01*
X108001606Y-58665846D01*
X108332412Y-58997230D01*
X108764853Y-59176795D01*
X109233093Y-59177204D01*
X109665846Y-58998394D01*
X109997230Y-58667588D01*
X110176795Y-58235147D01*
X110177204Y-57766907D01*
X109998394Y-57334154D01*
X109835711Y-57171186D01*
X125168419Y-57171186D01*
X125281198Y-57365411D01*
X125797205Y-57548728D01*
X126344085Y-57520624D01*
X126718802Y-57365411D01*
X126831581Y-57171186D01*
X126000000Y-56339605D01*
X125168419Y-57171186D01*
X109835711Y-57171186D01*
X109667588Y-57002770D01*
X109235147Y-56823205D01*
X108766907Y-56822796D01*
X108334154Y-57001606D01*
X108002770Y-57332412D01*
X107823205Y-57764853D01*
X107822796Y-58233093D01*
X99993693Y-58233093D01*
X100040059Y-58000000D01*
X99950465Y-57549582D01*
X99695324Y-57167735D01*
X99313477Y-56912594D01*
X98863059Y-56823000D01*
X98816941Y-56823000D01*
X98366523Y-56912594D01*
X97984676Y-57167735D01*
X97729535Y-57549582D01*
X97639941Y-58000000D01*
X86816002Y-58000000D01*
X88568001Y-56248001D01*
X88693078Y-56060808D01*
X88737001Y-55840000D01*
X88737000Y-55839995D01*
X88737000Y-55136941D01*
X106823000Y-55136941D01*
X106823000Y-55183059D01*
X106912594Y-55633477D01*
X107167735Y-56015324D01*
X107549582Y-56270465D01*
X108000000Y-56360059D01*
X108450418Y-56270465D01*
X108832265Y-56015324D01*
X108871098Y-55957205D01*
X124611272Y-55957205D01*
X124639376Y-56504085D01*
X124794589Y-56878802D01*
X124988814Y-56991581D01*
X125820395Y-56160000D01*
X126179605Y-56160000D01*
X127011186Y-56991581D01*
X127205411Y-56878802D01*
X127388728Y-56362795D01*
X127360624Y-55815915D01*
X127205411Y-55441198D01*
X127011186Y-55328419D01*
X126179605Y-56160000D01*
X125820395Y-56160000D01*
X124988814Y-55328419D01*
X124794589Y-55441198D01*
X124611272Y-55957205D01*
X108871098Y-55957205D01*
X109087406Y-55633477D01*
X109177000Y-55183059D01*
X109177000Y-55148814D01*
X125168419Y-55148814D01*
X126000000Y-55980395D01*
X126831581Y-55148814D01*
X126718802Y-54954589D01*
X126202795Y-54771272D01*
X125655915Y-54799376D01*
X125281198Y-54954589D01*
X125168419Y-55148814D01*
X109177000Y-55148814D01*
X109177000Y-55136941D01*
X109087406Y-54686523D01*
X108832265Y-54304676D01*
X108450418Y-54049535D01*
X108000000Y-53959941D01*
X107549582Y-54049535D01*
X107167735Y-54304676D01*
X106912594Y-54686523D01*
X106823000Y-55136941D01*
X88737000Y-55136941D01*
X88737000Y-50127000D01*
X132548000Y-50127000D01*
X132548000Y-82548000D01*
X70877000Y-82548000D01*
X70877000Y-80600000D01*
X96839941Y-80600000D01*
X96929535Y-81050418D01*
X97184676Y-81432265D01*
X97566523Y-81687406D01*
X98016941Y-81777000D01*
X98063059Y-81777000D01*
X98513477Y-81687406D01*
X98895324Y-81432265D01*
X99150465Y-81050418D01*
X99193693Y-80833093D01*
X107022796Y-80833093D01*
X107201606Y-81265846D01*
X107532412Y-81597230D01*
X107964853Y-81776795D01*
X108433093Y-81777204D01*
X108865846Y-81598394D01*
X109197230Y-81267588D01*
X109376795Y-80835147D01*
X109377204Y-80366907D01*
X109198394Y-79934154D01*
X108867588Y-79602770D01*
X108435147Y-79423205D01*
X107966907Y-79422796D01*
X107534154Y-79601606D01*
X107202770Y-79932412D01*
X107023205Y-80364853D01*
X107022796Y-80833093D01*
X99193693Y-80833093D01*
X99240059Y-80600000D01*
X99150465Y-80149582D01*
X98895324Y-79767735D01*
X98513477Y-79512594D01*
X98063059Y-79423000D01*
X98016941Y-79423000D01*
X97566523Y-79512594D01*
X97184676Y-79767735D01*
X96929535Y-80149582D01*
X96839941Y-80600000D01*
X70877000Y-80600000D01*
X70877000Y-80571250D01*
X70782750Y-80477000D01*
X68647000Y-80477000D01*
X68647000Y-80497000D01*
X68393000Y-80497000D01*
X68393000Y-80477000D01*
X66257250Y-80477000D01*
X66163000Y-80571250D01*
X66163000Y-82548000D01*
X63637000Y-82548000D01*
X63637000Y-80571250D01*
X63542750Y-80477000D01*
X61407000Y-80477000D01*
X61407000Y-80497000D01*
X61153000Y-80497000D01*
X61153000Y-80477000D01*
X59017250Y-80477000D01*
X58923000Y-80571250D01*
X58923000Y-82548000D01*
X33452000Y-82548000D01*
X33452000Y-78663991D01*
X58530347Y-78663991D01*
X58560012Y-79171146D01*
X58697020Y-79501912D01*
X58880911Y-79602484D01*
X58923000Y-79560395D01*
X58923000Y-80128750D01*
X59017250Y-80223000D01*
X61153000Y-80223000D01*
X61153000Y-79299070D01*
X61237020Y-79501912D01*
X61407000Y-79594876D01*
X61407000Y-79616392D01*
X61351290Y-79672102D01*
X61407000Y-79727812D01*
X61407000Y-80223000D01*
X63542750Y-80223000D01*
X63637000Y-80128750D01*
X63637000Y-79130314D01*
X63816781Y-79565417D01*
X64175693Y-79924957D01*
X64644875Y-80119778D01*
X65152897Y-80120221D01*
X65622417Y-79926219D01*
X65981957Y-79567307D01*
X66163000Y-79131306D01*
X66163000Y-80128750D01*
X66257250Y-80223000D01*
X68393000Y-80223000D01*
X68393000Y-79727812D01*
X68448710Y-79672102D01*
X68393000Y-79616392D01*
X68393000Y-79594876D01*
X68562980Y-79501912D01*
X68647000Y-79259992D01*
X68647000Y-80223000D01*
X70782750Y-80223000D01*
X70877000Y-80128750D01*
X70877000Y-79560395D01*
X70919089Y-79602484D01*
X71102980Y-79501912D01*
X71269653Y-79022009D01*
X71239988Y-78514854D01*
X71102980Y-78184088D01*
X70919089Y-78083516D01*
X70877000Y-78125605D01*
X70877000Y-77775010D01*
X70819605Y-77636447D01*
X70713553Y-77530395D01*
X70574990Y-77473000D01*
X68741250Y-77473000D01*
X68647000Y-77567250D01*
X68647000Y-78386930D01*
X68562980Y-78184088D01*
X68393000Y-78091124D01*
X68393000Y-78069608D01*
X68448710Y-78013898D01*
X68393000Y-77958188D01*
X68393000Y-77567250D01*
X68298750Y-77473000D01*
X66465010Y-77473000D01*
X66326447Y-77530395D01*
X66220395Y-77636447D01*
X66163000Y-77775010D01*
X66163000Y-78555686D01*
X65983219Y-78120583D01*
X65624307Y-77761043D01*
X65155125Y-77566222D01*
X64647103Y-77565779D01*
X64177583Y-77759781D01*
X63818043Y-78118693D01*
X63637000Y-78554694D01*
X63637000Y-77775010D01*
X63579605Y-77636447D01*
X63473553Y-77530395D01*
X63334990Y-77473000D01*
X61501250Y-77473000D01*
X61407000Y-77567250D01*
X61407000Y-77958188D01*
X61351290Y-78013898D01*
X61407000Y-78069608D01*
X61407000Y-78091124D01*
X61237020Y-78184088D01*
X61153000Y-78426008D01*
X61153000Y-77567250D01*
X61058750Y-77473000D01*
X59225010Y-77473000D01*
X59086447Y-77530395D01*
X58980395Y-77636447D01*
X58923000Y-77775010D01*
X58923000Y-78125605D01*
X58880911Y-78083516D01*
X58697020Y-78184088D01*
X58530347Y-78663991D01*
X33452000Y-78663991D01*
X33452000Y-76468487D01*
X36864134Y-76468487D01*
X37068650Y-76879682D01*
X37414955Y-77181312D01*
X37691515Y-77295855D01*
X37873000Y-77235276D01*
X37873000Y-76287000D01*
X38127000Y-76287000D01*
X38127000Y-77235276D01*
X38308485Y-77295855D01*
X38585045Y-77181312D01*
X38931350Y-76879682D01*
X39135866Y-76468487D01*
X126864134Y-76468487D01*
X127068650Y-76879682D01*
X127414955Y-77181312D01*
X127691515Y-77295855D01*
X127873000Y-77235276D01*
X127873000Y-76287000D01*
X128127000Y-76287000D01*
X128127000Y-77235276D01*
X128308485Y-77295855D01*
X128585045Y-77181312D01*
X128931350Y-76879682D01*
X129135866Y-76468487D01*
X129075890Y-76287000D01*
X128127000Y-76287000D01*
X127873000Y-76287000D01*
X126924110Y-76287000D01*
X126864134Y-76468487D01*
X39135866Y-76468487D01*
X39075890Y-76287000D01*
X38127000Y-76287000D01*
X37873000Y-76287000D01*
X36924110Y-76287000D01*
X36864134Y-76468487D01*
X33452000Y-76468487D01*
X33452000Y-75851513D01*
X36864134Y-75851513D01*
X36924110Y-76033000D01*
X37873000Y-76033000D01*
X37873000Y-75084724D01*
X38127000Y-75084724D01*
X38127000Y-76033000D01*
X39075890Y-76033000D01*
X39135866Y-75851513D01*
X126864134Y-75851513D01*
X126924110Y-76033000D01*
X127873000Y-76033000D01*
X127873000Y-75084724D01*
X128127000Y-75084724D01*
X128127000Y-76033000D01*
X129075890Y-76033000D01*
X129135866Y-75851513D01*
X128931350Y-75440318D01*
X128585045Y-75138688D01*
X128308485Y-75024145D01*
X128127000Y-75084724D01*
X127873000Y-75084724D01*
X127691515Y-75024145D01*
X127414955Y-75138688D01*
X127068650Y-75440318D01*
X126864134Y-75851513D01*
X39135866Y-75851513D01*
X38931350Y-75440318D01*
X38585045Y-75138688D01*
X38308485Y-75024145D01*
X38127000Y-75084724D01*
X37873000Y-75084724D01*
X37691515Y-75024145D01*
X37414955Y-75138688D01*
X37068650Y-75440318D01*
X36864134Y-75851513D01*
X33452000Y-75851513D01*
X33452000Y-74407357D01*
X97547732Y-74407357D01*
X97783512Y-74977989D01*
X98219715Y-75414954D01*
X98789934Y-75651730D01*
X99407357Y-75652268D01*
X99977989Y-75416488D01*
X100414954Y-74980285D01*
X100651730Y-74410066D01*
X100651732Y-74407357D01*
X102547732Y-74407357D01*
X102783512Y-74977989D01*
X103219715Y-75414954D01*
X103789934Y-75651730D01*
X104407357Y-75652268D01*
X104977989Y-75416488D01*
X105414954Y-74980285D01*
X105651730Y-74410066D01*
X105651732Y-74407357D01*
X112547732Y-74407357D01*
X112783512Y-74977989D01*
X113219715Y-75414954D01*
X113789934Y-75651730D01*
X114407357Y-75652268D01*
X114977989Y-75416488D01*
X115414954Y-74980285D01*
X115651730Y-74410066D01*
X115651732Y-74407357D01*
X117547732Y-74407357D01*
X117783512Y-74977989D01*
X118219715Y-75414954D01*
X118789934Y-75651730D01*
X119407357Y-75652268D01*
X119977989Y-75416488D01*
X120414954Y-74980285D01*
X120651730Y-74410066D01*
X120652268Y-73792643D01*
X120416488Y-73222011D01*
X119980285Y-72785046D01*
X119410066Y-72548270D01*
X118792643Y-72547732D01*
X118222011Y-72783512D01*
X117785046Y-73219715D01*
X117548270Y-73789934D01*
X117547732Y-74407357D01*
X115651732Y-74407357D01*
X115652268Y-73792643D01*
X115416488Y-73222011D01*
X114980285Y-72785046D01*
X114410066Y-72548270D01*
X113792643Y-72547732D01*
X113222011Y-72783512D01*
X112785046Y-73219715D01*
X112548270Y-73789934D01*
X112547732Y-74407357D01*
X105651732Y-74407357D01*
X105652268Y-73792643D01*
X105416488Y-73222011D01*
X104980285Y-72785046D01*
X104410066Y-72548270D01*
X103792643Y-72547732D01*
X103222011Y-72783512D01*
X102785046Y-73219715D01*
X102548270Y-73789934D01*
X102547732Y-74407357D01*
X100651732Y-74407357D01*
X100652268Y-73792643D01*
X100416488Y-73222011D01*
X99980285Y-72785046D01*
X99410066Y-72548270D01*
X98792643Y-72547732D01*
X98222011Y-72783512D01*
X97785046Y-73219715D01*
X97548270Y-73789934D01*
X97547732Y-74407357D01*
X33452000Y-74407357D01*
X33452000Y-71136941D01*
X75823000Y-71136941D01*
X75823000Y-71183059D01*
X75912594Y-71633477D01*
X76167735Y-72015324D01*
X76549582Y-72270465D01*
X77000000Y-72360059D01*
X77450418Y-72270465D01*
X77832265Y-72015324D01*
X78087406Y-71633477D01*
X78177000Y-71183059D01*
X78177000Y-71136941D01*
X78087406Y-70686523D01*
X77832265Y-70304676D01*
X77450418Y-70049535D01*
X77000000Y-69959941D01*
X76549582Y-70049535D01*
X76167735Y-70304676D01*
X75912594Y-70686523D01*
X75823000Y-71136941D01*
X33452000Y-71136941D01*
X33452000Y-68311833D01*
X41867772Y-68311833D01*
X42200232Y-68693235D01*
X43367887Y-69176966D01*
X44631776Y-69177034D01*
X45799483Y-68693426D01*
X45799768Y-68693235D01*
X46132228Y-68311833D01*
X44000000Y-66179605D01*
X41867772Y-68311833D01*
X33452000Y-68311833D01*
X33452000Y-66233093D01*
X36822796Y-66233093D01*
X37001606Y-66665846D01*
X37332412Y-66997230D01*
X37764853Y-67176795D01*
X38233093Y-67177204D01*
X38665846Y-66998394D01*
X38997230Y-66667588D01*
X39012100Y-66631776D01*
X40822966Y-66631776D01*
X41306574Y-67799483D01*
X41306765Y-67799768D01*
X41688167Y-68132228D01*
X43820395Y-66000000D01*
X44179605Y-66000000D01*
X46311833Y-68132228D01*
X46693235Y-67799768D01*
X46761878Y-67634073D01*
X73322883Y-67634073D01*
X73425733Y-67882989D01*
X73616010Y-68073598D01*
X73864746Y-68176882D01*
X74134073Y-68177117D01*
X74376375Y-68077000D01*
X77999995Y-68077000D01*
X78000000Y-68077001D01*
X78220808Y-68033078D01*
X78408001Y-67908001D01*
X80239002Y-66077000D01*
X81124203Y-66077000D01*
X81364746Y-66176882D01*
X81634073Y-66177117D01*
X81882989Y-66074267D01*
X82073598Y-65883990D01*
X82176882Y-65635254D01*
X82177087Y-65400000D01*
X95015615Y-65400000D01*
X95015615Y-68600000D01*
X95041903Y-68739708D01*
X95124470Y-68868020D01*
X95250453Y-68954101D01*
X95400000Y-68984385D01*
X98600000Y-68984385D01*
X98739708Y-68958097D01*
X98868020Y-68875530D01*
X98954101Y-68749547D01*
X98984385Y-68600000D01*
X98984385Y-67434069D01*
X110311240Y-67434069D01*
X110569222Y-68056910D01*
X111100864Y-68615837D01*
X111805930Y-68928767D01*
X112113000Y-68878674D01*
X112113000Y-67127000D01*
X112367000Y-67127000D01*
X112367000Y-68878674D01*
X112674070Y-68928767D01*
X113379136Y-68615837D01*
X113668299Y-68311833D01*
X119867772Y-68311833D01*
X120200232Y-68693235D01*
X121367887Y-69176966D01*
X122631776Y-69177034D01*
X123799483Y-68693426D01*
X123799768Y-68693235D01*
X124132228Y-68311833D01*
X122000000Y-66179605D01*
X119867772Y-68311833D01*
X113668299Y-68311833D01*
X113910778Y-68056910D01*
X114168760Y-67434069D01*
X114118462Y-67127000D01*
X112367000Y-67127000D01*
X112113000Y-67127000D01*
X110361538Y-67127000D01*
X110311240Y-67434069D01*
X98984385Y-67434069D01*
X98984385Y-66565931D01*
X110311240Y-66565931D01*
X110361538Y-66873000D01*
X112113000Y-66873000D01*
X112113000Y-65121326D01*
X112367000Y-65121326D01*
X112367000Y-66873000D01*
X114118462Y-66873000D01*
X114157974Y-66631776D01*
X118822966Y-66631776D01*
X119306574Y-67799483D01*
X119306765Y-67799768D01*
X119688167Y-68132228D01*
X121820395Y-66000000D01*
X122179605Y-66000000D01*
X124311833Y-68132228D01*
X124693235Y-67799768D01*
X125176966Y-66632113D01*
X125176987Y-66233093D01*
X126822796Y-66233093D01*
X127001606Y-66665846D01*
X127332412Y-66997230D01*
X127764853Y-67176795D01*
X128233093Y-67177204D01*
X128665846Y-66998394D01*
X128997230Y-66667588D01*
X129176795Y-66235147D01*
X129177204Y-65766907D01*
X128998394Y-65334154D01*
X128667588Y-65002770D01*
X128235147Y-64823205D01*
X127766907Y-64822796D01*
X127334154Y-65001606D01*
X127002770Y-65332412D01*
X126823205Y-65764853D01*
X126822796Y-66233093D01*
X125176987Y-66233093D01*
X125177034Y-65368224D01*
X124693426Y-64200517D01*
X124693235Y-64200232D01*
X124311833Y-63867772D01*
X122179605Y-66000000D01*
X121820395Y-66000000D01*
X119688167Y-63867772D01*
X119306765Y-64200232D01*
X118823034Y-65367887D01*
X118822966Y-66631776D01*
X114157974Y-66631776D01*
X114168760Y-66565931D01*
X113910778Y-65943090D01*
X113379136Y-65384163D01*
X112674070Y-65071233D01*
X112367000Y-65121326D01*
X112113000Y-65121326D01*
X111805930Y-65071233D01*
X111100864Y-65384163D01*
X110569222Y-65943090D01*
X110311240Y-66565931D01*
X98984385Y-66565931D01*
X98984385Y-65400000D01*
X98958097Y-65260292D01*
X98875530Y-65131980D01*
X98749547Y-65045899D01*
X98600000Y-65015615D01*
X95400000Y-65015615D01*
X95260292Y-65041903D01*
X95131980Y-65124470D01*
X95045899Y-65250453D01*
X95015615Y-65400000D01*
X82177087Y-65400000D01*
X82177117Y-65365927D01*
X82074267Y-65117011D01*
X81883990Y-64926402D01*
X81635254Y-64823118D01*
X81365927Y-64822883D01*
X81123625Y-64923000D01*
X80000000Y-64923000D01*
X79779192Y-64966922D01*
X79591999Y-65091999D01*
X77760998Y-66923000D01*
X74375797Y-66923000D01*
X74135254Y-66823118D01*
X73865927Y-66822883D01*
X73617011Y-66925733D01*
X73426402Y-67116010D01*
X73323118Y-67364746D01*
X73322883Y-67634073D01*
X46761878Y-67634073D01*
X47176966Y-66632113D01*
X47177034Y-65368224D01*
X46693426Y-64200517D01*
X46693235Y-64200232D01*
X46311833Y-63867772D01*
X44179605Y-66000000D01*
X43820395Y-66000000D01*
X41688167Y-63867772D01*
X41306765Y-64200232D01*
X40823034Y-65367887D01*
X40822966Y-66631776D01*
X39012100Y-66631776D01*
X39176795Y-66235147D01*
X39177204Y-65766907D01*
X38998394Y-65334154D01*
X38667588Y-65002770D01*
X38235147Y-64823205D01*
X37766907Y-64822796D01*
X37334154Y-65001606D01*
X37002770Y-65332412D01*
X36823205Y-65764853D01*
X36822796Y-66233093D01*
X33452000Y-66233093D01*
X33452000Y-63688167D01*
X41867772Y-63688167D01*
X44000000Y-65820395D01*
X46132228Y-63688167D01*
X119867772Y-63688167D01*
X122000000Y-65820395D01*
X124132228Y-63688167D01*
X123799768Y-63306765D01*
X122632113Y-62823034D01*
X121368224Y-62822966D01*
X120200517Y-63306574D01*
X120200232Y-63306765D01*
X119867772Y-63688167D01*
X46132228Y-63688167D01*
X45799768Y-63306765D01*
X44737164Y-62866554D01*
X48313051Y-62866554D01*
X48401329Y-63040065D01*
X48844916Y-63189996D01*
X49312113Y-63158761D01*
X49598671Y-63040065D01*
X49686949Y-62866554D01*
X49000000Y-62179605D01*
X48313051Y-62866554D01*
X44737164Y-62866554D01*
X44632113Y-62823034D01*
X43368224Y-62822966D01*
X42200517Y-63306574D01*
X42200232Y-63306765D01*
X41867772Y-63688167D01*
X33452000Y-63688167D01*
X33452000Y-61844916D01*
X47810004Y-61844916D01*
X47841239Y-62312113D01*
X47959935Y-62598671D01*
X48133446Y-62686949D01*
X48820395Y-62000000D01*
X49179605Y-62000000D01*
X49866554Y-62686949D01*
X50040065Y-62598671D01*
X50189996Y-62155084D01*
X50179628Y-62000000D01*
X57959941Y-62000000D01*
X58049535Y-62450418D01*
X58304676Y-62832265D01*
X58686523Y-63087406D01*
X59136941Y-63177000D01*
X59183059Y-63177000D01*
X59633477Y-63087406D01*
X60015324Y-62832265D01*
X60270465Y-62450418D01*
X60313693Y-62233093D01*
X60822796Y-62233093D01*
X61001606Y-62665846D01*
X61332412Y-62997230D01*
X61764853Y-63176795D01*
X62233093Y-63177204D01*
X62665846Y-62998394D01*
X62997230Y-62667588D01*
X63176795Y-62235147D01*
X63177000Y-62000000D01*
X70959941Y-62000000D01*
X71049535Y-62450418D01*
X71304676Y-62832265D01*
X71686523Y-63087406D01*
X72136941Y-63177000D01*
X72183059Y-63177000D01*
X72633477Y-63087406D01*
X73015324Y-62832265D01*
X73270465Y-62450418D01*
X73360059Y-62000000D01*
X73270465Y-61549582D01*
X73058995Y-61233093D01*
X75822796Y-61233093D01*
X76001606Y-61665846D01*
X76332412Y-61997230D01*
X76764853Y-62176795D01*
X77233093Y-62177204D01*
X77661959Y-62000000D01*
X92639941Y-62000000D01*
X92729535Y-62450418D01*
X92984676Y-62832265D01*
X93366523Y-63087406D01*
X93816941Y-63177000D01*
X93863059Y-63177000D01*
X94313477Y-63087406D01*
X94695324Y-62832265D01*
X94950465Y-62450418D01*
X94993693Y-62233093D01*
X102822796Y-62233093D01*
X103001606Y-62665846D01*
X103332412Y-62997230D01*
X103764853Y-63176795D01*
X104233093Y-63177204D01*
X104665846Y-62998394D01*
X104997230Y-62667588D01*
X105176795Y-62235147D01*
X105177000Y-62000000D01*
X105639941Y-62000000D01*
X105729535Y-62450418D01*
X105984676Y-62832265D01*
X106366523Y-63087406D01*
X106816941Y-63177000D01*
X106863059Y-63177000D01*
X107313477Y-63087406D01*
X107644006Y-62866554D01*
X116313051Y-62866554D01*
X116401329Y-63040065D01*
X116844916Y-63189996D01*
X117312113Y-63158761D01*
X117598671Y-63040065D01*
X117686949Y-62866554D01*
X117000000Y-62179605D01*
X116313051Y-62866554D01*
X107644006Y-62866554D01*
X107695324Y-62832265D01*
X107950465Y-62450418D01*
X108040059Y-62000000D01*
X108009211Y-61844916D01*
X115810004Y-61844916D01*
X115841239Y-62312113D01*
X115959935Y-62598671D01*
X116133446Y-62686949D01*
X116820395Y-62000000D01*
X117179605Y-62000000D01*
X117866554Y-62686949D01*
X118040065Y-62598671D01*
X118189996Y-62155084D01*
X118158761Y-61687887D01*
X118040065Y-61401329D01*
X117866554Y-61313051D01*
X117179605Y-62000000D01*
X116820395Y-62000000D01*
X116133446Y-61313051D01*
X115959935Y-61401329D01*
X115810004Y-61844916D01*
X108009211Y-61844916D01*
X107950465Y-61549582D01*
X107695324Y-61167735D01*
X107644007Y-61133446D01*
X116313051Y-61133446D01*
X117000000Y-61820395D01*
X117686949Y-61133446D01*
X117598671Y-60959935D01*
X117155084Y-60810004D01*
X116687887Y-60841239D01*
X116401329Y-60959935D01*
X116313051Y-61133446D01*
X107644007Y-61133446D01*
X107313477Y-60912594D01*
X106863059Y-60823000D01*
X106816941Y-60823000D01*
X106366523Y-60912594D01*
X105984676Y-61167735D01*
X105729535Y-61549582D01*
X105639941Y-62000000D01*
X105177000Y-62000000D01*
X105177204Y-61766907D01*
X104998394Y-61334154D01*
X104667588Y-61002770D01*
X104235147Y-60823205D01*
X103766907Y-60822796D01*
X103334154Y-61001606D01*
X103002770Y-61332412D01*
X102823205Y-61764853D01*
X102822796Y-62233093D01*
X94993693Y-62233093D01*
X95040059Y-62000000D01*
X94950465Y-61549582D01*
X94695324Y-61167735D01*
X94313477Y-60912594D01*
X93863059Y-60823000D01*
X93816941Y-60823000D01*
X93366523Y-60912594D01*
X92984676Y-61167735D01*
X92729535Y-61549582D01*
X92639941Y-62000000D01*
X77661959Y-62000000D01*
X77665846Y-61998394D01*
X77997230Y-61667588D01*
X78176795Y-61235147D01*
X78177204Y-60766907D01*
X77998394Y-60334154D01*
X77667588Y-60002770D01*
X77235147Y-59823205D01*
X76766907Y-59822796D01*
X76334154Y-60001606D01*
X76002770Y-60332412D01*
X75823205Y-60764853D01*
X75822796Y-61233093D01*
X73058995Y-61233093D01*
X73015324Y-61167735D01*
X72633477Y-60912594D01*
X72183059Y-60823000D01*
X72136941Y-60823000D01*
X71686523Y-60912594D01*
X71304676Y-61167735D01*
X71049535Y-61549582D01*
X70959941Y-62000000D01*
X63177000Y-62000000D01*
X63177204Y-61766907D01*
X62998394Y-61334154D01*
X62667588Y-61002770D01*
X62235147Y-60823205D01*
X61766907Y-60822796D01*
X61334154Y-61001606D01*
X61002770Y-61332412D01*
X60823205Y-61764853D01*
X60822796Y-62233093D01*
X60313693Y-62233093D01*
X60360059Y-62000000D01*
X60270465Y-61549582D01*
X60015324Y-61167735D01*
X59633477Y-60912594D01*
X59183059Y-60823000D01*
X59136941Y-60823000D01*
X58686523Y-60912594D01*
X58304676Y-61167735D01*
X58049535Y-61549582D01*
X57959941Y-62000000D01*
X50179628Y-62000000D01*
X50158761Y-61687887D01*
X50040065Y-61401329D01*
X49866554Y-61313051D01*
X49179605Y-62000000D01*
X48820395Y-62000000D01*
X48133446Y-61313051D01*
X47959935Y-61401329D01*
X47810004Y-61844916D01*
X33452000Y-61844916D01*
X33452000Y-60000000D01*
X34639941Y-60000000D01*
X34729535Y-60450418D01*
X34984676Y-60832265D01*
X35366523Y-61087406D01*
X35816941Y-61177000D01*
X35863059Y-61177000D01*
X36313477Y-61087406D01*
X36695324Y-60832265D01*
X36950465Y-60450418D01*
X36993693Y-60233093D01*
X44822796Y-60233093D01*
X45001606Y-60665846D01*
X45332412Y-60997230D01*
X45764853Y-61176795D01*
X46233093Y-61177204D01*
X46338995Y-61133446D01*
X48313051Y-61133446D01*
X49000000Y-61820395D01*
X49686949Y-61133446D01*
X49598671Y-60959935D01*
X49155084Y-60810004D01*
X48687887Y-60841239D01*
X48401329Y-60959935D01*
X48313051Y-61133446D01*
X46338995Y-61133446D01*
X46665846Y-60998394D01*
X46997230Y-60667588D01*
X47176795Y-60235147D01*
X47177204Y-59766907D01*
X46998394Y-59334154D01*
X46667588Y-59002770D01*
X46235147Y-58823205D01*
X45766907Y-58822796D01*
X45334154Y-59001606D01*
X45002770Y-59332412D01*
X44823205Y-59764853D01*
X44822796Y-60233093D01*
X36993693Y-60233093D01*
X37040059Y-60000000D01*
X36950465Y-59549582D01*
X36695324Y-59167735D01*
X36313477Y-58912594D01*
X35863059Y-58823000D01*
X35816941Y-58823000D01*
X35366523Y-58912594D01*
X34984676Y-59167735D01*
X34729535Y-59549582D01*
X34639941Y-60000000D01*
X33452000Y-60000000D01*
X33452000Y-58233093D01*
X55822796Y-58233093D01*
X56001606Y-58665846D01*
X56332412Y-58997230D01*
X56764853Y-59176795D01*
X57233093Y-59177204D01*
X57665846Y-58998394D01*
X57997230Y-58667588D01*
X58176795Y-58235147D01*
X58177000Y-58000000D01*
X65959941Y-58000000D01*
X66049535Y-58450418D01*
X66304676Y-58832265D01*
X66686523Y-59087406D01*
X67136941Y-59177000D01*
X67183059Y-59177000D01*
X67633477Y-59087406D01*
X68015324Y-58832265D01*
X68270465Y-58450418D01*
X68360059Y-58000000D01*
X68270465Y-57549582D01*
X68015324Y-57167735D01*
X67633477Y-56912594D01*
X67183059Y-56823000D01*
X67136941Y-56823000D01*
X66686523Y-56912594D01*
X66304676Y-57167735D01*
X66049535Y-57549582D01*
X65959941Y-58000000D01*
X58177000Y-58000000D01*
X58177204Y-57766907D01*
X57998394Y-57334154D01*
X57667588Y-57002770D01*
X57235147Y-56823205D01*
X56766907Y-56822796D01*
X56334154Y-57001606D01*
X56002770Y-57332412D01*
X55823205Y-57764853D01*
X55822796Y-58233093D01*
X33452000Y-58233093D01*
X33452000Y-57171186D01*
X39168419Y-57171186D01*
X39281198Y-57365411D01*
X39797205Y-57548728D01*
X40344085Y-57520624D01*
X40718802Y-57365411D01*
X40831581Y-57171186D01*
X40000000Y-56339605D01*
X39168419Y-57171186D01*
X33452000Y-57171186D01*
X33452000Y-55957205D01*
X38611272Y-55957205D01*
X38639376Y-56504085D01*
X38794589Y-56878802D01*
X38988814Y-56991581D01*
X39820395Y-56160000D01*
X40179605Y-56160000D01*
X41011186Y-56991581D01*
X41205411Y-56878802D01*
X41388728Y-56362795D01*
X41360624Y-55815915D01*
X41205411Y-55441198D01*
X41011186Y-55328419D01*
X40179605Y-56160000D01*
X39820395Y-56160000D01*
X38988814Y-55328419D01*
X38794589Y-55441198D01*
X38611272Y-55957205D01*
X33452000Y-55957205D01*
X33452000Y-55148814D01*
X39168419Y-55148814D01*
X40000000Y-55980395D01*
X40831581Y-55148814D01*
X40824687Y-55136941D01*
X56823000Y-55136941D01*
X56823000Y-55183059D01*
X56912594Y-55633477D01*
X57167735Y-56015324D01*
X57549582Y-56270465D01*
X58000000Y-56360059D01*
X58450418Y-56270465D01*
X58832265Y-56015324D01*
X59087406Y-55633477D01*
X59177000Y-55183059D01*
X59177000Y-55136941D01*
X59087406Y-54686523D01*
X58832265Y-54304676D01*
X58450418Y-54049535D01*
X58000000Y-53959941D01*
X57549582Y-54049535D01*
X57167735Y-54304676D01*
X56912594Y-54686523D01*
X56823000Y-55136941D01*
X40824687Y-55136941D01*
X40718802Y-54954589D01*
X40202795Y-54771272D01*
X39655915Y-54799376D01*
X39281198Y-54954589D01*
X39168419Y-55148814D01*
X33452000Y-55148814D01*
X33452000Y-50127000D01*
X78000000Y-50127000D01*
X78049410Y-50116994D01*
X78091035Y-50088553D01*
X78118315Y-50046159D01*
X78127000Y-50000000D01*
X78127000Y-48177111D01*
X78233093Y-48177204D01*
X78665846Y-47998394D01*
X78997230Y-47667588D01*
X79176795Y-47235147D01*
X79177204Y-46766907D01*
X78998394Y-46334154D01*
X78667588Y-46002770D01*
X78235147Y-45823205D01*
X78127000Y-45823111D01*
X78127000Y-43627000D01*
X87873000Y-43627000D01*
X87873000Y-45875501D01*
G36*
X132548000Y-39873000D02*
X130365888Y-39873000D01*
X130799483Y-39693426D01*
X130799768Y-39693235D01*
X131132228Y-39311833D01*
X129000000Y-37179605D01*
X126867772Y-39311833D01*
X127200232Y-39693235D01*
X127634158Y-39873000D01*
X89365888Y-39873000D01*
X89799483Y-39693426D01*
X89799768Y-39693235D01*
X90132228Y-39311833D01*
X88000000Y-37179605D01*
X85867772Y-39311833D01*
X86200232Y-39693235D01*
X86634158Y-39873000D01*
X84127000Y-39873000D01*
X84127000Y-37631776D01*
X84822966Y-37631776D01*
X85306574Y-38799483D01*
X85306765Y-38799768D01*
X85688167Y-39132228D01*
X87820395Y-37000000D01*
X88179605Y-37000000D01*
X90311833Y-39132228D01*
X90693235Y-38799768D01*
X91176966Y-37632113D01*
X91176966Y-37631776D01*
X125822966Y-37631776D01*
X126306574Y-38799483D01*
X126306765Y-38799768D01*
X126688167Y-39132228D01*
X128820395Y-37000000D01*
X129179605Y-37000000D01*
X131311833Y-39132228D01*
X131693235Y-38799768D01*
X132176966Y-37632113D01*
X132177034Y-36368224D01*
X131693426Y-35200517D01*
X131693235Y-35200232D01*
X131311833Y-34867772D01*
X129179605Y-37000000D01*
X128820395Y-37000000D01*
X126688167Y-34867772D01*
X126306765Y-35200232D01*
X125823034Y-36367887D01*
X125822966Y-37631776D01*
X91176966Y-37631776D01*
X91177034Y-36368224D01*
X90693426Y-35200517D01*
X90693235Y-35200232D01*
X90311833Y-34867772D01*
X88179605Y-37000000D01*
X87820395Y-37000000D01*
X85688167Y-34867772D01*
X85306765Y-35200232D01*
X84823034Y-36367887D01*
X84822966Y-37631776D01*
X84127000Y-37631776D01*
X84127000Y-34688167D01*
X85867772Y-34688167D01*
X88000000Y-36820395D01*
X90132228Y-34688167D01*
X126867772Y-34688167D01*
X129000000Y-36820395D01*
X131132228Y-34688167D01*
X130799768Y-34306765D01*
X129632113Y-33823034D01*
X128368224Y-33822966D01*
X127200517Y-34306574D01*
X127200232Y-34306765D01*
X126867772Y-34688167D01*
X90132228Y-34688167D01*
X89799768Y-34306765D01*
X88632113Y-33823034D01*
X87368224Y-33822966D01*
X86200517Y-34306574D01*
X86200232Y-34306765D01*
X85867772Y-34688167D01*
X84127000Y-34688167D01*
X84127000Y-33452000D01*
X132548000Y-33452000D01*
X132548000Y-39873000D01*
X132548000Y-39873000D01*
G37*
X132548000Y-39873000D02*
X130365888Y-39873000D01*
X130799483Y-39693426D01*
X130799768Y-39693235D01*
X131132228Y-39311833D01*
X129000000Y-37179605D01*
X126867772Y-39311833D01*
X127200232Y-39693235D01*
X127634158Y-39873000D01*
X89365888Y-39873000D01*
X89799483Y-39693426D01*
X89799768Y-39693235D01*
X90132228Y-39311833D01*
X88000000Y-37179605D01*
X85867772Y-39311833D01*
X86200232Y-39693235D01*
X86634158Y-39873000D01*
X84127000Y-39873000D01*
X84127000Y-37631776D01*
X84822966Y-37631776D01*
X85306574Y-38799483D01*
X85306765Y-38799768D01*
X85688167Y-39132228D01*
X87820395Y-37000000D01*
X88179605Y-37000000D01*
X90311833Y-39132228D01*
X90693235Y-38799768D01*
X91176966Y-37632113D01*
X91176966Y-37631776D01*
X125822966Y-37631776D01*
X126306574Y-38799483D01*
X126306765Y-38799768D01*
X126688167Y-39132228D01*
X128820395Y-37000000D01*
X129179605Y-37000000D01*
X131311833Y-39132228D01*
X131693235Y-38799768D01*
X132176966Y-37632113D01*
X132177034Y-36368224D01*
X131693426Y-35200517D01*
X131693235Y-35200232D01*
X131311833Y-34867772D01*
X129179605Y-37000000D01*
X128820395Y-37000000D01*
X126688167Y-34867772D01*
X126306765Y-35200232D01*
X125823034Y-36367887D01*
X125822966Y-37631776D01*
X91176966Y-37631776D01*
X91177034Y-36368224D01*
X90693426Y-35200517D01*
X90693235Y-35200232D01*
X90311833Y-34867772D01*
X88179605Y-37000000D01*
X87820395Y-37000000D01*
X85688167Y-34867772D01*
X85306765Y-35200232D01*
X84823034Y-36367887D01*
X84822966Y-37631776D01*
X84127000Y-37631776D01*
X84127000Y-34688167D01*
X85867772Y-34688167D01*
X88000000Y-36820395D01*
X90132228Y-34688167D01*
X126867772Y-34688167D01*
X129000000Y-36820395D01*
X131132228Y-34688167D01*
X130799768Y-34306765D01*
X129632113Y-33823034D01*
X128368224Y-33822966D01*
X127200517Y-34306574D01*
X127200232Y-34306765D01*
X126867772Y-34688167D01*
X90132228Y-34688167D01*
X89799768Y-34306765D01*
X88632113Y-33823034D01*
X87368224Y-33822966D01*
X86200517Y-34306574D01*
X86200232Y-34306765D01*
X85867772Y-34688167D01*
X84127000Y-34688167D01*
X84127000Y-33452000D01*
X132548000Y-33452000D01*
X132548000Y-39873000D01*
G36*
X81873000Y-39873000D02*
X79365888Y-39873000D01*
X79799483Y-39693426D01*
X79799768Y-39693235D01*
X80132228Y-39311833D01*
X78000000Y-37179605D01*
X75867772Y-39311833D01*
X76200232Y-39693235D01*
X76634158Y-39873000D01*
X38365888Y-39873000D01*
X38799483Y-39693426D01*
X38799768Y-39693235D01*
X39132228Y-39311833D01*
X37000000Y-37179605D01*
X34867772Y-39311833D01*
X35200232Y-39693235D01*
X35634158Y-39873000D01*
X33452000Y-39873000D01*
X33452000Y-37631776D01*
X33822966Y-37631776D01*
X34306574Y-38799483D01*
X34306765Y-38799768D01*
X34688167Y-39132228D01*
X36820395Y-37000000D01*
X37179605Y-37000000D01*
X39311833Y-39132228D01*
X39693235Y-38799768D01*
X40176966Y-37632113D01*
X40176966Y-37631776D01*
X74822966Y-37631776D01*
X75306574Y-38799483D01*
X75306765Y-38799768D01*
X75688167Y-39132228D01*
X77820395Y-37000000D01*
X78179605Y-37000000D01*
X80311833Y-39132228D01*
X80693235Y-38799768D01*
X81176966Y-37632113D01*
X81177034Y-36368224D01*
X80693426Y-35200517D01*
X80693235Y-35200232D01*
X80311833Y-34867772D01*
X78179605Y-37000000D01*
X77820395Y-37000000D01*
X75688167Y-34867772D01*
X75306765Y-35200232D01*
X74823034Y-36367887D01*
X74822966Y-37631776D01*
X40176966Y-37631776D01*
X40177034Y-36368224D01*
X39693426Y-35200517D01*
X39693235Y-35200232D01*
X39311833Y-34867772D01*
X37179605Y-37000000D01*
X36820395Y-37000000D01*
X34688167Y-34867772D01*
X34306765Y-35200232D01*
X33823034Y-36367887D01*
X33822966Y-37631776D01*
X33452000Y-37631776D01*
X33452000Y-34688167D01*
X34867772Y-34688167D01*
X37000000Y-36820395D01*
X39132228Y-34688167D01*
X75867772Y-34688167D01*
X78000000Y-36820395D01*
X80132228Y-34688167D01*
X79799768Y-34306765D01*
X78632113Y-33823034D01*
X77368224Y-33822966D01*
X76200517Y-34306574D01*
X76200232Y-34306765D01*
X75867772Y-34688167D01*
X39132228Y-34688167D01*
X38799768Y-34306765D01*
X37632113Y-33823034D01*
X36368224Y-33822966D01*
X35200517Y-34306574D01*
X35200232Y-34306765D01*
X34867772Y-34688167D01*
X33452000Y-34688167D01*
X33452000Y-33452000D01*
X81873000Y-33452000D01*
X81873000Y-39873000D01*
X81873000Y-39873000D01*
G37*
X81873000Y-39873000D02*
X79365888Y-39873000D01*
X79799483Y-39693426D01*
X79799768Y-39693235D01*
X80132228Y-39311833D01*
X78000000Y-37179605D01*
X75867772Y-39311833D01*
X76200232Y-39693235D01*
X76634158Y-39873000D01*
X38365888Y-39873000D01*
X38799483Y-39693426D01*
X38799768Y-39693235D01*
X39132228Y-39311833D01*
X37000000Y-37179605D01*
X34867772Y-39311833D01*
X35200232Y-39693235D01*
X35634158Y-39873000D01*
X33452000Y-39873000D01*
X33452000Y-37631776D01*
X33822966Y-37631776D01*
X34306574Y-38799483D01*
X34306765Y-38799768D01*
X34688167Y-39132228D01*
X36820395Y-37000000D01*
X37179605Y-37000000D01*
X39311833Y-39132228D01*
X39693235Y-38799768D01*
X40176966Y-37632113D01*
X40176966Y-37631776D01*
X74822966Y-37631776D01*
X75306574Y-38799483D01*
X75306765Y-38799768D01*
X75688167Y-39132228D01*
X77820395Y-37000000D01*
X78179605Y-37000000D01*
X80311833Y-39132228D01*
X80693235Y-38799768D01*
X81176966Y-37632113D01*
X81177034Y-36368224D01*
X80693426Y-35200517D01*
X80693235Y-35200232D01*
X80311833Y-34867772D01*
X78179605Y-37000000D01*
X77820395Y-37000000D01*
X75688167Y-34867772D01*
X75306765Y-35200232D01*
X74823034Y-36367887D01*
X74822966Y-37631776D01*
X40176966Y-37631776D01*
X40177034Y-36368224D01*
X39693426Y-35200517D01*
X39693235Y-35200232D01*
X39311833Y-34867772D01*
X37179605Y-37000000D01*
X36820395Y-37000000D01*
X34688167Y-34867772D01*
X34306765Y-35200232D01*
X33823034Y-36367887D01*
X33822966Y-37631776D01*
X33452000Y-37631776D01*
X33452000Y-34688167D01*
X34867772Y-34688167D01*
X37000000Y-36820395D01*
X39132228Y-34688167D01*
X75867772Y-34688167D01*
X78000000Y-36820395D01*
X80132228Y-34688167D01*
X79799768Y-34306765D01*
X78632113Y-33823034D01*
X77368224Y-33822966D01*
X76200517Y-34306574D01*
X76200232Y-34306765D01*
X75867772Y-34688167D01*
X39132228Y-34688167D01*
X38799768Y-34306765D01*
X37632113Y-33823034D01*
X36368224Y-33822966D01*
X35200517Y-34306574D01*
X35200232Y-34306765D01*
X34867772Y-34688167D01*
X33452000Y-34688167D01*
X33452000Y-33452000D01*
X81873000Y-33452000D01*
X81873000Y-39873000D01*
M02*
