G04 #@! TF.FileFunction,Soldermask,Top*
%FSLAX46Y46*%
G04 Gerber Fmt 4.6, Leading zero omitted, Abs format (unit mm)*
G04 Created by KiCad (PCBNEW 4.0.7-e2-6376~58~ubuntu14.04.1) date Sat Mar 16 06:29:51 2019*
%MOMM*%
%LPD*%
G01*
G04 APERTURE LIST*
%ADD10C,0.100000*%
%ADD11R,2.300000X1.200000*%
%ADD12R,1.200000X2.300000*%
%ADD13R,1.950000X1.000000*%
%ADD14C,6.000000*%
%ADD15R,2.000000X2.000000*%
%ADD16C,2.398980*%
%ADD17R,2.100000X1.800000*%
%ADD18R,1.800000X2.100000*%
%ADD19C,2.000000*%
%ADD20O,2.000000X2.000000*%
%ADD21R,3.700000X2.100000*%
%ADD22C,2.750000*%
%ADD23C,2.200000*%
%ADD24R,2.200000X5.400000*%
%ADD25R,4.360000X5.400000*%
%ADD26R,4.150000X3.100000*%
%ADD27R,3.600000X3.600000*%
%ADD28O,3.600000X3.600000*%
G04 APERTURE END LIST*
D10*
D11*
X97500000Y-43050000D03*
X97500000Y-44950000D03*
X100500000Y-44000000D03*
X94500000Y-44950000D03*
X94500000Y-43050000D03*
X91500000Y-44000000D03*
X68500000Y-44950000D03*
X68500000Y-43050000D03*
X65500000Y-44000000D03*
X71500000Y-43050000D03*
X71500000Y-44950000D03*
X74500000Y-44000000D03*
D12*
X94050000Y-51500000D03*
X95950000Y-51500000D03*
X95000000Y-48500000D03*
X70050000Y-51500000D03*
X71950000Y-51500000D03*
X71000000Y-48500000D03*
D13*
X81300000Y-67095000D03*
X81300000Y-68365000D03*
X81300000Y-69635000D03*
X81300000Y-70905000D03*
X86700000Y-70905000D03*
X86700000Y-69635000D03*
X86700000Y-68365000D03*
X86700000Y-67095000D03*
D14*
X88000000Y-37000000D03*
X37000000Y-37000000D03*
X129000000Y-37000000D03*
X78000000Y-37000000D03*
D15*
X121000000Y-44150000D03*
X121000000Y-41850000D03*
X45000000Y-44150000D03*
X45000000Y-41850000D03*
D16*
X126000000Y-46000000D03*
X126000000Y-56160000D03*
X40000000Y-46000000D03*
X40000000Y-56160000D03*
D17*
X99000000Y-51200000D03*
X99000000Y-48800000D03*
X116000000Y-53200000D03*
X116000000Y-50800000D03*
X93000000Y-73800000D03*
X93000000Y-76200000D03*
X104000000Y-44200000D03*
X104000000Y-41800000D03*
X93000000Y-55800000D03*
X93000000Y-58200000D03*
D18*
X61700000Y-75000000D03*
X59300000Y-75000000D03*
D17*
X90000000Y-71800000D03*
X90000000Y-74200000D03*
X88000000Y-63200000D03*
X88000000Y-60800000D03*
X86000000Y-51800000D03*
X86000000Y-54200000D03*
X85000000Y-63200000D03*
X85000000Y-60800000D03*
D18*
X85200000Y-74000000D03*
X82800000Y-74000000D03*
X85200000Y-76800000D03*
X82800000Y-76800000D03*
D17*
X81000000Y-60800000D03*
X81000000Y-63200000D03*
X67000000Y-51200000D03*
X67000000Y-48800000D03*
X50000000Y-53200000D03*
X50000000Y-50800000D03*
X73000000Y-55800000D03*
X73000000Y-58200000D03*
D15*
X117150000Y-45000000D03*
X114850000Y-45000000D03*
X105000000Y-48850000D03*
X105000000Y-51150000D03*
X103150000Y-55000000D03*
X100850000Y-55000000D03*
D19*
X118000000Y-42000000D03*
D20*
X107840000Y-42000000D03*
D19*
X108000000Y-45000000D03*
D20*
X108000000Y-55160000D03*
D19*
X109000000Y-58000000D03*
D20*
X98840000Y-58000000D03*
D19*
X120000000Y-60000000D03*
D20*
X130160000Y-60000000D03*
D19*
X128000000Y-66000000D03*
D20*
X128000000Y-76160000D03*
D15*
X96000000Y-57150000D03*
X96000000Y-54850000D03*
X89000000Y-55850000D03*
X89000000Y-58150000D03*
D19*
X104000000Y-62000000D03*
D20*
X93840000Y-62000000D03*
D19*
X117000000Y-62000000D03*
D20*
X106840000Y-62000000D03*
D21*
X118750000Y-80600000D03*
X113250000Y-80600000D03*
D22*
X104100000Y-74100000D03*
X99100000Y-74100000D03*
X114100000Y-74100000D03*
X119100000Y-74100000D03*
D19*
X78000000Y-47000000D03*
D20*
X88160000Y-47000000D03*
D17*
X62000000Y-44200000D03*
X62000000Y-41800000D03*
D15*
X77000000Y-55850000D03*
X77000000Y-58150000D03*
X78150000Y-51000000D03*
X75850000Y-51000000D03*
X48850000Y-45000000D03*
X51150000Y-45000000D03*
X61000000Y-48850000D03*
X61000000Y-51150000D03*
X62850000Y-55000000D03*
X65150000Y-55000000D03*
D19*
X48000000Y-42000000D03*
D20*
X58160000Y-42000000D03*
D19*
X58000000Y-45000000D03*
D20*
X58000000Y-55160000D03*
D19*
X57000000Y-58000000D03*
D20*
X67160000Y-58000000D03*
D19*
X46000000Y-60000000D03*
D20*
X35840000Y-60000000D03*
D19*
X38000000Y-66000000D03*
D20*
X38000000Y-76160000D03*
D15*
X82000000Y-51850000D03*
X82000000Y-54150000D03*
D19*
X62000000Y-62000000D03*
D20*
X72160000Y-62000000D03*
D19*
X49000000Y-62000000D03*
D20*
X59160000Y-62000000D03*
D19*
X77000000Y-61000000D03*
D20*
X77000000Y-71160000D03*
D15*
X76200000Y-73850000D03*
X76200000Y-76150000D03*
X79800000Y-78450000D03*
X79800000Y-76150000D03*
X92750000Y-67700000D03*
X90450000Y-67700000D03*
X90150000Y-78000000D03*
X87850000Y-78000000D03*
X92750000Y-65200000D03*
X90450000Y-65200000D03*
X53850000Y-75000000D03*
X56150000Y-75000000D03*
D19*
X108200000Y-80600000D03*
D20*
X98040000Y-80600000D03*
D23*
X69980000Y-78843000D03*
X59820000Y-78843000D03*
D24*
X64900000Y-80350000D03*
D25*
X61280000Y-80350000D03*
X68520000Y-80350000D03*
D23*
X67440000Y-78843000D03*
X62360000Y-78843000D03*
X64900000Y-78843000D03*
D26*
X69275000Y-67500000D03*
X61725000Y-67500000D03*
D27*
X97000000Y-67000000D03*
D28*
X112240000Y-67000000D03*
D14*
X44000000Y-66000000D03*
X122000000Y-66000000D03*
M02*
