G04 #@! TF.FileFunction,Copper,L1,Top,Signal*
%FSLAX46Y46*%
G04 Gerber Fmt 4.6, Leading zero omitted, Abs format (unit mm)*
G04 Created by KiCad (PCBNEW 4.0.7-e2-6376~58~ubuntu14.04.1) date Sat Mar 16 06:29:51 2019*
%MOMM*%
%LPD*%
G01*
G04 APERTURE LIST*
%ADD10C,0.100000*%
%ADD11R,1.900000X0.800000*%
%ADD12R,0.800000X1.900000*%
%ADD13R,1.550000X0.600000*%
%ADD14C,5.600000*%
%ADD15R,1.600000X1.600000*%
%ADD16C,1.998980*%
%ADD17R,1.700000X1.400000*%
%ADD18R,1.400000X1.700000*%
%ADD19C,1.600000*%
%ADD20O,1.600000X1.600000*%
%ADD21R,3.300000X1.700000*%
%ADD22C,2.350000*%
%ADD23C,1.800000*%
%ADD24R,1.800000X5.000000*%
%ADD25R,3.960000X5.000000*%
%ADD26R,3.750000X2.700000*%
%ADD27R,3.200000X3.200000*%
%ADD28O,3.200000X3.200000*%
%ADD29C,0.600000*%
%ADD30C,0.400000*%
%ADD31C,0.254000*%
G04 APERTURE END LIST*
D10*
D11*
X97500000Y-43050000D03*
X97500000Y-44950000D03*
X100500000Y-44000000D03*
X94500000Y-44950000D03*
X94500000Y-43050000D03*
X91500000Y-44000000D03*
X68500000Y-44950000D03*
X68500000Y-43050000D03*
X65500000Y-44000000D03*
X71500000Y-43050000D03*
X71500000Y-44950000D03*
X74500000Y-44000000D03*
D12*
X94050000Y-51500000D03*
X95950000Y-51500000D03*
X95000000Y-48500000D03*
X70050000Y-51500000D03*
X71950000Y-51500000D03*
X71000000Y-48500000D03*
D13*
X81300000Y-67095000D03*
X81300000Y-68365000D03*
X81300000Y-69635000D03*
X81300000Y-70905000D03*
X86700000Y-70905000D03*
X86700000Y-69635000D03*
X86700000Y-68365000D03*
X86700000Y-67095000D03*
D14*
X88000000Y-37000000D03*
X37000000Y-37000000D03*
X129000000Y-37000000D03*
X78000000Y-37000000D03*
D15*
X121000000Y-44150000D03*
X121000000Y-41850000D03*
X45000000Y-44150000D03*
X45000000Y-41850000D03*
D16*
X126000000Y-46000000D03*
X126000000Y-56160000D03*
X40000000Y-46000000D03*
X40000000Y-56160000D03*
D17*
X99000000Y-51200000D03*
X99000000Y-48800000D03*
X116000000Y-53200000D03*
X116000000Y-50800000D03*
X93000000Y-73800000D03*
X93000000Y-76200000D03*
X104000000Y-44200000D03*
X104000000Y-41800000D03*
X93000000Y-55800000D03*
X93000000Y-58200000D03*
D18*
X61700000Y-75000000D03*
X59300000Y-75000000D03*
D17*
X90000000Y-71800000D03*
X90000000Y-74200000D03*
X88000000Y-63200000D03*
X88000000Y-60800000D03*
X86000000Y-51800000D03*
X86000000Y-54200000D03*
X85000000Y-63200000D03*
X85000000Y-60800000D03*
D18*
X85200000Y-74000000D03*
X82800000Y-74000000D03*
X85200000Y-76800000D03*
X82800000Y-76800000D03*
D17*
X81000000Y-60800000D03*
X81000000Y-63200000D03*
X67000000Y-51200000D03*
X67000000Y-48800000D03*
X50000000Y-53200000D03*
X50000000Y-50800000D03*
X73000000Y-55800000D03*
X73000000Y-58200000D03*
D15*
X117150000Y-45000000D03*
X114850000Y-45000000D03*
X105000000Y-48850000D03*
X105000000Y-51150000D03*
X103150000Y-55000000D03*
X100850000Y-55000000D03*
D19*
X118000000Y-42000000D03*
D20*
X107840000Y-42000000D03*
D19*
X108000000Y-45000000D03*
D20*
X108000000Y-55160000D03*
D19*
X109000000Y-58000000D03*
D20*
X98840000Y-58000000D03*
D19*
X120000000Y-60000000D03*
D20*
X130160000Y-60000000D03*
D19*
X128000000Y-66000000D03*
D20*
X128000000Y-76160000D03*
D15*
X96000000Y-57150000D03*
X96000000Y-54850000D03*
X89000000Y-55850000D03*
X89000000Y-58150000D03*
D19*
X104000000Y-62000000D03*
D20*
X93840000Y-62000000D03*
D19*
X117000000Y-62000000D03*
D20*
X106840000Y-62000000D03*
D21*
X118750000Y-80600000D03*
X113250000Y-80600000D03*
D22*
X104100000Y-74100000D03*
X99100000Y-74100000D03*
X114100000Y-74100000D03*
X119100000Y-74100000D03*
D19*
X78000000Y-47000000D03*
D20*
X88160000Y-47000000D03*
D17*
X62000000Y-44200000D03*
X62000000Y-41800000D03*
D15*
X77000000Y-55850000D03*
X77000000Y-58150000D03*
X78150000Y-51000000D03*
X75850000Y-51000000D03*
X48850000Y-45000000D03*
X51150000Y-45000000D03*
X61000000Y-48850000D03*
X61000000Y-51150000D03*
X62850000Y-55000000D03*
X65150000Y-55000000D03*
D19*
X48000000Y-42000000D03*
D20*
X58160000Y-42000000D03*
D19*
X58000000Y-45000000D03*
D20*
X58000000Y-55160000D03*
D19*
X57000000Y-58000000D03*
D20*
X67160000Y-58000000D03*
D19*
X46000000Y-60000000D03*
D20*
X35840000Y-60000000D03*
D19*
X38000000Y-66000000D03*
D20*
X38000000Y-76160000D03*
D15*
X82000000Y-51850000D03*
X82000000Y-54150000D03*
D19*
X62000000Y-62000000D03*
D20*
X72160000Y-62000000D03*
D19*
X49000000Y-62000000D03*
D20*
X59160000Y-62000000D03*
D19*
X77000000Y-61000000D03*
D20*
X77000000Y-71160000D03*
D15*
X76200000Y-73850000D03*
X76200000Y-76150000D03*
X79800000Y-78450000D03*
X79800000Y-76150000D03*
X92750000Y-67700000D03*
X90450000Y-67700000D03*
X90150000Y-78000000D03*
X87850000Y-78000000D03*
X92750000Y-65200000D03*
X90450000Y-65200000D03*
X53850000Y-75000000D03*
X56150000Y-75000000D03*
D19*
X108200000Y-80600000D03*
D20*
X98040000Y-80600000D03*
D23*
X69980000Y-78843000D03*
X59820000Y-78843000D03*
D24*
X64900000Y-80350000D03*
D25*
X61280000Y-80350000D03*
X68520000Y-80350000D03*
D23*
X67440000Y-78843000D03*
X62360000Y-78843000D03*
X64900000Y-78843000D03*
D26*
X69275000Y-67500000D03*
X61725000Y-67500000D03*
D27*
X97000000Y-67000000D03*
D28*
X112240000Y-67000000D03*
D14*
X44000000Y-66000000D03*
X122000000Y-66000000D03*
D29*
X110000000Y-62000000D03*
X98100000Y-61900000D03*
X65400000Y-67400000D03*
X65000000Y-70900000D03*
X71000000Y-70900000D03*
X75200000Y-70200000D03*
X84000000Y-71900000D03*
X98300000Y-71800000D03*
X108600000Y-70900000D03*
X108600000Y-64600000D03*
X103700000Y-66700000D03*
X99900000Y-64300000D03*
X99800000Y-77700000D03*
X93500000Y-79000000D03*
X95300000Y-75500000D03*
X94500000Y-71300000D03*
X94500000Y-67700000D03*
X77100000Y-81900000D03*
X77100000Y-78500000D03*
X83500000Y-81800000D03*
X83500000Y-78800000D03*
X69600000Y-64100000D03*
X74400000Y-62900000D03*
X72500000Y-65800000D03*
X79400000Y-68400000D03*
X80800000Y-72700000D03*
X82000000Y-58000000D03*
X78800000Y-62100000D03*
X75000000Y-57700000D03*
X77300000Y-65800000D03*
X83700000Y-67500000D03*
X86500000Y-64400000D03*
X91000000Y-57600000D03*
X91700000Y-60500000D03*
X89500000Y-54000000D03*
X93200000Y-54000000D03*
X76700000Y-54000000D03*
X69600000Y-57700000D03*
X69100000Y-54300000D03*
X85500000Y-56500000D03*
X83000000Y-45000000D03*
X80000000Y-56000000D03*
X64000000Y-51000000D03*
X102000000Y-51000000D03*
X81500000Y-65500000D03*
X74000000Y-67500000D03*
X83000000Y-61000000D03*
D30*
X94500000Y-43050000D02*
X97500000Y-43050000D01*
X94500000Y-44950000D02*
X97500000Y-44950000D01*
X97000000Y-48500000D02*
X97000000Y-47000000D01*
X97000000Y-47000000D02*
X99000000Y-47000000D01*
X99000000Y-47000000D02*
X99000000Y-44000000D01*
X99000000Y-44000000D02*
X100500000Y-44000000D01*
X95000000Y-48500000D02*
X97000000Y-48500000D01*
X97000000Y-48500000D02*
X98700000Y-48500000D01*
X98700000Y-48500000D02*
X99000000Y-48800000D01*
X99900000Y-64300000D02*
X99900000Y-63700000D01*
X99900000Y-63700000D02*
X98100000Y-61900000D01*
X79400000Y-68400000D02*
X77000000Y-68400000D01*
X71000000Y-70900000D02*
X65000000Y-70900000D01*
X77000000Y-68400000D02*
X75200000Y-70200000D01*
X94500000Y-71300000D02*
X97800000Y-71300000D01*
X97800000Y-71300000D02*
X98300000Y-71800000D01*
X92750000Y-65200000D02*
X94100000Y-65200000D01*
X105800000Y-64600000D02*
X108600000Y-64600000D01*
X103700000Y-66700000D02*
X105800000Y-64600000D01*
X95000000Y-64300000D02*
X99900000Y-64300000D01*
X94100000Y-65200000D02*
X95000000Y-64300000D01*
X92750000Y-67700000D02*
X94500000Y-67700000D01*
X95300000Y-72100000D02*
X95300000Y-75500000D01*
X94500000Y-71300000D02*
X95300000Y-72100000D01*
X79800000Y-78450000D02*
X77150000Y-78450000D01*
X77150000Y-78450000D02*
X77100000Y-78500000D01*
X79800000Y-78450000D02*
X81350000Y-78450000D01*
X81700000Y-78800000D02*
X83500000Y-78800000D01*
X81350000Y-78450000D02*
X81700000Y-78800000D01*
X74400000Y-62900000D02*
X74400000Y-63900000D01*
X74400000Y-63900000D02*
X72500000Y-65800000D01*
X79435000Y-68365000D02*
X79400000Y-68400000D01*
X81300000Y-68365000D02*
X79435000Y-68365000D01*
X77300000Y-65800000D02*
X74400000Y-62900000D01*
X75000000Y-58600000D02*
X74100000Y-59500000D01*
X74100000Y-59500000D02*
X74100000Y-62600000D01*
X74100000Y-62600000D02*
X74400000Y-62900000D01*
X75000000Y-58600000D02*
X75000000Y-57700000D01*
X82835000Y-68365000D02*
X83700000Y-67500000D01*
X81300000Y-68365000D02*
X82835000Y-68365000D01*
X92750000Y-65200000D02*
X92750000Y-63650000D01*
X91700000Y-62600000D02*
X91700000Y-60500000D01*
X92750000Y-63650000D02*
X91700000Y-62600000D01*
X69600000Y-57700000D02*
X69600000Y-54800000D01*
X69600000Y-54800000D02*
X69100000Y-54300000D01*
X89500000Y-54000000D02*
X88000000Y-54000000D01*
X86000000Y-51800000D02*
X86000000Y-50000000D01*
X88500000Y-50000000D02*
X89500000Y-51000000D01*
X89500000Y-51000000D02*
X89500000Y-54000000D01*
X86000000Y-50000000D02*
X88500000Y-50000000D01*
X86500000Y-56500000D02*
X85500000Y-56500000D01*
X87500000Y-55500000D02*
X86500000Y-56500000D01*
X87500000Y-54500000D02*
X87500000Y-55500000D01*
X88000000Y-54000000D02*
X87500000Y-54500000D01*
X83000000Y-44000000D02*
X83000000Y-45000000D01*
X80000000Y-56000000D02*
X80000000Y-50000000D01*
X62000000Y-44200000D02*
X62000000Y-46000000D01*
X64000000Y-48000000D02*
X64000000Y-51000000D01*
X62000000Y-46000000D02*
X64000000Y-48000000D01*
X104000000Y-44200000D02*
X104000000Y-46000000D01*
X102000000Y-48000000D02*
X102000000Y-51000000D01*
X104000000Y-46000000D02*
X102000000Y-48000000D01*
X82000000Y-50000000D02*
X80000000Y-50000000D01*
X80000000Y-50000000D02*
X79150000Y-50000000D01*
X79150000Y-50000000D02*
X78150000Y-51000000D01*
X82000000Y-44000000D02*
X83000000Y-44000000D01*
X83000000Y-44000000D02*
X86000000Y-44000000D01*
X86000000Y-44000000D02*
X91500000Y-44000000D01*
X74500000Y-44000000D02*
X82000000Y-44000000D01*
X82000000Y-50000000D02*
X82000000Y-51850000D01*
X40000000Y-56160000D02*
X40000000Y-62000000D01*
X40000000Y-62000000D02*
X44000000Y-66000000D01*
X126000000Y-56160000D02*
X126000000Y-62000000D01*
X126000000Y-62000000D02*
X122000000Y-66000000D01*
X71500000Y-44950000D02*
X68500000Y-44950000D01*
X71500000Y-43050000D02*
X68500000Y-43050000D01*
X69000000Y-48500000D02*
X69000000Y-47000000D01*
X67000000Y-44000000D02*
X67000000Y-47000000D01*
X67000000Y-47000000D02*
X69000000Y-47000000D01*
X67000000Y-44000000D02*
X65500000Y-44000000D01*
X71000000Y-48500000D02*
X69000000Y-48500000D01*
X69000000Y-48500000D02*
X67300000Y-48500000D01*
X67300000Y-48500000D02*
X67000000Y-48800000D01*
X78000000Y-47000000D02*
X78000000Y-49000000D01*
X74000000Y-51000000D02*
X74000000Y-50000000D01*
X74000000Y-50000000D02*
X75000000Y-49000000D01*
X75000000Y-49000000D02*
X78000000Y-49000000D01*
X95950000Y-50450000D02*
X95950000Y-51500000D01*
X95500000Y-50000000D02*
X95950000Y-50450000D01*
X92000000Y-50000000D02*
X95500000Y-50000000D01*
X91000000Y-49000000D02*
X92000000Y-50000000D01*
X78000000Y-49000000D02*
X78500000Y-49000000D01*
X78500000Y-49000000D02*
X91000000Y-49000000D01*
X71950000Y-51500000D02*
X73500000Y-51500000D01*
X74000000Y-51000000D02*
X75850000Y-51000000D01*
X73500000Y-51500000D02*
X74000000Y-51000000D01*
X95950000Y-51500000D02*
X95950000Y-54800000D01*
X95950000Y-54800000D02*
X96000000Y-54850000D01*
X126000000Y-46000000D02*
X126000000Y-39000000D01*
X104000000Y-41800000D02*
X104000000Y-39000000D01*
X121000000Y-41850000D02*
X121000000Y-38000000D01*
X62000000Y-41800000D02*
X62000000Y-39000000D01*
X40000000Y-46000000D02*
X40000000Y-39000000D01*
X45000000Y-41850000D02*
X45000000Y-39000000D01*
X121000000Y-44150000D02*
X119000000Y-44150000D01*
X117150000Y-45000000D02*
X119000000Y-45000000D01*
X116000000Y-50800000D02*
X116000000Y-50000000D01*
X119000000Y-43000000D02*
X118000000Y-42000000D01*
X119000000Y-47000000D02*
X119000000Y-45000000D01*
X119000000Y-45000000D02*
X119000000Y-44150000D01*
X119000000Y-44150000D02*
X119000000Y-43000000D01*
X116000000Y-50000000D02*
X119000000Y-47000000D01*
X45000000Y-44150000D02*
X47000000Y-44150000D01*
X48850000Y-45000000D02*
X47000000Y-45000000D01*
X50000000Y-50800000D02*
X50000000Y-50000000D01*
X47000000Y-43000000D02*
X48000000Y-42000000D01*
X47000000Y-47000000D02*
X47000000Y-45000000D01*
X47000000Y-45000000D02*
X47000000Y-44150000D01*
X47000000Y-44150000D02*
X47000000Y-43000000D01*
X50000000Y-50000000D02*
X47000000Y-47000000D01*
X91000000Y-55850000D02*
X91000000Y-53000000D01*
X92500000Y-51500000D02*
X94050000Y-51500000D01*
X91000000Y-53000000D02*
X92500000Y-51500000D01*
X89000000Y-55850000D02*
X91000000Y-55850000D01*
X91000000Y-55850000D02*
X92950000Y-55850000D01*
X92950000Y-55850000D02*
X93000000Y-55800000D01*
X75000000Y-55800000D02*
X75000000Y-55000000D01*
X70000000Y-53000000D02*
X70000000Y-51550000D01*
X71000000Y-54000000D02*
X70000000Y-53000000D01*
X74000000Y-54000000D02*
X71000000Y-54000000D01*
X75000000Y-55000000D02*
X74000000Y-54000000D01*
X70000000Y-51550000D02*
X70050000Y-51500000D01*
X73000000Y-55800000D02*
X75000000Y-55800000D01*
X75000000Y-55800000D02*
X76950000Y-55800000D01*
X76950000Y-55800000D02*
X77000000Y-55850000D01*
X86700000Y-69635000D02*
X87835000Y-69635000D01*
X87835000Y-69635000D02*
X90000000Y-71800000D01*
X90000000Y-71800000D02*
X92300000Y-71800000D01*
X92300000Y-71800000D02*
X93000000Y-72500000D01*
X93000000Y-72500000D02*
X93000000Y-73800000D01*
X90000000Y-74200000D02*
X86700000Y-74200000D01*
X86700000Y-70905000D02*
X86700000Y-73100000D01*
X86700000Y-73100000D02*
X86700000Y-74200000D01*
X86700000Y-74200000D02*
X86700000Y-75300000D01*
X85200000Y-76800000D02*
X86700000Y-75300000D01*
X88000000Y-63200000D02*
X88000000Y-64500000D01*
X86700000Y-65800000D02*
X86700000Y-67095000D01*
X88000000Y-64500000D02*
X86700000Y-65800000D01*
X88000000Y-63200000D02*
X89800000Y-63200000D01*
X90500000Y-59650000D02*
X89000000Y-58150000D01*
X90500000Y-62500000D02*
X90500000Y-59650000D01*
X89800000Y-63200000D02*
X90500000Y-62500000D01*
X84000000Y-54150000D02*
X84000000Y-59300000D01*
X85000000Y-59300000D02*
X86500000Y-59300000D01*
X81000000Y-59300000D02*
X84000000Y-59300000D01*
X84000000Y-59300000D02*
X85000000Y-59300000D01*
X78700000Y-59300000D02*
X81000000Y-59300000D01*
X85000000Y-60800000D02*
X85000000Y-59300000D01*
X81000000Y-60800000D02*
X81000000Y-59300000D01*
X78700000Y-59300000D02*
X77000000Y-61000000D01*
X86500000Y-59300000D02*
X88000000Y-60800000D01*
X82000000Y-54150000D02*
X84000000Y-54150000D01*
X84000000Y-54150000D02*
X85950000Y-54150000D01*
X85950000Y-54150000D02*
X86000000Y-54200000D01*
X69275000Y-67500000D02*
X74000000Y-67500000D01*
X82000000Y-65000000D02*
X83000000Y-65000000D01*
X81500000Y-65500000D02*
X82000000Y-65000000D01*
X83000000Y-65000000D02*
X85200000Y-65000000D01*
X83000000Y-61000000D02*
X83000000Y-65000000D01*
X97000000Y-67000000D02*
X97000000Y-69500000D01*
X94500000Y-69500000D02*
X97000000Y-69500000D01*
X97000000Y-69500000D02*
X98500000Y-69500000D01*
X101000000Y-72000000D02*
X101000000Y-74100000D01*
X98500000Y-69500000D02*
X101000000Y-72000000D01*
X104100000Y-74100000D02*
X101000000Y-74100000D01*
X101000000Y-74100000D02*
X99100000Y-74100000D01*
X86700000Y-68365000D02*
X85200000Y-68365000D01*
X85200000Y-74000000D02*
X85200000Y-68365000D01*
X85200000Y-68365000D02*
X85200000Y-65000000D01*
X85200000Y-65000000D02*
X85200000Y-63400000D01*
X85200000Y-63400000D02*
X85000000Y-63200000D01*
X86700000Y-68365000D02*
X88500000Y-68365000D01*
X88500000Y-68000000D02*
X88500000Y-68365000D01*
X88500000Y-68000000D02*
X88500000Y-67700000D01*
X88500000Y-68365000D02*
X88500000Y-69000000D01*
X88500000Y-69000000D02*
X89000000Y-69500000D01*
X89000000Y-69500000D02*
X94500000Y-69500000D01*
X90450000Y-67700000D02*
X88500000Y-67700000D01*
X89300000Y-65200000D02*
X90450000Y-65200000D01*
X88500000Y-66000000D02*
X89300000Y-65200000D01*
X88500000Y-67700000D02*
X88500000Y-66000000D01*
X81300000Y-69635000D02*
X82635000Y-69635000D01*
X82800000Y-69800000D02*
X82800000Y-74000000D01*
X82635000Y-69635000D02*
X82800000Y-69800000D01*
X79800000Y-76150000D02*
X79850000Y-76150000D01*
X79850000Y-76150000D02*
X81000000Y-75000000D01*
X76200000Y-73850000D02*
X76650000Y-73850000D01*
X76650000Y-73850000D02*
X78250000Y-72250000D01*
X81300000Y-70905000D02*
X79595000Y-70905000D01*
X79595000Y-70905000D02*
X78250000Y-72250000D01*
X77000000Y-71160000D02*
X77160000Y-71160000D01*
X77160000Y-71160000D02*
X78250000Y-72250000D01*
X78250000Y-72250000D02*
X81000000Y-75000000D01*
X81000000Y-75000000D02*
X82800000Y-76800000D01*
X81000000Y-63200000D02*
X80800000Y-63200000D01*
X80800000Y-63200000D02*
X78750000Y-65250000D01*
X77000000Y-58150000D02*
X76850000Y-58150000D01*
X76850000Y-58150000D02*
X75000000Y-60000000D01*
X75000000Y-60000000D02*
X75000000Y-61500000D01*
X75000000Y-61500000D02*
X78750000Y-65250000D01*
X78750000Y-65250000D02*
X80595000Y-67095000D01*
X80595000Y-67095000D02*
X81300000Y-67095000D01*
X105000000Y-48850000D02*
X105000000Y-46000000D01*
X107000000Y-44000000D02*
X107840000Y-44000000D01*
X105000000Y-46000000D02*
X107000000Y-44000000D01*
X114850000Y-45000000D02*
X113000000Y-45000000D01*
X112000000Y-44000000D02*
X107840000Y-44000000D01*
X113000000Y-45000000D02*
X112000000Y-44000000D01*
X107840000Y-42000000D02*
X107840000Y-44000000D01*
X107840000Y-44000000D02*
X107840000Y-44840000D01*
X107840000Y-44840000D02*
X108000000Y-45000000D01*
X103150000Y-55000000D02*
X104000000Y-55000000D01*
X104000000Y-55000000D02*
X105000000Y-54000000D01*
X107000000Y-56000000D02*
X107160000Y-56000000D01*
X107160000Y-56000000D02*
X108000000Y-55160000D01*
X105000000Y-51150000D02*
X105000000Y-54000000D01*
X105000000Y-54000000D02*
X107000000Y-56000000D01*
X107000000Y-56000000D02*
X109000000Y-58000000D01*
X100850000Y-55000000D02*
X99000000Y-55000000D01*
X99000000Y-51200000D02*
X99000000Y-55000000D01*
X99000000Y-55000000D02*
X99000000Y-57840000D01*
X99000000Y-57840000D02*
X98840000Y-58000000D01*
X116000000Y-53200000D02*
X116000000Y-56000000D01*
X116000000Y-56000000D02*
X120000000Y-60000000D01*
X93000000Y-58200000D02*
X93000000Y-61160000D01*
X93000000Y-61160000D02*
X93840000Y-62000000D01*
X130160000Y-60000000D02*
X130160000Y-63840000D01*
X130160000Y-63840000D02*
X128000000Y-66000000D01*
X104000000Y-62000000D02*
X106840000Y-62000000D01*
X116900000Y-74100000D02*
X116900000Y-76800000D01*
X118750000Y-78650000D02*
X118750000Y-80600000D01*
X116900000Y-76800000D02*
X118750000Y-78650000D01*
X114100000Y-74100000D02*
X116900000Y-74100000D01*
X116900000Y-74100000D02*
X119100000Y-74100000D01*
X58160000Y-44000000D02*
X59000000Y-44000000D01*
X61000000Y-46000000D02*
X61000000Y-48850000D01*
X59000000Y-44000000D02*
X61000000Y-46000000D01*
X51150000Y-45000000D02*
X53000000Y-45000000D01*
X54000000Y-44000000D02*
X58160000Y-44000000D01*
X53000000Y-45000000D02*
X54000000Y-44000000D01*
X58160000Y-42000000D02*
X58160000Y-44000000D01*
X58160000Y-44000000D02*
X58160000Y-44840000D01*
X58160000Y-44840000D02*
X58000000Y-45000000D01*
X62850000Y-55000000D02*
X62000000Y-55000000D01*
X62000000Y-55000000D02*
X61000000Y-54000000D01*
X59000000Y-56000000D02*
X58840000Y-56000000D01*
X58840000Y-56000000D02*
X58000000Y-55160000D01*
X61000000Y-51150000D02*
X61000000Y-54000000D01*
X61000000Y-54000000D02*
X59000000Y-56000000D01*
X59000000Y-56000000D02*
X57000000Y-58000000D01*
X65150000Y-55000000D02*
X67000000Y-55000000D01*
X67000000Y-51200000D02*
X67000000Y-55000000D01*
X67000000Y-55000000D02*
X67000000Y-57840000D01*
X67000000Y-57840000D02*
X67160000Y-58000000D01*
X46000000Y-60000000D02*
X50000000Y-56000000D01*
X50000000Y-56000000D02*
X50000000Y-53200000D01*
X35840000Y-60000000D02*
X35840000Y-63840000D01*
X35840000Y-63840000D02*
X38000000Y-66000000D01*
X108200000Y-80600000D02*
X113250000Y-80600000D01*
X90150000Y-78000000D02*
X91200000Y-78000000D01*
X91200000Y-78000000D02*
X93000000Y-76200000D01*
X64900000Y-80350000D02*
X64900000Y-75000000D01*
X87850000Y-78000000D02*
X87850000Y-80600000D01*
X61700000Y-75000000D02*
X64900000Y-75000000D01*
X64900000Y-75000000D02*
X70500000Y-75000000D01*
X76100000Y-80600000D02*
X87850000Y-80600000D01*
X87850000Y-80600000D02*
X98040000Y-80600000D01*
X70500000Y-75000000D02*
X76100000Y-80600000D01*
X59300000Y-75000000D02*
X56150000Y-75000000D01*
X73000000Y-58200000D02*
X73000000Y-61160000D01*
X73000000Y-61160000D02*
X72160000Y-62000000D01*
X62000000Y-62000000D02*
X59160000Y-62000000D01*
D31*
G36*
X81873000Y-39873000D02*
X79365888Y-39873000D01*
X79799483Y-39693426D01*
X79799768Y-39693235D01*
X80132228Y-39311833D01*
X78000000Y-37179605D01*
X75867772Y-39311833D01*
X76200232Y-39693235D01*
X76634158Y-39873000D01*
X38365888Y-39873000D01*
X38799483Y-39693426D01*
X38799768Y-39693235D01*
X39132228Y-39311833D01*
X37000000Y-37179605D01*
X34867772Y-39311833D01*
X35200232Y-39693235D01*
X35634158Y-39873000D01*
X33452000Y-39873000D01*
X33452000Y-37631776D01*
X33822966Y-37631776D01*
X34306574Y-38799483D01*
X34306765Y-38799768D01*
X34688167Y-39132228D01*
X36820395Y-37000000D01*
X37179605Y-37000000D01*
X39311833Y-39132228D01*
X39693235Y-38799768D01*
X40176966Y-37632113D01*
X40176966Y-37631776D01*
X74822966Y-37631776D01*
X75306574Y-38799483D01*
X75306765Y-38799768D01*
X75688167Y-39132228D01*
X77820395Y-37000000D01*
X78179605Y-37000000D01*
X80311833Y-39132228D01*
X80693235Y-38799768D01*
X81176966Y-37632113D01*
X81177034Y-36368224D01*
X80693426Y-35200517D01*
X80693235Y-35200232D01*
X80311833Y-34867772D01*
X78179605Y-37000000D01*
X77820395Y-37000000D01*
X75688167Y-34867772D01*
X75306765Y-35200232D01*
X74823034Y-36367887D01*
X74822966Y-37631776D01*
X40176966Y-37631776D01*
X40177034Y-36368224D01*
X39693426Y-35200517D01*
X39693235Y-35200232D01*
X39311833Y-34867772D01*
X37179605Y-37000000D01*
X36820395Y-37000000D01*
X34688167Y-34867772D01*
X34306765Y-35200232D01*
X33823034Y-36367887D01*
X33822966Y-37631776D01*
X33452000Y-37631776D01*
X33452000Y-34688167D01*
X34867772Y-34688167D01*
X37000000Y-36820395D01*
X39132228Y-34688167D01*
X75867772Y-34688167D01*
X78000000Y-36820395D01*
X80132228Y-34688167D01*
X79799768Y-34306765D01*
X78632113Y-33823034D01*
X77368224Y-33822966D01*
X76200517Y-34306574D01*
X76200232Y-34306765D01*
X75867772Y-34688167D01*
X39132228Y-34688167D01*
X38799768Y-34306765D01*
X37632113Y-33823034D01*
X36368224Y-33822966D01*
X35200517Y-34306574D01*
X35200232Y-34306765D01*
X34867772Y-34688167D01*
X33452000Y-34688167D01*
X33452000Y-33452000D01*
X81873000Y-33452000D01*
X81873000Y-39873000D01*
X81873000Y-39873000D01*
G37*
X81873000Y-39873000D02*
X79365888Y-39873000D01*
X79799483Y-39693426D01*
X79799768Y-39693235D01*
X80132228Y-39311833D01*
X78000000Y-37179605D01*
X75867772Y-39311833D01*
X76200232Y-39693235D01*
X76634158Y-39873000D01*
X38365888Y-39873000D01*
X38799483Y-39693426D01*
X38799768Y-39693235D01*
X39132228Y-39311833D01*
X37000000Y-37179605D01*
X34867772Y-39311833D01*
X35200232Y-39693235D01*
X35634158Y-39873000D01*
X33452000Y-39873000D01*
X33452000Y-37631776D01*
X33822966Y-37631776D01*
X34306574Y-38799483D01*
X34306765Y-38799768D01*
X34688167Y-39132228D01*
X36820395Y-37000000D01*
X37179605Y-37000000D01*
X39311833Y-39132228D01*
X39693235Y-38799768D01*
X40176966Y-37632113D01*
X40176966Y-37631776D01*
X74822966Y-37631776D01*
X75306574Y-38799483D01*
X75306765Y-38799768D01*
X75688167Y-39132228D01*
X77820395Y-37000000D01*
X78179605Y-37000000D01*
X80311833Y-39132228D01*
X80693235Y-38799768D01*
X81176966Y-37632113D01*
X81177034Y-36368224D01*
X80693426Y-35200517D01*
X80693235Y-35200232D01*
X80311833Y-34867772D01*
X78179605Y-37000000D01*
X77820395Y-37000000D01*
X75688167Y-34867772D01*
X75306765Y-35200232D01*
X74823034Y-36367887D01*
X74822966Y-37631776D01*
X40176966Y-37631776D01*
X40177034Y-36368224D01*
X39693426Y-35200517D01*
X39693235Y-35200232D01*
X39311833Y-34867772D01*
X37179605Y-37000000D01*
X36820395Y-37000000D01*
X34688167Y-34867772D01*
X34306765Y-35200232D01*
X33823034Y-36367887D01*
X33822966Y-37631776D01*
X33452000Y-37631776D01*
X33452000Y-34688167D01*
X34867772Y-34688167D01*
X37000000Y-36820395D01*
X39132228Y-34688167D01*
X75867772Y-34688167D01*
X78000000Y-36820395D01*
X80132228Y-34688167D01*
X79799768Y-34306765D01*
X78632113Y-33823034D01*
X77368224Y-33822966D01*
X76200517Y-34306574D01*
X76200232Y-34306765D01*
X75867772Y-34688167D01*
X39132228Y-34688167D01*
X38799768Y-34306765D01*
X37632113Y-33823034D01*
X36368224Y-33822966D01*
X35200517Y-34306574D01*
X35200232Y-34306765D01*
X34867772Y-34688167D01*
X33452000Y-34688167D01*
X33452000Y-33452000D01*
X81873000Y-33452000D01*
X81873000Y-39873000D01*
G36*
X132548000Y-39873000D02*
X130365888Y-39873000D01*
X130799483Y-39693426D01*
X130799768Y-39693235D01*
X131132228Y-39311833D01*
X129000000Y-37179605D01*
X126867772Y-39311833D01*
X127200232Y-39693235D01*
X127634158Y-39873000D01*
X89365888Y-39873000D01*
X89799483Y-39693426D01*
X89799768Y-39693235D01*
X90132228Y-39311833D01*
X88000000Y-37179605D01*
X85867772Y-39311833D01*
X86200232Y-39693235D01*
X86634158Y-39873000D01*
X84127000Y-39873000D01*
X84127000Y-37631776D01*
X84822966Y-37631776D01*
X85306574Y-38799483D01*
X85306765Y-38799768D01*
X85688167Y-39132228D01*
X87820395Y-37000000D01*
X88179605Y-37000000D01*
X90311833Y-39132228D01*
X90693235Y-38799768D01*
X91176966Y-37632113D01*
X91176966Y-37631776D01*
X125822966Y-37631776D01*
X126306574Y-38799483D01*
X126306765Y-38799768D01*
X126688167Y-39132228D01*
X128820395Y-37000000D01*
X129179605Y-37000000D01*
X131311833Y-39132228D01*
X131693235Y-38799768D01*
X132176966Y-37632113D01*
X132177034Y-36368224D01*
X131693426Y-35200517D01*
X131693235Y-35200232D01*
X131311833Y-34867772D01*
X129179605Y-37000000D01*
X128820395Y-37000000D01*
X126688167Y-34867772D01*
X126306765Y-35200232D01*
X125823034Y-36367887D01*
X125822966Y-37631776D01*
X91176966Y-37631776D01*
X91177034Y-36368224D01*
X90693426Y-35200517D01*
X90693235Y-35200232D01*
X90311833Y-34867772D01*
X88179605Y-37000000D01*
X87820395Y-37000000D01*
X85688167Y-34867772D01*
X85306765Y-35200232D01*
X84823034Y-36367887D01*
X84822966Y-37631776D01*
X84127000Y-37631776D01*
X84127000Y-34688167D01*
X85867772Y-34688167D01*
X88000000Y-36820395D01*
X90132228Y-34688167D01*
X126867772Y-34688167D01*
X129000000Y-36820395D01*
X131132228Y-34688167D01*
X130799768Y-34306765D01*
X129632113Y-33823034D01*
X128368224Y-33822966D01*
X127200517Y-34306574D01*
X127200232Y-34306765D01*
X126867772Y-34688167D01*
X90132228Y-34688167D01*
X89799768Y-34306765D01*
X88632113Y-33823034D01*
X87368224Y-33822966D01*
X86200517Y-34306574D01*
X86200232Y-34306765D01*
X85867772Y-34688167D01*
X84127000Y-34688167D01*
X84127000Y-33452000D01*
X132548000Y-33452000D01*
X132548000Y-39873000D01*
X132548000Y-39873000D01*
G37*
X132548000Y-39873000D02*
X130365888Y-39873000D01*
X130799483Y-39693426D01*
X130799768Y-39693235D01*
X131132228Y-39311833D01*
X129000000Y-37179605D01*
X126867772Y-39311833D01*
X127200232Y-39693235D01*
X127634158Y-39873000D01*
X89365888Y-39873000D01*
X89799483Y-39693426D01*
X89799768Y-39693235D01*
X90132228Y-39311833D01*
X88000000Y-37179605D01*
X85867772Y-39311833D01*
X86200232Y-39693235D01*
X86634158Y-39873000D01*
X84127000Y-39873000D01*
X84127000Y-37631776D01*
X84822966Y-37631776D01*
X85306574Y-38799483D01*
X85306765Y-38799768D01*
X85688167Y-39132228D01*
X87820395Y-37000000D01*
X88179605Y-37000000D01*
X90311833Y-39132228D01*
X90693235Y-38799768D01*
X91176966Y-37632113D01*
X91176966Y-37631776D01*
X125822966Y-37631776D01*
X126306574Y-38799483D01*
X126306765Y-38799768D01*
X126688167Y-39132228D01*
X128820395Y-37000000D01*
X129179605Y-37000000D01*
X131311833Y-39132228D01*
X131693235Y-38799768D01*
X132176966Y-37632113D01*
X132177034Y-36368224D01*
X131693426Y-35200517D01*
X131693235Y-35200232D01*
X131311833Y-34867772D01*
X129179605Y-37000000D01*
X128820395Y-37000000D01*
X126688167Y-34867772D01*
X126306765Y-35200232D01*
X125823034Y-36367887D01*
X125822966Y-37631776D01*
X91176966Y-37631776D01*
X91177034Y-36368224D01*
X90693426Y-35200517D01*
X90693235Y-35200232D01*
X90311833Y-34867772D01*
X88179605Y-37000000D01*
X87820395Y-37000000D01*
X85688167Y-34867772D01*
X85306765Y-35200232D01*
X84823034Y-36367887D01*
X84822966Y-37631776D01*
X84127000Y-37631776D01*
X84127000Y-34688167D01*
X85867772Y-34688167D01*
X88000000Y-36820395D01*
X90132228Y-34688167D01*
X126867772Y-34688167D01*
X129000000Y-36820395D01*
X131132228Y-34688167D01*
X130799768Y-34306765D01*
X129632113Y-33823034D01*
X128368224Y-33822966D01*
X127200517Y-34306574D01*
X127200232Y-34306765D01*
X126867772Y-34688167D01*
X90132228Y-34688167D01*
X89799768Y-34306765D01*
X88632113Y-33823034D01*
X87368224Y-33822966D01*
X86200517Y-34306574D01*
X86200232Y-34306765D01*
X85867772Y-34688167D01*
X84127000Y-34688167D01*
X84127000Y-33452000D01*
X132548000Y-33452000D01*
X132548000Y-39873000D01*
G36*
X69466922Y-53220808D02*
X69591999Y-53408001D01*
X70591997Y-54407998D01*
X70591999Y-54408001D01*
X70779192Y-54533078D01*
X71000000Y-54577001D01*
X71000005Y-54577000D01*
X73760998Y-54577000D01*
X73912211Y-54728213D01*
X73850000Y-54715615D01*
X72150000Y-54715615D01*
X72010292Y-54741903D01*
X71881980Y-54824470D01*
X71795899Y-54950453D01*
X71765615Y-55100000D01*
X71765615Y-56500000D01*
X71791903Y-56639708D01*
X71874470Y-56768020D01*
X72000453Y-56854101D01*
X72150000Y-56884385D01*
X73850000Y-56884385D01*
X73989708Y-56858097D01*
X74118020Y-56775530D01*
X74204101Y-56649547D01*
X74234385Y-56500000D01*
X74234385Y-56377000D01*
X75815615Y-56377000D01*
X75815615Y-56650000D01*
X75841903Y-56789708D01*
X75924470Y-56918020D01*
X76046031Y-57001080D01*
X75931980Y-57074470D01*
X75845899Y-57200453D01*
X75815615Y-57350000D01*
X75815615Y-58368383D01*
X74591999Y-59591999D01*
X74466922Y-59779192D01*
X74422999Y-60000000D01*
X74423000Y-60000005D01*
X74423000Y-61499995D01*
X74422999Y-61500000D01*
X74466922Y-61720808D01*
X74591999Y-61908001D01*
X80154896Y-67470898D01*
X80166903Y-67534708D01*
X80249470Y-67663020D01*
X80347919Y-67730288D01*
X80311447Y-67745395D01*
X80205395Y-67851447D01*
X80148000Y-67990010D01*
X80148000Y-68143750D01*
X80242250Y-68238000D01*
X81173000Y-68238000D01*
X81173000Y-68218000D01*
X81427000Y-68218000D01*
X81427000Y-68238000D01*
X82357750Y-68238000D01*
X82452000Y-68143750D01*
X82452000Y-67990010D01*
X82394605Y-67851447D01*
X82288553Y-67745395D01*
X82250909Y-67729802D01*
X82343020Y-67670530D01*
X82429101Y-67544547D01*
X82459385Y-67395000D01*
X82459385Y-66795000D01*
X82433097Y-66655292D01*
X82350530Y-66526980D01*
X82224547Y-66440899D01*
X82075000Y-66410615D01*
X80726617Y-66410615D01*
X79566002Y-65250000D01*
X80531616Y-64284385D01*
X81850000Y-64284385D01*
X81989708Y-64258097D01*
X82118020Y-64175530D01*
X82204101Y-64049547D01*
X82234385Y-63900000D01*
X82234385Y-62500000D01*
X82208097Y-62360292D01*
X82125530Y-62231980D01*
X81999547Y-62145899D01*
X81850000Y-62115615D01*
X80150000Y-62115615D01*
X80010292Y-62141903D01*
X79881980Y-62224470D01*
X79795899Y-62350453D01*
X79765615Y-62500000D01*
X79765615Y-63418384D01*
X78750000Y-64433998D01*
X75577000Y-61260998D01*
X75577000Y-60239002D01*
X76481617Y-59334385D01*
X77800000Y-59334385D01*
X77861112Y-59322886D01*
X77323928Y-59860070D01*
X77235147Y-59823205D01*
X76766907Y-59822796D01*
X76334154Y-60001606D01*
X76002770Y-60332412D01*
X75823205Y-60764853D01*
X75822796Y-61233093D01*
X76001606Y-61665846D01*
X76332412Y-61997230D01*
X76764853Y-62176795D01*
X77233093Y-62177204D01*
X77665846Y-61998394D01*
X77997230Y-61667588D01*
X78176795Y-61235147D01*
X78177204Y-60766907D01*
X78139747Y-60676255D01*
X78939002Y-59877000D01*
X79846088Y-59877000D01*
X79795899Y-59950453D01*
X79765615Y-60100000D01*
X79765615Y-61500000D01*
X79791903Y-61639708D01*
X79874470Y-61768020D01*
X80000453Y-61854101D01*
X80150000Y-61884385D01*
X81850000Y-61884385D01*
X81989708Y-61858097D01*
X82118020Y-61775530D01*
X82204101Y-61649547D01*
X82234385Y-61500000D01*
X82234385Y-60100000D01*
X82208097Y-59960292D01*
X82154500Y-59877000D01*
X83846088Y-59877000D01*
X83795899Y-59950453D01*
X83765615Y-60100000D01*
X83765615Y-61500000D01*
X83791903Y-61639708D01*
X83874470Y-61768020D01*
X84000453Y-61854101D01*
X84150000Y-61884385D01*
X85850000Y-61884385D01*
X85989708Y-61858097D01*
X86118020Y-61775530D01*
X86204101Y-61649547D01*
X86234385Y-61500000D01*
X86234385Y-60100000D01*
X86208097Y-59960292D01*
X86154500Y-59877000D01*
X86260998Y-59877000D01*
X86765615Y-60381617D01*
X86765615Y-61500000D01*
X86791903Y-61639708D01*
X86874470Y-61768020D01*
X87000453Y-61854101D01*
X87150000Y-61884385D01*
X88850000Y-61884385D01*
X88989708Y-61858097D01*
X89118020Y-61775530D01*
X89204101Y-61649547D01*
X89234385Y-61500000D01*
X89234385Y-60100000D01*
X89208097Y-59960292D01*
X89125530Y-59831980D01*
X88999547Y-59745899D01*
X88850000Y-59715615D01*
X87731616Y-59715615D01*
X86908001Y-58891999D01*
X86720808Y-58766922D01*
X86500000Y-58722999D01*
X86499995Y-58723000D01*
X84577000Y-58723000D01*
X84577000Y-54727000D01*
X84765615Y-54727000D01*
X84765615Y-54900000D01*
X84791903Y-55039708D01*
X84874470Y-55168020D01*
X85000453Y-55254101D01*
X85150000Y-55284385D01*
X86850000Y-55284385D01*
X86989708Y-55258097D01*
X87118020Y-55175530D01*
X87204101Y-55049547D01*
X87234385Y-54900000D01*
X87234385Y-53500000D01*
X87208097Y-53360292D01*
X87125530Y-53231980D01*
X86999547Y-53145899D01*
X86906221Y-53127000D01*
X90423000Y-53127000D01*
X90423000Y-55273000D01*
X90184385Y-55273000D01*
X90184385Y-55050000D01*
X90158097Y-54910292D01*
X90075530Y-54781980D01*
X89949547Y-54695899D01*
X89800000Y-54665615D01*
X88200000Y-54665615D01*
X88060292Y-54691903D01*
X87931980Y-54774470D01*
X87845899Y-54900453D01*
X87815615Y-55050000D01*
X87815615Y-56650000D01*
X87841903Y-56789708D01*
X87924470Y-56918020D01*
X88046031Y-57001080D01*
X87931980Y-57074470D01*
X87845899Y-57200453D01*
X87815615Y-57350000D01*
X87815615Y-58950000D01*
X87841903Y-59089708D01*
X87924470Y-59218020D01*
X88050453Y-59304101D01*
X88200000Y-59334385D01*
X89368384Y-59334385D01*
X89923000Y-59889001D01*
X89923000Y-62260999D01*
X89560998Y-62623000D01*
X89234385Y-62623000D01*
X89234385Y-62500000D01*
X89208097Y-62360292D01*
X89125530Y-62231980D01*
X88999547Y-62145899D01*
X88850000Y-62115615D01*
X87150000Y-62115615D01*
X87010292Y-62141903D01*
X86881980Y-62224470D01*
X86795899Y-62350453D01*
X86765615Y-62500000D01*
X86765615Y-63900000D01*
X86791903Y-64039708D01*
X86874470Y-64168020D01*
X87000453Y-64254101D01*
X87150000Y-64284385D01*
X87399614Y-64284385D01*
X86291999Y-65391999D01*
X86166922Y-65579192D01*
X86122999Y-65800000D01*
X86123000Y-65800005D01*
X86123000Y-66410615D01*
X85925000Y-66410615D01*
X85785292Y-66436903D01*
X85777000Y-66442239D01*
X85777000Y-64284385D01*
X85850000Y-64284385D01*
X85989708Y-64258097D01*
X86118020Y-64175530D01*
X86204101Y-64049547D01*
X86234385Y-63900000D01*
X86234385Y-62500000D01*
X86208097Y-62360292D01*
X86125530Y-62231980D01*
X85999547Y-62145899D01*
X85850000Y-62115615D01*
X84150000Y-62115615D01*
X84010292Y-62141903D01*
X83881980Y-62224470D01*
X83795899Y-62350453D01*
X83765615Y-62500000D01*
X83765615Y-63900000D01*
X83791903Y-64039708D01*
X83874470Y-64168020D01*
X84000453Y-64254101D01*
X84150000Y-64284385D01*
X84623000Y-64284385D01*
X84623000Y-64423000D01*
X83577000Y-64423000D01*
X83577000Y-61375797D01*
X83676882Y-61135254D01*
X83677117Y-60865927D01*
X83574267Y-60617011D01*
X83383990Y-60426402D01*
X83135254Y-60323118D01*
X82865927Y-60322883D01*
X82617011Y-60425733D01*
X82426402Y-60616010D01*
X82323118Y-60864746D01*
X82322883Y-61134073D01*
X82423000Y-61376375D01*
X82423000Y-64423000D01*
X82000005Y-64423000D01*
X82000000Y-64422999D01*
X81779192Y-64466922D01*
X81591999Y-64591999D01*
X81591997Y-64592002D01*
X81357728Y-64826271D01*
X81117011Y-64925733D01*
X80926402Y-65116010D01*
X80823118Y-65364746D01*
X80822883Y-65634073D01*
X80925733Y-65882989D01*
X81116010Y-66073598D01*
X81364746Y-66176882D01*
X81634073Y-66177117D01*
X81882989Y-66074267D01*
X82073598Y-65883990D01*
X82174137Y-65641864D01*
X82239001Y-65577000D01*
X84623000Y-65577000D01*
X84623000Y-72765615D01*
X84500000Y-72765615D01*
X84360292Y-72791903D01*
X84231980Y-72874470D01*
X84145899Y-73000453D01*
X84115615Y-73150000D01*
X84115615Y-74850000D01*
X84141903Y-74989708D01*
X84224470Y-75118020D01*
X84350453Y-75204101D01*
X84500000Y-75234385D01*
X85900000Y-75234385D01*
X85961113Y-75222886D01*
X85618384Y-75565615D01*
X84500000Y-75565615D01*
X84360292Y-75591903D01*
X84231980Y-75674470D01*
X84145899Y-75800453D01*
X84115615Y-75950000D01*
X84115615Y-77650000D01*
X84141903Y-77789708D01*
X84224470Y-77918020D01*
X84350453Y-78004101D01*
X84500000Y-78034385D01*
X85900000Y-78034385D01*
X86039708Y-78008097D01*
X86168020Y-77925530D01*
X86254101Y-77799547D01*
X86284385Y-77650000D01*
X86284385Y-76531617D01*
X87107998Y-75708003D01*
X87108001Y-75708001D01*
X87233078Y-75520808D01*
X87277000Y-75300000D01*
X87277000Y-74777000D01*
X88765615Y-74777000D01*
X88765615Y-74900000D01*
X88791903Y-75039708D01*
X88874470Y-75168020D01*
X89000453Y-75254101D01*
X89150000Y-75284385D01*
X90850000Y-75284385D01*
X90989708Y-75258097D01*
X91118020Y-75175530D01*
X91204101Y-75049547D01*
X91234385Y-74900000D01*
X91234385Y-73500000D01*
X91208097Y-73360292D01*
X91125530Y-73231980D01*
X90999547Y-73145899D01*
X90850000Y-73115615D01*
X89150000Y-73115615D01*
X89010292Y-73141903D01*
X88881980Y-73224470D01*
X88795899Y-73350453D01*
X88765615Y-73500000D01*
X88765615Y-73623000D01*
X87277000Y-73623000D01*
X87277000Y-71589385D01*
X87475000Y-71589385D01*
X87614708Y-71563097D01*
X87743020Y-71480530D01*
X87829101Y-71354547D01*
X87859385Y-71205000D01*
X87859385Y-70605000D01*
X87833097Y-70465292D01*
X87803869Y-70419871D01*
X88765615Y-71381616D01*
X88765615Y-72500000D01*
X88791903Y-72639708D01*
X88874470Y-72768020D01*
X89000453Y-72854101D01*
X89150000Y-72884385D01*
X90850000Y-72884385D01*
X90989708Y-72858097D01*
X91118020Y-72775530D01*
X91204101Y-72649547D01*
X91234385Y-72500000D01*
X91234385Y-72377000D01*
X92060998Y-72377000D01*
X92399614Y-72715615D01*
X92150000Y-72715615D01*
X92010292Y-72741903D01*
X91881980Y-72824470D01*
X91795899Y-72950453D01*
X91765615Y-73100000D01*
X91765615Y-74500000D01*
X91791903Y-74639708D01*
X91874470Y-74768020D01*
X92000453Y-74854101D01*
X92150000Y-74884385D01*
X93850000Y-74884385D01*
X93989708Y-74858097D01*
X94118020Y-74775530D01*
X94204101Y-74649547D01*
X94234385Y-74500000D01*
X94234385Y-73100000D01*
X94208097Y-72960292D01*
X94125530Y-72831980D01*
X93999547Y-72745899D01*
X93850000Y-72715615D01*
X93577000Y-72715615D01*
X93577000Y-72500000D01*
X93558700Y-72408001D01*
X93533078Y-72279191D01*
X93482979Y-72204213D01*
X93408001Y-72091999D01*
X93407998Y-72091997D01*
X92708001Y-71391999D01*
X92520808Y-71266922D01*
X92300000Y-71222999D01*
X92299995Y-71223000D01*
X91234385Y-71223000D01*
X91234385Y-71100000D01*
X91208097Y-70960292D01*
X91125530Y-70831980D01*
X90999547Y-70745899D01*
X90850000Y-70715615D01*
X89731616Y-70715615D01*
X89093002Y-70077000D01*
X98260998Y-70077000D01*
X100423000Y-72239002D01*
X100423000Y-73237771D01*
X100416488Y-73222011D01*
X99980285Y-72785046D01*
X99410066Y-72548270D01*
X98792643Y-72547732D01*
X98222011Y-72783512D01*
X97785046Y-73219715D01*
X97548270Y-73789934D01*
X97547732Y-74407357D01*
X97783512Y-74977989D01*
X98219715Y-75414954D01*
X98789934Y-75651730D01*
X99407357Y-75652268D01*
X99977989Y-75416488D01*
X100414954Y-74980285D01*
X100540889Y-74677000D01*
X102659146Y-74677000D01*
X102783512Y-74977989D01*
X103219715Y-75414954D01*
X103789934Y-75651730D01*
X104407357Y-75652268D01*
X104977989Y-75416488D01*
X105414954Y-74980285D01*
X105651730Y-74410066D01*
X105651732Y-74407357D01*
X112547732Y-74407357D01*
X112783512Y-74977989D01*
X113219715Y-75414954D01*
X113789934Y-75651730D01*
X114407357Y-75652268D01*
X114977989Y-75416488D01*
X115414954Y-74980285D01*
X115540889Y-74677000D01*
X116323000Y-74677000D01*
X116323000Y-76799995D01*
X116322999Y-76800000D01*
X116366922Y-77020808D01*
X116491999Y-77208001D01*
X118173000Y-78889002D01*
X118173000Y-79365615D01*
X117100000Y-79365615D01*
X116960292Y-79391903D01*
X116831980Y-79474470D01*
X116745899Y-79600453D01*
X116715615Y-79750000D01*
X116715615Y-81450000D01*
X116741903Y-81589708D01*
X116824470Y-81718020D01*
X116950453Y-81804101D01*
X117100000Y-81834385D01*
X120400000Y-81834385D01*
X120539708Y-81808097D01*
X120668020Y-81725530D01*
X120754101Y-81599547D01*
X120784385Y-81450000D01*
X120784385Y-79750000D01*
X120758097Y-79610292D01*
X120675530Y-79481980D01*
X120549547Y-79395899D01*
X120400000Y-79365615D01*
X119327000Y-79365615D01*
X119327000Y-78650000D01*
X119283078Y-78429192D01*
X119158001Y-78241999D01*
X117477000Y-76560998D01*
X117477000Y-76468487D01*
X126864134Y-76468487D01*
X127068650Y-76879682D01*
X127414955Y-77181312D01*
X127691515Y-77295855D01*
X127873000Y-77235276D01*
X127873000Y-76287000D01*
X128127000Y-76287000D01*
X128127000Y-77235276D01*
X128308485Y-77295855D01*
X128585045Y-77181312D01*
X128931350Y-76879682D01*
X129135866Y-76468487D01*
X129075890Y-76287000D01*
X128127000Y-76287000D01*
X127873000Y-76287000D01*
X126924110Y-76287000D01*
X126864134Y-76468487D01*
X117477000Y-76468487D01*
X117477000Y-75851513D01*
X126864134Y-75851513D01*
X126924110Y-76033000D01*
X127873000Y-76033000D01*
X127873000Y-75084724D01*
X128127000Y-75084724D01*
X128127000Y-76033000D01*
X129075890Y-76033000D01*
X129135866Y-75851513D01*
X128931350Y-75440318D01*
X128585045Y-75138688D01*
X128308485Y-75024145D01*
X128127000Y-75084724D01*
X127873000Y-75084724D01*
X127691515Y-75024145D01*
X127414955Y-75138688D01*
X127068650Y-75440318D01*
X126864134Y-75851513D01*
X117477000Y-75851513D01*
X117477000Y-74677000D01*
X117659146Y-74677000D01*
X117783512Y-74977989D01*
X118219715Y-75414954D01*
X118789934Y-75651730D01*
X119407357Y-75652268D01*
X119977989Y-75416488D01*
X120414954Y-74980285D01*
X120651730Y-74410066D01*
X120652268Y-73792643D01*
X120416488Y-73222011D01*
X119980285Y-72785046D01*
X119410066Y-72548270D01*
X118792643Y-72547732D01*
X118222011Y-72783512D01*
X117785046Y-73219715D01*
X117659111Y-73523000D01*
X115540854Y-73523000D01*
X115416488Y-73222011D01*
X114980285Y-72785046D01*
X114410066Y-72548270D01*
X113792643Y-72547732D01*
X113222011Y-72783512D01*
X112785046Y-73219715D01*
X112548270Y-73789934D01*
X112547732Y-74407357D01*
X105651732Y-74407357D01*
X105652268Y-73792643D01*
X105416488Y-73222011D01*
X104980285Y-72785046D01*
X104410066Y-72548270D01*
X103792643Y-72547732D01*
X103222011Y-72783512D01*
X102785046Y-73219715D01*
X102659111Y-73523000D01*
X101577000Y-73523000D01*
X101577000Y-72000005D01*
X101577001Y-72000000D01*
X101533078Y-71779192D01*
X101408001Y-71591999D01*
X98908001Y-69091999D01*
X98720808Y-68966922D01*
X98707197Y-68964214D01*
X98739708Y-68958097D01*
X98868020Y-68875530D01*
X98954101Y-68749547D01*
X98984385Y-68600000D01*
X98984385Y-67434069D01*
X110311240Y-67434069D01*
X110569222Y-68056910D01*
X111100864Y-68615837D01*
X111805930Y-68928767D01*
X112113000Y-68878674D01*
X112113000Y-67127000D01*
X112367000Y-67127000D01*
X112367000Y-68878674D01*
X112674070Y-68928767D01*
X113379136Y-68615837D01*
X113668299Y-68311833D01*
X119867772Y-68311833D01*
X120200232Y-68693235D01*
X121367887Y-69176966D01*
X122631776Y-69177034D01*
X123799483Y-68693426D01*
X123799768Y-68693235D01*
X124132228Y-68311833D01*
X122000000Y-66179605D01*
X119867772Y-68311833D01*
X113668299Y-68311833D01*
X113910778Y-68056910D01*
X114168760Y-67434069D01*
X114118462Y-67127000D01*
X112367000Y-67127000D01*
X112113000Y-67127000D01*
X110361538Y-67127000D01*
X110311240Y-67434069D01*
X98984385Y-67434069D01*
X98984385Y-66565931D01*
X110311240Y-66565931D01*
X110361538Y-66873000D01*
X112113000Y-66873000D01*
X112113000Y-65121326D01*
X112367000Y-65121326D01*
X112367000Y-66873000D01*
X114118462Y-66873000D01*
X114157974Y-66631776D01*
X118822966Y-66631776D01*
X119306574Y-67799483D01*
X119306765Y-67799768D01*
X119688167Y-68132228D01*
X121820395Y-66000000D01*
X122179605Y-66000000D01*
X124311833Y-68132228D01*
X124693235Y-67799768D01*
X125176966Y-66632113D01*
X125177034Y-65368224D01*
X124693426Y-64200517D01*
X124693235Y-64200232D01*
X124311833Y-63867772D01*
X122179605Y-66000000D01*
X121820395Y-66000000D01*
X119688167Y-63867772D01*
X119306765Y-64200232D01*
X118823034Y-65367887D01*
X118822966Y-66631776D01*
X114157974Y-66631776D01*
X114168760Y-66565931D01*
X113910778Y-65943090D01*
X113379136Y-65384163D01*
X112674070Y-65071233D01*
X112367000Y-65121326D01*
X112113000Y-65121326D01*
X111805930Y-65071233D01*
X111100864Y-65384163D01*
X110569222Y-65943090D01*
X110311240Y-66565931D01*
X98984385Y-66565931D01*
X98984385Y-65400000D01*
X98958097Y-65260292D01*
X98875530Y-65131980D01*
X98749547Y-65045899D01*
X98600000Y-65015615D01*
X95400000Y-65015615D01*
X95260292Y-65041903D01*
X95131980Y-65124470D01*
X95045899Y-65250453D01*
X95015615Y-65400000D01*
X95015615Y-68600000D01*
X95041903Y-68739708D01*
X95124470Y-68868020D01*
X95204935Y-68923000D01*
X89239001Y-68923000D01*
X89077000Y-68760998D01*
X89077000Y-68277000D01*
X89265615Y-68277000D01*
X89265615Y-68500000D01*
X89291903Y-68639708D01*
X89374470Y-68768020D01*
X89500453Y-68854101D01*
X89650000Y-68884385D01*
X91250000Y-68884385D01*
X91389708Y-68858097D01*
X91518020Y-68775530D01*
X91603965Y-68649746D01*
X91630395Y-68713553D01*
X91736447Y-68819605D01*
X91875010Y-68877000D01*
X92528750Y-68877000D01*
X92623000Y-68782750D01*
X92623000Y-67827000D01*
X92877000Y-67827000D01*
X92877000Y-68782750D01*
X92971250Y-68877000D01*
X93624990Y-68877000D01*
X93763553Y-68819605D01*
X93869605Y-68713553D01*
X93927000Y-68574990D01*
X93927000Y-67921250D01*
X93832750Y-67827000D01*
X92877000Y-67827000D01*
X92623000Y-67827000D01*
X92603000Y-67827000D01*
X92603000Y-67573000D01*
X92623000Y-67573000D01*
X92623000Y-66617250D01*
X92877000Y-66617250D01*
X92877000Y-67573000D01*
X93832750Y-67573000D01*
X93927000Y-67478750D01*
X93927000Y-66825010D01*
X93869605Y-66686447D01*
X93763553Y-66580395D01*
X93624990Y-66523000D01*
X92971250Y-66523000D01*
X92877000Y-66617250D01*
X92623000Y-66617250D01*
X92528750Y-66523000D01*
X91875010Y-66523000D01*
X91736447Y-66580395D01*
X91630395Y-66686447D01*
X91603054Y-66752454D01*
X91525530Y-66631980D01*
X91399547Y-66545899D01*
X91250000Y-66515615D01*
X89650000Y-66515615D01*
X89510292Y-66541903D01*
X89381980Y-66624470D01*
X89295899Y-66750453D01*
X89265615Y-66900000D01*
X89265615Y-67123000D01*
X89077000Y-67123000D01*
X89077000Y-66239002D01*
X89273595Y-66042407D01*
X89291903Y-66139708D01*
X89374470Y-66268020D01*
X89500453Y-66354101D01*
X89650000Y-66384385D01*
X91250000Y-66384385D01*
X91389708Y-66358097D01*
X91518020Y-66275530D01*
X91603965Y-66149746D01*
X91630395Y-66213553D01*
X91736447Y-66319605D01*
X91875010Y-66377000D01*
X92528750Y-66377000D01*
X92623000Y-66282750D01*
X92623000Y-65327000D01*
X92877000Y-65327000D01*
X92877000Y-66282750D01*
X92971250Y-66377000D01*
X93624990Y-66377000D01*
X93763553Y-66319605D01*
X93869605Y-66213553D01*
X93927000Y-66074990D01*
X93927000Y-65421250D01*
X93832750Y-65327000D01*
X92877000Y-65327000D01*
X92623000Y-65327000D01*
X92603000Y-65327000D01*
X92603000Y-65073000D01*
X92623000Y-65073000D01*
X92623000Y-64117250D01*
X92877000Y-64117250D01*
X92877000Y-65073000D01*
X93832750Y-65073000D01*
X93927000Y-64978750D01*
X93927000Y-64325010D01*
X93869605Y-64186447D01*
X93763553Y-64080395D01*
X93624990Y-64023000D01*
X92971250Y-64023000D01*
X92877000Y-64117250D01*
X92623000Y-64117250D01*
X92528750Y-64023000D01*
X91875010Y-64023000D01*
X91736447Y-64080395D01*
X91630395Y-64186447D01*
X91603054Y-64252454D01*
X91525530Y-64131980D01*
X91399547Y-64045899D01*
X91250000Y-64015615D01*
X89650000Y-64015615D01*
X89510292Y-64041903D01*
X89381980Y-64124470D01*
X89295899Y-64250453D01*
X89265615Y-64400000D01*
X89265615Y-64629839D01*
X89079192Y-64666922D01*
X88891999Y-64791999D01*
X88091999Y-65591999D01*
X87966922Y-65779192D01*
X87922999Y-66000000D01*
X87923000Y-66000005D01*
X87923000Y-67788000D01*
X87737387Y-67788000D01*
X87651580Y-67729370D01*
X87743020Y-67670530D01*
X87829101Y-67544547D01*
X87859385Y-67395000D01*
X87859385Y-66795000D01*
X87833097Y-66655292D01*
X87750530Y-66526980D01*
X87624547Y-66440899D01*
X87475000Y-66410615D01*
X87277000Y-66410615D01*
X87277000Y-66039002D01*
X88407998Y-64908003D01*
X88408001Y-64908001D01*
X88533078Y-64720808D01*
X88543797Y-64666922D01*
X88577001Y-64500000D01*
X88577000Y-64499995D01*
X88577000Y-64284385D01*
X88850000Y-64284385D01*
X88989708Y-64258097D01*
X89118020Y-64175530D01*
X89204101Y-64049547D01*
X89234385Y-63900000D01*
X89234385Y-63777000D01*
X89799995Y-63777000D01*
X89800000Y-63777001D01*
X90020808Y-63733078D01*
X90088022Y-63688167D01*
X119867772Y-63688167D01*
X122000000Y-65820395D01*
X124132228Y-63688167D01*
X123799768Y-63306765D01*
X122632113Y-62823034D01*
X121368224Y-62822966D01*
X120200517Y-63306574D01*
X120200232Y-63306765D01*
X119867772Y-63688167D01*
X90088022Y-63688167D01*
X90208001Y-63608001D01*
X90907998Y-62908003D01*
X90908001Y-62908001D01*
X90985510Y-62791999D01*
X91033078Y-62720809D01*
X91077000Y-62500000D01*
X91077000Y-59650000D01*
X91033078Y-59429192D01*
X90908001Y-59241999D01*
X90907998Y-59241997D01*
X90184385Y-58518384D01*
X90184385Y-57500000D01*
X91765615Y-57500000D01*
X91765615Y-58900000D01*
X91791903Y-59039708D01*
X91874470Y-59168020D01*
X92000453Y-59254101D01*
X92150000Y-59284385D01*
X92423000Y-59284385D01*
X92423000Y-61159995D01*
X92422999Y-61160000D01*
X92466922Y-61380808D01*
X92591999Y-61568001D01*
X92703660Y-61679662D01*
X92639941Y-62000000D01*
X92729535Y-62450418D01*
X92984676Y-62832265D01*
X93366523Y-63087406D01*
X93816941Y-63177000D01*
X93863059Y-63177000D01*
X94313477Y-63087406D01*
X94695324Y-62832265D01*
X94950465Y-62450418D01*
X94993693Y-62233093D01*
X102822796Y-62233093D01*
X103001606Y-62665846D01*
X103332412Y-62997230D01*
X103764853Y-63176795D01*
X104233093Y-63177204D01*
X104665846Y-62998394D01*
X104997230Y-62667588D01*
X105034845Y-62577000D01*
X105814114Y-62577000D01*
X105984676Y-62832265D01*
X106366523Y-63087406D01*
X106816941Y-63177000D01*
X106863059Y-63177000D01*
X107313477Y-63087406D01*
X107644006Y-62866554D01*
X116313051Y-62866554D01*
X116401329Y-63040065D01*
X116844916Y-63189996D01*
X117312113Y-63158761D01*
X117598671Y-63040065D01*
X117686949Y-62866554D01*
X117000000Y-62179605D01*
X116313051Y-62866554D01*
X107644006Y-62866554D01*
X107695324Y-62832265D01*
X107950465Y-62450418D01*
X108040059Y-62000000D01*
X108009211Y-61844916D01*
X115810004Y-61844916D01*
X115841239Y-62312113D01*
X115959935Y-62598671D01*
X116133446Y-62686949D01*
X116820395Y-62000000D01*
X117179605Y-62000000D01*
X117866554Y-62686949D01*
X118040065Y-62598671D01*
X118189996Y-62155084D01*
X118158761Y-61687887D01*
X118040065Y-61401329D01*
X117866554Y-61313051D01*
X117179605Y-62000000D01*
X116820395Y-62000000D01*
X116133446Y-61313051D01*
X115959935Y-61401329D01*
X115810004Y-61844916D01*
X108009211Y-61844916D01*
X107950465Y-61549582D01*
X107695324Y-61167735D01*
X107644007Y-61133446D01*
X116313051Y-61133446D01*
X117000000Y-61820395D01*
X117686949Y-61133446D01*
X117598671Y-60959935D01*
X117155084Y-60810004D01*
X116687887Y-60841239D01*
X116401329Y-60959935D01*
X116313051Y-61133446D01*
X107644007Y-61133446D01*
X107313477Y-60912594D01*
X106863059Y-60823000D01*
X106816941Y-60823000D01*
X106366523Y-60912594D01*
X105984676Y-61167735D01*
X105814114Y-61423000D01*
X105035104Y-61423000D01*
X104998394Y-61334154D01*
X104667588Y-61002770D01*
X104235147Y-60823205D01*
X103766907Y-60822796D01*
X103334154Y-61001606D01*
X103002770Y-61332412D01*
X102823205Y-61764853D01*
X102822796Y-62233093D01*
X94993693Y-62233093D01*
X95040059Y-62000000D01*
X94950465Y-61549582D01*
X94695324Y-61167735D01*
X94313477Y-60912594D01*
X93863059Y-60823000D01*
X93816941Y-60823000D01*
X93577000Y-60870727D01*
X93577000Y-59284385D01*
X93850000Y-59284385D01*
X93989708Y-59258097D01*
X94118020Y-59175530D01*
X94204101Y-59049547D01*
X94234385Y-58900000D01*
X94234385Y-57500000D01*
X94210159Y-57371250D01*
X94823000Y-57371250D01*
X94823000Y-58024990D01*
X94880395Y-58163553D01*
X94986447Y-58269605D01*
X95125010Y-58327000D01*
X95778750Y-58327000D01*
X95873000Y-58232750D01*
X95873000Y-57277000D01*
X96127000Y-57277000D01*
X96127000Y-58232750D01*
X96221250Y-58327000D01*
X96874990Y-58327000D01*
X97013553Y-58269605D01*
X97119605Y-58163553D01*
X97177000Y-58024990D01*
X97177000Y-57371250D01*
X97082750Y-57277000D01*
X96127000Y-57277000D01*
X95873000Y-57277000D01*
X94917250Y-57277000D01*
X94823000Y-57371250D01*
X94210159Y-57371250D01*
X94208097Y-57360292D01*
X94125530Y-57231980D01*
X93999547Y-57145899D01*
X93850000Y-57115615D01*
X92150000Y-57115615D01*
X92010292Y-57141903D01*
X91881980Y-57224470D01*
X91795899Y-57350453D01*
X91765615Y-57500000D01*
X90184385Y-57500000D01*
X90184385Y-57350000D01*
X90158097Y-57210292D01*
X90075530Y-57081980D01*
X89953969Y-56998920D01*
X90068020Y-56925530D01*
X90154101Y-56799547D01*
X90184385Y-56650000D01*
X90184385Y-56427000D01*
X91765615Y-56427000D01*
X91765615Y-56500000D01*
X91791903Y-56639708D01*
X91874470Y-56768020D01*
X92000453Y-56854101D01*
X92150000Y-56884385D01*
X93850000Y-56884385D01*
X93989708Y-56858097D01*
X94118020Y-56775530D01*
X94204101Y-56649547D01*
X94234385Y-56500000D01*
X94234385Y-55100000D01*
X94208097Y-54960292D01*
X94125530Y-54831980D01*
X93999547Y-54745899D01*
X93850000Y-54715615D01*
X92150000Y-54715615D01*
X92010292Y-54741903D01*
X91881980Y-54824470D01*
X91795899Y-54950453D01*
X91765615Y-55100000D01*
X91765615Y-55273000D01*
X91577000Y-55273000D01*
X91577000Y-53239002D01*
X91689002Y-53127000D01*
X95373000Y-53127000D01*
X95373000Y-53665615D01*
X95200000Y-53665615D01*
X95060292Y-53691903D01*
X94931980Y-53774470D01*
X94845899Y-53900453D01*
X94815615Y-54050000D01*
X94815615Y-55650000D01*
X94841903Y-55789708D01*
X94924470Y-55918020D01*
X95050254Y-56003965D01*
X94986447Y-56030395D01*
X94880395Y-56136447D01*
X94823000Y-56275010D01*
X94823000Y-56928750D01*
X94917250Y-57023000D01*
X95873000Y-57023000D01*
X95873000Y-57003000D01*
X96127000Y-57003000D01*
X96127000Y-57023000D01*
X97082750Y-57023000D01*
X97177000Y-56928750D01*
X97177000Y-56275010D01*
X97119605Y-56136447D01*
X97013553Y-56030395D01*
X96947546Y-56003054D01*
X97068020Y-55925530D01*
X97154101Y-55799547D01*
X97184385Y-55650000D01*
X97184385Y-54050000D01*
X97158097Y-53910292D01*
X97075530Y-53781980D01*
X96949547Y-53695899D01*
X96800000Y-53665615D01*
X96527000Y-53665615D01*
X96527000Y-53127000D01*
X97873000Y-53127000D01*
X97873000Y-57334871D01*
X97729535Y-57549582D01*
X97639941Y-58000000D01*
X97729535Y-58450418D01*
X97873000Y-58665129D01*
X97873000Y-60000000D01*
X97883006Y-60049410D01*
X97911447Y-60091035D01*
X97953841Y-60118315D01*
X98000000Y-60127000D01*
X118822889Y-60127000D01*
X118822796Y-60233093D01*
X119001606Y-60665846D01*
X119332412Y-60997230D01*
X119764853Y-61176795D01*
X120233093Y-61177204D01*
X120665846Y-60998394D01*
X120997230Y-60667588D01*
X121176795Y-60235147D01*
X121176889Y-60127000D01*
X128985203Y-60127000D01*
X129049535Y-60450418D01*
X129304676Y-60832265D01*
X129583000Y-61018234D01*
X129583000Y-63600999D01*
X128323928Y-64860070D01*
X128235147Y-64823205D01*
X127766907Y-64822796D01*
X127334154Y-65001606D01*
X127002770Y-65332412D01*
X126823205Y-65764853D01*
X126822796Y-66233093D01*
X127001606Y-66665846D01*
X127332412Y-66997230D01*
X127764853Y-67176795D01*
X128233093Y-67177204D01*
X128665846Y-66998394D01*
X128997230Y-66667588D01*
X129176795Y-66235147D01*
X129177204Y-65766907D01*
X129139747Y-65676255D01*
X130567998Y-64248003D01*
X130568001Y-64248001D01*
X130693078Y-64060808D01*
X130737000Y-63840000D01*
X130737000Y-61018234D01*
X131015324Y-60832265D01*
X131270465Y-60450418D01*
X131334797Y-60127000D01*
X132548000Y-60127000D01*
X132548000Y-82548000D01*
X70877000Y-82548000D01*
X70877000Y-80571250D01*
X70782750Y-80477000D01*
X68647000Y-80477000D01*
X68647000Y-80497000D01*
X68393000Y-80497000D01*
X68393000Y-80477000D01*
X68373000Y-80477000D01*
X68373000Y-80223000D01*
X68393000Y-80223000D01*
X68393000Y-79727812D01*
X68448710Y-79672102D01*
X68393000Y-79616392D01*
X68393000Y-79594876D01*
X68562980Y-79501912D01*
X68647000Y-79259992D01*
X68647000Y-80223000D01*
X70782750Y-80223000D01*
X70877000Y-80128750D01*
X70877000Y-79560395D01*
X70919089Y-79602484D01*
X71102980Y-79501912D01*
X71269653Y-79022009D01*
X71239988Y-78514854D01*
X71102980Y-78184088D01*
X70919089Y-78083516D01*
X70877000Y-78125605D01*
X70877000Y-77775010D01*
X70819605Y-77636447D01*
X70713553Y-77530395D01*
X70574990Y-77473000D01*
X68741250Y-77473000D01*
X68647000Y-77567250D01*
X68647000Y-78386930D01*
X68562980Y-78184088D01*
X68393000Y-78091124D01*
X68393000Y-78069608D01*
X68448710Y-78013898D01*
X68393000Y-77958188D01*
X68393000Y-77567250D01*
X68298750Y-77473000D01*
X66465010Y-77473000D01*
X66326447Y-77530395D01*
X66220395Y-77636447D01*
X66168002Y-77762934D01*
X66158097Y-77710292D01*
X66075530Y-77581980D01*
X65949547Y-77495899D01*
X65800000Y-77465615D01*
X65477000Y-77465615D01*
X65477000Y-75577000D01*
X70260998Y-75577000D01*
X75691999Y-81008001D01*
X75879192Y-81133078D01*
X76100000Y-81177001D01*
X76100005Y-81177000D01*
X97014114Y-81177000D01*
X97184676Y-81432265D01*
X97566523Y-81687406D01*
X98016941Y-81777000D01*
X98063059Y-81777000D01*
X98513477Y-81687406D01*
X98895324Y-81432265D01*
X99150465Y-81050418D01*
X99193693Y-80833093D01*
X107022796Y-80833093D01*
X107201606Y-81265846D01*
X107532412Y-81597230D01*
X107964853Y-81776795D01*
X108433093Y-81777204D01*
X108865846Y-81598394D01*
X109197230Y-81267588D01*
X109234845Y-81177000D01*
X111215615Y-81177000D01*
X111215615Y-81450000D01*
X111241903Y-81589708D01*
X111324470Y-81718020D01*
X111450453Y-81804101D01*
X111600000Y-81834385D01*
X114900000Y-81834385D01*
X115039708Y-81808097D01*
X115168020Y-81725530D01*
X115254101Y-81599547D01*
X115284385Y-81450000D01*
X115284385Y-79750000D01*
X115258097Y-79610292D01*
X115175530Y-79481980D01*
X115049547Y-79395899D01*
X114900000Y-79365615D01*
X111600000Y-79365615D01*
X111460292Y-79391903D01*
X111331980Y-79474470D01*
X111245899Y-79600453D01*
X111215615Y-79750000D01*
X111215615Y-80023000D01*
X109235104Y-80023000D01*
X109198394Y-79934154D01*
X108867588Y-79602770D01*
X108435147Y-79423205D01*
X107966907Y-79422796D01*
X107534154Y-79601606D01*
X107202770Y-79932412D01*
X107023205Y-80364853D01*
X107022796Y-80833093D01*
X99193693Y-80833093D01*
X99240059Y-80600000D01*
X99150465Y-80149582D01*
X98895324Y-79767735D01*
X98513477Y-79512594D01*
X98063059Y-79423000D01*
X98016941Y-79423000D01*
X97566523Y-79512594D01*
X97184676Y-79767735D01*
X97014114Y-80023000D01*
X88427000Y-80023000D01*
X88427000Y-79184385D01*
X88650000Y-79184385D01*
X88789708Y-79158097D01*
X88918020Y-79075530D01*
X89001080Y-78953969D01*
X89074470Y-79068020D01*
X89200453Y-79154101D01*
X89350000Y-79184385D01*
X90950000Y-79184385D01*
X91089708Y-79158097D01*
X91218020Y-79075530D01*
X91304101Y-78949547D01*
X91334385Y-78800000D01*
X91334385Y-78550269D01*
X91420808Y-78533078D01*
X91608001Y-78408001D01*
X92731616Y-77284385D01*
X93850000Y-77284385D01*
X93989708Y-77258097D01*
X94118020Y-77175530D01*
X94204101Y-77049547D01*
X94234385Y-76900000D01*
X94234385Y-75500000D01*
X94208097Y-75360292D01*
X94125530Y-75231980D01*
X93999547Y-75145899D01*
X93850000Y-75115615D01*
X92150000Y-75115615D01*
X92010292Y-75141903D01*
X91881980Y-75224470D01*
X91795899Y-75350453D01*
X91765615Y-75500000D01*
X91765615Y-76618384D01*
X91310569Y-77073429D01*
X91308097Y-77060292D01*
X91225530Y-76931980D01*
X91099547Y-76845899D01*
X90950000Y-76815615D01*
X89350000Y-76815615D01*
X89210292Y-76841903D01*
X89081980Y-76924470D01*
X88998920Y-77046031D01*
X88925530Y-76931980D01*
X88799547Y-76845899D01*
X88650000Y-76815615D01*
X87050000Y-76815615D01*
X86910292Y-76841903D01*
X86781980Y-76924470D01*
X86695899Y-77050453D01*
X86665615Y-77200000D01*
X86665615Y-78800000D01*
X86691903Y-78939708D01*
X86774470Y-79068020D01*
X86900453Y-79154101D01*
X87050000Y-79184385D01*
X87273000Y-79184385D01*
X87273000Y-80023000D01*
X76339002Y-80023000D01*
X74987252Y-78671250D01*
X78623000Y-78671250D01*
X78623000Y-79324990D01*
X78680395Y-79463553D01*
X78786447Y-79569605D01*
X78925010Y-79627000D01*
X79578750Y-79627000D01*
X79673000Y-79532750D01*
X79673000Y-78577000D01*
X79927000Y-78577000D01*
X79927000Y-79532750D01*
X80021250Y-79627000D01*
X80674990Y-79627000D01*
X80813553Y-79569605D01*
X80919605Y-79463553D01*
X80977000Y-79324990D01*
X80977000Y-78671250D01*
X80882750Y-78577000D01*
X79927000Y-78577000D01*
X79673000Y-78577000D01*
X78717250Y-78577000D01*
X78623000Y-78671250D01*
X74987252Y-78671250D01*
X72687252Y-76371250D01*
X75023000Y-76371250D01*
X75023000Y-77024990D01*
X75080395Y-77163553D01*
X75186447Y-77269605D01*
X75325010Y-77327000D01*
X75978750Y-77327000D01*
X76073000Y-77232750D01*
X76073000Y-76277000D01*
X76327000Y-76277000D01*
X76327000Y-77232750D01*
X76421250Y-77327000D01*
X77074990Y-77327000D01*
X77213553Y-77269605D01*
X77319605Y-77163553D01*
X77377000Y-77024990D01*
X77377000Y-76371250D01*
X77282750Y-76277000D01*
X76327000Y-76277000D01*
X76073000Y-76277000D01*
X75117250Y-76277000D01*
X75023000Y-76371250D01*
X72687252Y-76371250D01*
X70908001Y-74591999D01*
X70720808Y-74466922D01*
X70500000Y-74422999D01*
X70499995Y-74423000D01*
X62784385Y-74423000D01*
X62784385Y-74150000D01*
X62758097Y-74010292D01*
X62675530Y-73881980D01*
X62549547Y-73795899D01*
X62400000Y-73765615D01*
X61000000Y-73765615D01*
X60860292Y-73791903D01*
X60731980Y-73874470D01*
X60645899Y-74000453D01*
X60615615Y-74150000D01*
X60615615Y-75850000D01*
X60641903Y-75989708D01*
X60724470Y-76118020D01*
X60850453Y-76204101D01*
X61000000Y-76234385D01*
X62400000Y-76234385D01*
X62539708Y-76208097D01*
X62668020Y-76125530D01*
X62754101Y-75999547D01*
X62784385Y-75850000D01*
X62784385Y-75577000D01*
X64323000Y-75577000D01*
X64323000Y-77465615D01*
X64000000Y-77465615D01*
X63860292Y-77491903D01*
X63731980Y-77574470D01*
X63645899Y-77700453D01*
X63632836Y-77764958D01*
X63579605Y-77636447D01*
X63473553Y-77530395D01*
X63334990Y-77473000D01*
X61501250Y-77473000D01*
X61407000Y-77567250D01*
X61407000Y-77958188D01*
X61351290Y-78013898D01*
X61407000Y-78069608D01*
X61407000Y-78091124D01*
X61237020Y-78184088D01*
X61153000Y-78426008D01*
X61153000Y-77567250D01*
X61058750Y-77473000D01*
X59225010Y-77473000D01*
X59086447Y-77530395D01*
X58980395Y-77636447D01*
X58923000Y-77775010D01*
X58923000Y-78125605D01*
X58880911Y-78083516D01*
X58697020Y-78184088D01*
X58530347Y-78663991D01*
X58560012Y-79171146D01*
X58697020Y-79501912D01*
X58880911Y-79602484D01*
X58923000Y-79560395D01*
X58923000Y-80128750D01*
X59017250Y-80223000D01*
X61153000Y-80223000D01*
X61153000Y-79299070D01*
X61237020Y-79501912D01*
X61407000Y-79594876D01*
X61407000Y-79616392D01*
X61351290Y-79672102D01*
X61407000Y-79727812D01*
X61407000Y-80223000D01*
X61427000Y-80223000D01*
X61427000Y-80477000D01*
X61407000Y-80477000D01*
X61407000Y-80497000D01*
X61153000Y-80497000D01*
X61153000Y-80477000D01*
X59017250Y-80477000D01*
X58923000Y-80571250D01*
X58923000Y-82548000D01*
X33452000Y-82548000D01*
X33452000Y-76468487D01*
X36864134Y-76468487D01*
X37068650Y-76879682D01*
X37414955Y-77181312D01*
X37691515Y-77295855D01*
X37873000Y-77235276D01*
X37873000Y-76287000D01*
X38127000Y-76287000D01*
X38127000Y-77235276D01*
X38308485Y-77295855D01*
X38585045Y-77181312D01*
X38931350Y-76879682D01*
X39135866Y-76468487D01*
X39075890Y-76287000D01*
X38127000Y-76287000D01*
X37873000Y-76287000D01*
X36924110Y-76287000D01*
X36864134Y-76468487D01*
X33452000Y-76468487D01*
X33452000Y-75851513D01*
X36864134Y-75851513D01*
X36924110Y-76033000D01*
X37873000Y-76033000D01*
X37873000Y-75084724D01*
X38127000Y-75084724D01*
X38127000Y-76033000D01*
X39075890Y-76033000D01*
X39135866Y-75851513D01*
X38931350Y-75440318D01*
X38679836Y-75221250D01*
X52673000Y-75221250D01*
X52673000Y-75874990D01*
X52730395Y-76013553D01*
X52836447Y-76119605D01*
X52975010Y-76177000D01*
X53628750Y-76177000D01*
X53723000Y-76082750D01*
X53723000Y-75127000D01*
X52767250Y-75127000D01*
X52673000Y-75221250D01*
X38679836Y-75221250D01*
X38585045Y-75138688D01*
X38308485Y-75024145D01*
X38127000Y-75084724D01*
X37873000Y-75084724D01*
X37691515Y-75024145D01*
X37414955Y-75138688D01*
X37068650Y-75440318D01*
X36864134Y-75851513D01*
X33452000Y-75851513D01*
X33452000Y-74125010D01*
X52673000Y-74125010D01*
X52673000Y-74778750D01*
X52767250Y-74873000D01*
X53723000Y-74873000D01*
X53723000Y-73917250D01*
X53977000Y-73917250D01*
X53977000Y-74873000D01*
X53997000Y-74873000D01*
X53997000Y-75127000D01*
X53977000Y-75127000D01*
X53977000Y-76082750D01*
X54071250Y-76177000D01*
X54724990Y-76177000D01*
X54863553Y-76119605D01*
X54969605Y-76013553D01*
X54996946Y-75947546D01*
X55074470Y-76068020D01*
X55200453Y-76154101D01*
X55350000Y-76184385D01*
X56950000Y-76184385D01*
X57089708Y-76158097D01*
X57218020Y-76075530D01*
X57304101Y-75949547D01*
X57334385Y-75800000D01*
X57334385Y-75577000D01*
X58215615Y-75577000D01*
X58215615Y-75850000D01*
X58241903Y-75989708D01*
X58324470Y-76118020D01*
X58450453Y-76204101D01*
X58600000Y-76234385D01*
X60000000Y-76234385D01*
X60139708Y-76208097D01*
X60268020Y-76125530D01*
X60354101Y-75999547D01*
X60384385Y-75850000D01*
X60384385Y-74150000D01*
X60358097Y-74010292D01*
X60275530Y-73881980D01*
X60149547Y-73795899D01*
X60000000Y-73765615D01*
X58600000Y-73765615D01*
X58460292Y-73791903D01*
X58331980Y-73874470D01*
X58245899Y-74000453D01*
X58215615Y-74150000D01*
X58215615Y-74423000D01*
X57334385Y-74423000D01*
X57334385Y-74200000D01*
X57308097Y-74060292D01*
X57225530Y-73931980D01*
X57099547Y-73845899D01*
X56950000Y-73815615D01*
X55350000Y-73815615D01*
X55210292Y-73841903D01*
X55081980Y-73924470D01*
X54996035Y-74050254D01*
X54969605Y-73986447D01*
X54863553Y-73880395D01*
X54724990Y-73823000D01*
X54071250Y-73823000D01*
X53977000Y-73917250D01*
X53723000Y-73917250D01*
X53628750Y-73823000D01*
X52975010Y-73823000D01*
X52836447Y-73880395D01*
X52730395Y-73986447D01*
X52673000Y-74125010D01*
X33452000Y-74125010D01*
X33452000Y-73050000D01*
X75015615Y-73050000D01*
X75015615Y-74650000D01*
X75041903Y-74789708D01*
X75124470Y-74918020D01*
X75250254Y-75003965D01*
X75186447Y-75030395D01*
X75080395Y-75136447D01*
X75023000Y-75275010D01*
X75023000Y-75928750D01*
X75117250Y-76023000D01*
X76073000Y-76023000D01*
X76073000Y-76003000D01*
X76327000Y-76003000D01*
X76327000Y-76023000D01*
X77282750Y-76023000D01*
X77377000Y-75928750D01*
X77377000Y-75275010D01*
X77319605Y-75136447D01*
X77213553Y-75030395D01*
X77147546Y-75003054D01*
X77268020Y-74925530D01*
X77354101Y-74799547D01*
X77384385Y-74650000D01*
X77384385Y-73931617D01*
X78250000Y-73066002D01*
X80149614Y-74965615D01*
X79000000Y-74965615D01*
X78860292Y-74991903D01*
X78731980Y-75074470D01*
X78645899Y-75200453D01*
X78615615Y-75350000D01*
X78615615Y-76950000D01*
X78641903Y-77089708D01*
X78724470Y-77218020D01*
X78850254Y-77303965D01*
X78786447Y-77330395D01*
X78680395Y-77436447D01*
X78623000Y-77575010D01*
X78623000Y-78228750D01*
X78717250Y-78323000D01*
X79673000Y-78323000D01*
X79673000Y-78303000D01*
X79927000Y-78303000D01*
X79927000Y-78323000D01*
X80882750Y-78323000D01*
X80977000Y-78228750D01*
X80977000Y-77575010D01*
X80919605Y-77436447D01*
X80813553Y-77330395D01*
X80747546Y-77303054D01*
X80868020Y-77225530D01*
X80954101Y-77099547D01*
X80984385Y-76950000D01*
X80984385Y-75831616D01*
X81000000Y-75816002D01*
X81715615Y-76531616D01*
X81715615Y-77650000D01*
X81741903Y-77789708D01*
X81824470Y-77918020D01*
X81950453Y-78004101D01*
X82100000Y-78034385D01*
X83500000Y-78034385D01*
X83639708Y-78008097D01*
X83768020Y-77925530D01*
X83854101Y-77799547D01*
X83884385Y-77650000D01*
X83884385Y-75950000D01*
X83858097Y-75810292D01*
X83775530Y-75681980D01*
X83649547Y-75595899D01*
X83500000Y-75565615D01*
X82381616Y-75565615D01*
X82037789Y-75221787D01*
X82100000Y-75234385D01*
X83500000Y-75234385D01*
X83639708Y-75208097D01*
X83768020Y-75125530D01*
X83854101Y-74999547D01*
X83884385Y-74850000D01*
X83884385Y-73150000D01*
X83858097Y-73010292D01*
X83775530Y-72881980D01*
X83649547Y-72795899D01*
X83500000Y-72765615D01*
X83377000Y-72765615D01*
X83377000Y-69800000D01*
X83333078Y-69579192D01*
X83208001Y-69391999D01*
X83207998Y-69391997D01*
X83043001Y-69226999D01*
X82855808Y-69101922D01*
X82635000Y-69057999D01*
X82634995Y-69058000D01*
X82337387Y-69058000D01*
X82252081Y-68999712D01*
X82288553Y-68984605D01*
X82394605Y-68878553D01*
X82452000Y-68739990D01*
X82452000Y-68586250D01*
X82357750Y-68492000D01*
X81427000Y-68492000D01*
X81427000Y-68512000D01*
X81173000Y-68512000D01*
X81173000Y-68492000D01*
X80242250Y-68492000D01*
X80148000Y-68586250D01*
X80148000Y-68739990D01*
X80205395Y-68878553D01*
X80311447Y-68984605D01*
X80349091Y-69000198D01*
X80256980Y-69059470D01*
X80170899Y-69185453D01*
X80140615Y-69335000D01*
X80140615Y-69935000D01*
X80166903Y-70074708D01*
X80249470Y-70203020D01*
X80348420Y-70270630D01*
X80259264Y-70328000D01*
X79595000Y-70328000D01*
X79374192Y-70371922D01*
X79186999Y-70496999D01*
X79186997Y-70497002D01*
X78250000Y-71433998D01*
X78147478Y-71331476D01*
X78177000Y-71183059D01*
X78177000Y-71136941D01*
X78087406Y-70686523D01*
X77832265Y-70304676D01*
X77450418Y-70049535D01*
X77000000Y-69959941D01*
X76549582Y-70049535D01*
X76167735Y-70304676D01*
X75912594Y-70686523D01*
X75823000Y-71136941D01*
X75823000Y-71183059D01*
X75912594Y-71633477D01*
X76167735Y-72015324D01*
X76549582Y-72270465D01*
X77000000Y-72360059D01*
X77404375Y-72279624D01*
X77015288Y-72668711D01*
X77000000Y-72665615D01*
X75400000Y-72665615D01*
X75260292Y-72691903D01*
X75131980Y-72774470D01*
X75045899Y-72900453D01*
X75015615Y-73050000D01*
X33452000Y-73050000D01*
X33452000Y-68311833D01*
X41867772Y-68311833D01*
X42200232Y-68693235D01*
X43367887Y-69176966D01*
X44631776Y-69177034D01*
X45799483Y-68693426D01*
X45799768Y-68693235D01*
X46132228Y-68311833D01*
X44000000Y-66179605D01*
X41867772Y-68311833D01*
X33452000Y-68311833D01*
X33452000Y-60127000D01*
X34665203Y-60127000D01*
X34729535Y-60450418D01*
X34984676Y-60832265D01*
X35263000Y-61018234D01*
X35263000Y-63839995D01*
X35262999Y-63840000D01*
X35306922Y-64060808D01*
X35431999Y-64248001D01*
X36860070Y-65676072D01*
X36823205Y-65764853D01*
X36822796Y-66233093D01*
X37001606Y-66665846D01*
X37332412Y-66997230D01*
X37764853Y-67176795D01*
X38233093Y-67177204D01*
X38665846Y-66998394D01*
X38997230Y-66667588D01*
X39012100Y-66631776D01*
X40822966Y-66631776D01*
X41306574Y-67799483D01*
X41306765Y-67799768D01*
X41688167Y-68132228D01*
X43820395Y-66000000D01*
X44179605Y-66000000D01*
X46311833Y-68132228D01*
X46693235Y-67799768D01*
X46725763Y-67721250D01*
X59473000Y-67721250D01*
X59473000Y-68924990D01*
X59530395Y-69063553D01*
X59636447Y-69169605D01*
X59775010Y-69227000D01*
X61503750Y-69227000D01*
X61598000Y-69132750D01*
X61598000Y-67627000D01*
X61852000Y-67627000D01*
X61852000Y-69132750D01*
X61946250Y-69227000D01*
X63674990Y-69227000D01*
X63813553Y-69169605D01*
X63919605Y-69063553D01*
X63977000Y-68924990D01*
X63977000Y-67721250D01*
X63882750Y-67627000D01*
X61852000Y-67627000D01*
X61598000Y-67627000D01*
X59567250Y-67627000D01*
X59473000Y-67721250D01*
X46725763Y-67721250D01*
X47176966Y-66632113D01*
X47176995Y-66075010D01*
X59473000Y-66075010D01*
X59473000Y-67278750D01*
X59567250Y-67373000D01*
X61598000Y-67373000D01*
X61598000Y-65867250D01*
X61852000Y-65867250D01*
X61852000Y-67373000D01*
X63882750Y-67373000D01*
X63977000Y-67278750D01*
X63977000Y-66150000D01*
X67015615Y-66150000D01*
X67015615Y-68850000D01*
X67041903Y-68989708D01*
X67124470Y-69118020D01*
X67250453Y-69204101D01*
X67400000Y-69234385D01*
X71150000Y-69234385D01*
X71289708Y-69208097D01*
X71418020Y-69125530D01*
X71504101Y-68999547D01*
X71534385Y-68850000D01*
X71534385Y-68077000D01*
X73624203Y-68077000D01*
X73864746Y-68176882D01*
X74134073Y-68177117D01*
X74382989Y-68074267D01*
X74573598Y-67883990D01*
X74676882Y-67635254D01*
X74677117Y-67365927D01*
X74574267Y-67117011D01*
X74383990Y-66926402D01*
X74135254Y-66823118D01*
X73865927Y-66822883D01*
X73623625Y-66923000D01*
X71534385Y-66923000D01*
X71534385Y-66150000D01*
X71508097Y-66010292D01*
X71425530Y-65881980D01*
X71299547Y-65795899D01*
X71150000Y-65765615D01*
X67400000Y-65765615D01*
X67260292Y-65791903D01*
X67131980Y-65874470D01*
X67045899Y-66000453D01*
X67015615Y-66150000D01*
X63977000Y-66150000D01*
X63977000Y-66075010D01*
X63919605Y-65936447D01*
X63813553Y-65830395D01*
X63674990Y-65773000D01*
X61946250Y-65773000D01*
X61852000Y-65867250D01*
X61598000Y-65867250D01*
X61503750Y-65773000D01*
X59775010Y-65773000D01*
X59636447Y-65830395D01*
X59530395Y-65936447D01*
X59473000Y-66075010D01*
X47176995Y-66075010D01*
X47177034Y-65368224D01*
X46693426Y-64200517D01*
X46693235Y-64200232D01*
X46311833Y-63867772D01*
X44179605Y-66000000D01*
X43820395Y-66000000D01*
X41688167Y-63867772D01*
X41306765Y-64200232D01*
X40823034Y-65367887D01*
X40822966Y-66631776D01*
X39012100Y-66631776D01*
X39176795Y-66235147D01*
X39177204Y-65766907D01*
X38998394Y-65334154D01*
X38667588Y-65002770D01*
X38235147Y-64823205D01*
X37766907Y-64822796D01*
X37676254Y-64860253D01*
X36504169Y-63688167D01*
X41867772Y-63688167D01*
X44000000Y-65820395D01*
X46132228Y-63688167D01*
X45799768Y-63306765D01*
X44737164Y-62866554D01*
X48313051Y-62866554D01*
X48401329Y-63040065D01*
X48844916Y-63189996D01*
X49312113Y-63158761D01*
X49598671Y-63040065D01*
X49686949Y-62866554D01*
X49000000Y-62179605D01*
X48313051Y-62866554D01*
X44737164Y-62866554D01*
X44632113Y-62823034D01*
X43368224Y-62822966D01*
X42200517Y-63306574D01*
X42200232Y-63306765D01*
X41867772Y-63688167D01*
X36504169Y-63688167D01*
X36417000Y-63600998D01*
X36417000Y-61844916D01*
X47810004Y-61844916D01*
X47841239Y-62312113D01*
X47959935Y-62598671D01*
X48133446Y-62686949D01*
X48820395Y-62000000D01*
X49179605Y-62000000D01*
X49866554Y-62686949D01*
X50040065Y-62598671D01*
X50189996Y-62155084D01*
X50179628Y-62000000D01*
X57959941Y-62000000D01*
X58049535Y-62450418D01*
X58304676Y-62832265D01*
X58686523Y-63087406D01*
X59136941Y-63177000D01*
X59183059Y-63177000D01*
X59633477Y-63087406D01*
X60015324Y-62832265D01*
X60185886Y-62577000D01*
X60964896Y-62577000D01*
X61001606Y-62665846D01*
X61332412Y-62997230D01*
X61764853Y-63176795D01*
X62233093Y-63177204D01*
X62665846Y-62998394D01*
X62997230Y-62667588D01*
X63176795Y-62235147D01*
X63177000Y-62000000D01*
X70959941Y-62000000D01*
X71049535Y-62450418D01*
X71304676Y-62832265D01*
X71686523Y-63087406D01*
X72136941Y-63177000D01*
X72183059Y-63177000D01*
X72633477Y-63087406D01*
X73015324Y-62832265D01*
X73270465Y-62450418D01*
X73360059Y-62000000D01*
X73296340Y-61679662D01*
X73407998Y-61568003D01*
X73408001Y-61568001D01*
X73504887Y-61423000D01*
X73533078Y-61380809D01*
X73577000Y-61160000D01*
X73577000Y-59284385D01*
X73850000Y-59284385D01*
X73989708Y-59258097D01*
X74118020Y-59175530D01*
X74204101Y-59049547D01*
X74234385Y-58900000D01*
X74234385Y-57500000D01*
X74208097Y-57360292D01*
X74125530Y-57231980D01*
X73999547Y-57145899D01*
X73850000Y-57115615D01*
X72150000Y-57115615D01*
X72010292Y-57141903D01*
X71881980Y-57224470D01*
X71795899Y-57350453D01*
X71765615Y-57500000D01*
X71765615Y-58900000D01*
X71791903Y-59039708D01*
X71874470Y-59168020D01*
X72000453Y-59254101D01*
X72150000Y-59284385D01*
X72423000Y-59284385D01*
X72423000Y-60870727D01*
X72183059Y-60823000D01*
X72136941Y-60823000D01*
X71686523Y-60912594D01*
X71304676Y-61167735D01*
X71049535Y-61549582D01*
X70959941Y-62000000D01*
X63177000Y-62000000D01*
X63177204Y-61766907D01*
X62998394Y-61334154D01*
X62667588Y-61002770D01*
X62235147Y-60823205D01*
X61766907Y-60822796D01*
X61334154Y-61001606D01*
X61002770Y-61332412D01*
X60965155Y-61423000D01*
X60185886Y-61423000D01*
X60015324Y-61167735D01*
X59633477Y-60912594D01*
X59183059Y-60823000D01*
X59136941Y-60823000D01*
X58686523Y-60912594D01*
X58304676Y-61167735D01*
X58049535Y-61549582D01*
X57959941Y-62000000D01*
X50179628Y-62000000D01*
X50158761Y-61687887D01*
X50040065Y-61401329D01*
X49866554Y-61313051D01*
X49179605Y-62000000D01*
X48820395Y-62000000D01*
X48133446Y-61313051D01*
X47959935Y-61401329D01*
X47810004Y-61844916D01*
X36417000Y-61844916D01*
X36417000Y-61018234D01*
X36695324Y-60832265D01*
X36950465Y-60450418D01*
X37014797Y-60127000D01*
X44822889Y-60127000D01*
X44822796Y-60233093D01*
X45001606Y-60665846D01*
X45332412Y-60997230D01*
X45764853Y-61176795D01*
X46233093Y-61177204D01*
X46338995Y-61133446D01*
X48313051Y-61133446D01*
X49000000Y-61820395D01*
X49686949Y-61133446D01*
X49598671Y-60959935D01*
X49155084Y-60810004D01*
X48687887Y-60841239D01*
X48401329Y-60959935D01*
X48313051Y-61133446D01*
X46338995Y-61133446D01*
X46665846Y-60998394D01*
X46997230Y-60667588D01*
X47176795Y-60235147D01*
X47176889Y-60127000D01*
X68000000Y-60127000D01*
X68049410Y-60116994D01*
X68091035Y-60088553D01*
X68118315Y-60046159D01*
X68127000Y-60000000D01*
X68127000Y-58665129D01*
X68270465Y-58450418D01*
X68360059Y-58000000D01*
X68270465Y-57549582D01*
X68127000Y-57334871D01*
X68127000Y-53127000D01*
X69448262Y-53127000D01*
X69466922Y-53220808D01*
X69466922Y-53220808D01*
G37*
X69466922Y-53220808D02*
X69591999Y-53408001D01*
X70591997Y-54407998D01*
X70591999Y-54408001D01*
X70779192Y-54533078D01*
X71000000Y-54577001D01*
X71000005Y-54577000D01*
X73760998Y-54577000D01*
X73912211Y-54728213D01*
X73850000Y-54715615D01*
X72150000Y-54715615D01*
X72010292Y-54741903D01*
X71881980Y-54824470D01*
X71795899Y-54950453D01*
X71765615Y-55100000D01*
X71765615Y-56500000D01*
X71791903Y-56639708D01*
X71874470Y-56768020D01*
X72000453Y-56854101D01*
X72150000Y-56884385D01*
X73850000Y-56884385D01*
X73989708Y-56858097D01*
X74118020Y-56775530D01*
X74204101Y-56649547D01*
X74234385Y-56500000D01*
X74234385Y-56377000D01*
X75815615Y-56377000D01*
X75815615Y-56650000D01*
X75841903Y-56789708D01*
X75924470Y-56918020D01*
X76046031Y-57001080D01*
X75931980Y-57074470D01*
X75845899Y-57200453D01*
X75815615Y-57350000D01*
X75815615Y-58368383D01*
X74591999Y-59591999D01*
X74466922Y-59779192D01*
X74422999Y-60000000D01*
X74423000Y-60000005D01*
X74423000Y-61499995D01*
X74422999Y-61500000D01*
X74466922Y-61720808D01*
X74591999Y-61908001D01*
X80154896Y-67470898D01*
X80166903Y-67534708D01*
X80249470Y-67663020D01*
X80347919Y-67730288D01*
X80311447Y-67745395D01*
X80205395Y-67851447D01*
X80148000Y-67990010D01*
X80148000Y-68143750D01*
X80242250Y-68238000D01*
X81173000Y-68238000D01*
X81173000Y-68218000D01*
X81427000Y-68218000D01*
X81427000Y-68238000D01*
X82357750Y-68238000D01*
X82452000Y-68143750D01*
X82452000Y-67990010D01*
X82394605Y-67851447D01*
X82288553Y-67745395D01*
X82250909Y-67729802D01*
X82343020Y-67670530D01*
X82429101Y-67544547D01*
X82459385Y-67395000D01*
X82459385Y-66795000D01*
X82433097Y-66655292D01*
X82350530Y-66526980D01*
X82224547Y-66440899D01*
X82075000Y-66410615D01*
X80726617Y-66410615D01*
X79566002Y-65250000D01*
X80531616Y-64284385D01*
X81850000Y-64284385D01*
X81989708Y-64258097D01*
X82118020Y-64175530D01*
X82204101Y-64049547D01*
X82234385Y-63900000D01*
X82234385Y-62500000D01*
X82208097Y-62360292D01*
X82125530Y-62231980D01*
X81999547Y-62145899D01*
X81850000Y-62115615D01*
X80150000Y-62115615D01*
X80010292Y-62141903D01*
X79881980Y-62224470D01*
X79795899Y-62350453D01*
X79765615Y-62500000D01*
X79765615Y-63418384D01*
X78750000Y-64433998D01*
X75577000Y-61260998D01*
X75577000Y-60239002D01*
X76481617Y-59334385D01*
X77800000Y-59334385D01*
X77861112Y-59322886D01*
X77323928Y-59860070D01*
X77235147Y-59823205D01*
X76766907Y-59822796D01*
X76334154Y-60001606D01*
X76002770Y-60332412D01*
X75823205Y-60764853D01*
X75822796Y-61233093D01*
X76001606Y-61665846D01*
X76332412Y-61997230D01*
X76764853Y-62176795D01*
X77233093Y-62177204D01*
X77665846Y-61998394D01*
X77997230Y-61667588D01*
X78176795Y-61235147D01*
X78177204Y-60766907D01*
X78139747Y-60676255D01*
X78939002Y-59877000D01*
X79846088Y-59877000D01*
X79795899Y-59950453D01*
X79765615Y-60100000D01*
X79765615Y-61500000D01*
X79791903Y-61639708D01*
X79874470Y-61768020D01*
X80000453Y-61854101D01*
X80150000Y-61884385D01*
X81850000Y-61884385D01*
X81989708Y-61858097D01*
X82118020Y-61775530D01*
X82204101Y-61649547D01*
X82234385Y-61500000D01*
X82234385Y-60100000D01*
X82208097Y-59960292D01*
X82154500Y-59877000D01*
X83846088Y-59877000D01*
X83795899Y-59950453D01*
X83765615Y-60100000D01*
X83765615Y-61500000D01*
X83791903Y-61639708D01*
X83874470Y-61768020D01*
X84000453Y-61854101D01*
X84150000Y-61884385D01*
X85850000Y-61884385D01*
X85989708Y-61858097D01*
X86118020Y-61775530D01*
X86204101Y-61649547D01*
X86234385Y-61500000D01*
X86234385Y-60100000D01*
X86208097Y-59960292D01*
X86154500Y-59877000D01*
X86260998Y-59877000D01*
X86765615Y-60381617D01*
X86765615Y-61500000D01*
X86791903Y-61639708D01*
X86874470Y-61768020D01*
X87000453Y-61854101D01*
X87150000Y-61884385D01*
X88850000Y-61884385D01*
X88989708Y-61858097D01*
X89118020Y-61775530D01*
X89204101Y-61649547D01*
X89234385Y-61500000D01*
X89234385Y-60100000D01*
X89208097Y-59960292D01*
X89125530Y-59831980D01*
X88999547Y-59745899D01*
X88850000Y-59715615D01*
X87731616Y-59715615D01*
X86908001Y-58891999D01*
X86720808Y-58766922D01*
X86500000Y-58722999D01*
X86499995Y-58723000D01*
X84577000Y-58723000D01*
X84577000Y-54727000D01*
X84765615Y-54727000D01*
X84765615Y-54900000D01*
X84791903Y-55039708D01*
X84874470Y-55168020D01*
X85000453Y-55254101D01*
X85150000Y-55284385D01*
X86850000Y-55284385D01*
X86989708Y-55258097D01*
X87118020Y-55175530D01*
X87204101Y-55049547D01*
X87234385Y-54900000D01*
X87234385Y-53500000D01*
X87208097Y-53360292D01*
X87125530Y-53231980D01*
X86999547Y-53145899D01*
X86906221Y-53127000D01*
X90423000Y-53127000D01*
X90423000Y-55273000D01*
X90184385Y-55273000D01*
X90184385Y-55050000D01*
X90158097Y-54910292D01*
X90075530Y-54781980D01*
X89949547Y-54695899D01*
X89800000Y-54665615D01*
X88200000Y-54665615D01*
X88060292Y-54691903D01*
X87931980Y-54774470D01*
X87845899Y-54900453D01*
X87815615Y-55050000D01*
X87815615Y-56650000D01*
X87841903Y-56789708D01*
X87924470Y-56918020D01*
X88046031Y-57001080D01*
X87931980Y-57074470D01*
X87845899Y-57200453D01*
X87815615Y-57350000D01*
X87815615Y-58950000D01*
X87841903Y-59089708D01*
X87924470Y-59218020D01*
X88050453Y-59304101D01*
X88200000Y-59334385D01*
X89368384Y-59334385D01*
X89923000Y-59889001D01*
X89923000Y-62260999D01*
X89560998Y-62623000D01*
X89234385Y-62623000D01*
X89234385Y-62500000D01*
X89208097Y-62360292D01*
X89125530Y-62231980D01*
X88999547Y-62145899D01*
X88850000Y-62115615D01*
X87150000Y-62115615D01*
X87010292Y-62141903D01*
X86881980Y-62224470D01*
X86795899Y-62350453D01*
X86765615Y-62500000D01*
X86765615Y-63900000D01*
X86791903Y-64039708D01*
X86874470Y-64168020D01*
X87000453Y-64254101D01*
X87150000Y-64284385D01*
X87399614Y-64284385D01*
X86291999Y-65391999D01*
X86166922Y-65579192D01*
X86122999Y-65800000D01*
X86123000Y-65800005D01*
X86123000Y-66410615D01*
X85925000Y-66410615D01*
X85785292Y-66436903D01*
X85777000Y-66442239D01*
X85777000Y-64284385D01*
X85850000Y-64284385D01*
X85989708Y-64258097D01*
X86118020Y-64175530D01*
X86204101Y-64049547D01*
X86234385Y-63900000D01*
X86234385Y-62500000D01*
X86208097Y-62360292D01*
X86125530Y-62231980D01*
X85999547Y-62145899D01*
X85850000Y-62115615D01*
X84150000Y-62115615D01*
X84010292Y-62141903D01*
X83881980Y-62224470D01*
X83795899Y-62350453D01*
X83765615Y-62500000D01*
X83765615Y-63900000D01*
X83791903Y-64039708D01*
X83874470Y-64168020D01*
X84000453Y-64254101D01*
X84150000Y-64284385D01*
X84623000Y-64284385D01*
X84623000Y-64423000D01*
X83577000Y-64423000D01*
X83577000Y-61375797D01*
X83676882Y-61135254D01*
X83677117Y-60865927D01*
X83574267Y-60617011D01*
X83383990Y-60426402D01*
X83135254Y-60323118D01*
X82865927Y-60322883D01*
X82617011Y-60425733D01*
X82426402Y-60616010D01*
X82323118Y-60864746D01*
X82322883Y-61134073D01*
X82423000Y-61376375D01*
X82423000Y-64423000D01*
X82000005Y-64423000D01*
X82000000Y-64422999D01*
X81779192Y-64466922D01*
X81591999Y-64591999D01*
X81591997Y-64592002D01*
X81357728Y-64826271D01*
X81117011Y-64925733D01*
X80926402Y-65116010D01*
X80823118Y-65364746D01*
X80822883Y-65634073D01*
X80925733Y-65882989D01*
X81116010Y-66073598D01*
X81364746Y-66176882D01*
X81634073Y-66177117D01*
X81882989Y-66074267D01*
X82073598Y-65883990D01*
X82174137Y-65641864D01*
X82239001Y-65577000D01*
X84623000Y-65577000D01*
X84623000Y-72765615D01*
X84500000Y-72765615D01*
X84360292Y-72791903D01*
X84231980Y-72874470D01*
X84145899Y-73000453D01*
X84115615Y-73150000D01*
X84115615Y-74850000D01*
X84141903Y-74989708D01*
X84224470Y-75118020D01*
X84350453Y-75204101D01*
X84500000Y-75234385D01*
X85900000Y-75234385D01*
X85961113Y-75222886D01*
X85618384Y-75565615D01*
X84500000Y-75565615D01*
X84360292Y-75591903D01*
X84231980Y-75674470D01*
X84145899Y-75800453D01*
X84115615Y-75950000D01*
X84115615Y-77650000D01*
X84141903Y-77789708D01*
X84224470Y-77918020D01*
X84350453Y-78004101D01*
X84500000Y-78034385D01*
X85900000Y-78034385D01*
X86039708Y-78008097D01*
X86168020Y-77925530D01*
X86254101Y-77799547D01*
X86284385Y-77650000D01*
X86284385Y-76531617D01*
X87107998Y-75708003D01*
X87108001Y-75708001D01*
X87233078Y-75520808D01*
X87277000Y-75300000D01*
X87277000Y-74777000D01*
X88765615Y-74777000D01*
X88765615Y-74900000D01*
X88791903Y-75039708D01*
X88874470Y-75168020D01*
X89000453Y-75254101D01*
X89150000Y-75284385D01*
X90850000Y-75284385D01*
X90989708Y-75258097D01*
X91118020Y-75175530D01*
X91204101Y-75049547D01*
X91234385Y-74900000D01*
X91234385Y-73500000D01*
X91208097Y-73360292D01*
X91125530Y-73231980D01*
X90999547Y-73145899D01*
X90850000Y-73115615D01*
X89150000Y-73115615D01*
X89010292Y-73141903D01*
X88881980Y-73224470D01*
X88795899Y-73350453D01*
X88765615Y-73500000D01*
X88765615Y-73623000D01*
X87277000Y-73623000D01*
X87277000Y-71589385D01*
X87475000Y-71589385D01*
X87614708Y-71563097D01*
X87743020Y-71480530D01*
X87829101Y-71354547D01*
X87859385Y-71205000D01*
X87859385Y-70605000D01*
X87833097Y-70465292D01*
X87803869Y-70419871D01*
X88765615Y-71381616D01*
X88765615Y-72500000D01*
X88791903Y-72639708D01*
X88874470Y-72768020D01*
X89000453Y-72854101D01*
X89150000Y-72884385D01*
X90850000Y-72884385D01*
X90989708Y-72858097D01*
X91118020Y-72775530D01*
X91204101Y-72649547D01*
X91234385Y-72500000D01*
X91234385Y-72377000D01*
X92060998Y-72377000D01*
X92399614Y-72715615D01*
X92150000Y-72715615D01*
X92010292Y-72741903D01*
X91881980Y-72824470D01*
X91795899Y-72950453D01*
X91765615Y-73100000D01*
X91765615Y-74500000D01*
X91791903Y-74639708D01*
X91874470Y-74768020D01*
X92000453Y-74854101D01*
X92150000Y-74884385D01*
X93850000Y-74884385D01*
X93989708Y-74858097D01*
X94118020Y-74775530D01*
X94204101Y-74649547D01*
X94234385Y-74500000D01*
X94234385Y-73100000D01*
X94208097Y-72960292D01*
X94125530Y-72831980D01*
X93999547Y-72745899D01*
X93850000Y-72715615D01*
X93577000Y-72715615D01*
X93577000Y-72500000D01*
X93558700Y-72408001D01*
X93533078Y-72279191D01*
X93482979Y-72204213D01*
X93408001Y-72091999D01*
X93407998Y-72091997D01*
X92708001Y-71391999D01*
X92520808Y-71266922D01*
X92300000Y-71222999D01*
X92299995Y-71223000D01*
X91234385Y-71223000D01*
X91234385Y-71100000D01*
X91208097Y-70960292D01*
X91125530Y-70831980D01*
X90999547Y-70745899D01*
X90850000Y-70715615D01*
X89731616Y-70715615D01*
X89093002Y-70077000D01*
X98260998Y-70077000D01*
X100423000Y-72239002D01*
X100423000Y-73237771D01*
X100416488Y-73222011D01*
X99980285Y-72785046D01*
X99410066Y-72548270D01*
X98792643Y-72547732D01*
X98222011Y-72783512D01*
X97785046Y-73219715D01*
X97548270Y-73789934D01*
X97547732Y-74407357D01*
X97783512Y-74977989D01*
X98219715Y-75414954D01*
X98789934Y-75651730D01*
X99407357Y-75652268D01*
X99977989Y-75416488D01*
X100414954Y-74980285D01*
X100540889Y-74677000D01*
X102659146Y-74677000D01*
X102783512Y-74977989D01*
X103219715Y-75414954D01*
X103789934Y-75651730D01*
X104407357Y-75652268D01*
X104977989Y-75416488D01*
X105414954Y-74980285D01*
X105651730Y-74410066D01*
X105651732Y-74407357D01*
X112547732Y-74407357D01*
X112783512Y-74977989D01*
X113219715Y-75414954D01*
X113789934Y-75651730D01*
X114407357Y-75652268D01*
X114977989Y-75416488D01*
X115414954Y-74980285D01*
X115540889Y-74677000D01*
X116323000Y-74677000D01*
X116323000Y-76799995D01*
X116322999Y-76800000D01*
X116366922Y-77020808D01*
X116491999Y-77208001D01*
X118173000Y-78889002D01*
X118173000Y-79365615D01*
X117100000Y-79365615D01*
X116960292Y-79391903D01*
X116831980Y-79474470D01*
X116745899Y-79600453D01*
X116715615Y-79750000D01*
X116715615Y-81450000D01*
X116741903Y-81589708D01*
X116824470Y-81718020D01*
X116950453Y-81804101D01*
X117100000Y-81834385D01*
X120400000Y-81834385D01*
X120539708Y-81808097D01*
X120668020Y-81725530D01*
X120754101Y-81599547D01*
X120784385Y-81450000D01*
X120784385Y-79750000D01*
X120758097Y-79610292D01*
X120675530Y-79481980D01*
X120549547Y-79395899D01*
X120400000Y-79365615D01*
X119327000Y-79365615D01*
X119327000Y-78650000D01*
X119283078Y-78429192D01*
X119158001Y-78241999D01*
X117477000Y-76560998D01*
X117477000Y-76468487D01*
X126864134Y-76468487D01*
X127068650Y-76879682D01*
X127414955Y-77181312D01*
X127691515Y-77295855D01*
X127873000Y-77235276D01*
X127873000Y-76287000D01*
X128127000Y-76287000D01*
X128127000Y-77235276D01*
X128308485Y-77295855D01*
X128585045Y-77181312D01*
X128931350Y-76879682D01*
X129135866Y-76468487D01*
X129075890Y-76287000D01*
X128127000Y-76287000D01*
X127873000Y-76287000D01*
X126924110Y-76287000D01*
X126864134Y-76468487D01*
X117477000Y-76468487D01*
X117477000Y-75851513D01*
X126864134Y-75851513D01*
X126924110Y-76033000D01*
X127873000Y-76033000D01*
X127873000Y-75084724D01*
X128127000Y-75084724D01*
X128127000Y-76033000D01*
X129075890Y-76033000D01*
X129135866Y-75851513D01*
X128931350Y-75440318D01*
X128585045Y-75138688D01*
X128308485Y-75024145D01*
X128127000Y-75084724D01*
X127873000Y-75084724D01*
X127691515Y-75024145D01*
X127414955Y-75138688D01*
X127068650Y-75440318D01*
X126864134Y-75851513D01*
X117477000Y-75851513D01*
X117477000Y-74677000D01*
X117659146Y-74677000D01*
X117783512Y-74977989D01*
X118219715Y-75414954D01*
X118789934Y-75651730D01*
X119407357Y-75652268D01*
X119977989Y-75416488D01*
X120414954Y-74980285D01*
X120651730Y-74410066D01*
X120652268Y-73792643D01*
X120416488Y-73222011D01*
X119980285Y-72785046D01*
X119410066Y-72548270D01*
X118792643Y-72547732D01*
X118222011Y-72783512D01*
X117785046Y-73219715D01*
X117659111Y-73523000D01*
X115540854Y-73523000D01*
X115416488Y-73222011D01*
X114980285Y-72785046D01*
X114410066Y-72548270D01*
X113792643Y-72547732D01*
X113222011Y-72783512D01*
X112785046Y-73219715D01*
X112548270Y-73789934D01*
X112547732Y-74407357D01*
X105651732Y-74407357D01*
X105652268Y-73792643D01*
X105416488Y-73222011D01*
X104980285Y-72785046D01*
X104410066Y-72548270D01*
X103792643Y-72547732D01*
X103222011Y-72783512D01*
X102785046Y-73219715D01*
X102659111Y-73523000D01*
X101577000Y-73523000D01*
X101577000Y-72000005D01*
X101577001Y-72000000D01*
X101533078Y-71779192D01*
X101408001Y-71591999D01*
X98908001Y-69091999D01*
X98720808Y-68966922D01*
X98707197Y-68964214D01*
X98739708Y-68958097D01*
X98868020Y-68875530D01*
X98954101Y-68749547D01*
X98984385Y-68600000D01*
X98984385Y-67434069D01*
X110311240Y-67434069D01*
X110569222Y-68056910D01*
X111100864Y-68615837D01*
X111805930Y-68928767D01*
X112113000Y-68878674D01*
X112113000Y-67127000D01*
X112367000Y-67127000D01*
X112367000Y-68878674D01*
X112674070Y-68928767D01*
X113379136Y-68615837D01*
X113668299Y-68311833D01*
X119867772Y-68311833D01*
X120200232Y-68693235D01*
X121367887Y-69176966D01*
X122631776Y-69177034D01*
X123799483Y-68693426D01*
X123799768Y-68693235D01*
X124132228Y-68311833D01*
X122000000Y-66179605D01*
X119867772Y-68311833D01*
X113668299Y-68311833D01*
X113910778Y-68056910D01*
X114168760Y-67434069D01*
X114118462Y-67127000D01*
X112367000Y-67127000D01*
X112113000Y-67127000D01*
X110361538Y-67127000D01*
X110311240Y-67434069D01*
X98984385Y-67434069D01*
X98984385Y-66565931D01*
X110311240Y-66565931D01*
X110361538Y-66873000D01*
X112113000Y-66873000D01*
X112113000Y-65121326D01*
X112367000Y-65121326D01*
X112367000Y-66873000D01*
X114118462Y-66873000D01*
X114157974Y-66631776D01*
X118822966Y-66631776D01*
X119306574Y-67799483D01*
X119306765Y-67799768D01*
X119688167Y-68132228D01*
X121820395Y-66000000D01*
X122179605Y-66000000D01*
X124311833Y-68132228D01*
X124693235Y-67799768D01*
X125176966Y-66632113D01*
X125177034Y-65368224D01*
X124693426Y-64200517D01*
X124693235Y-64200232D01*
X124311833Y-63867772D01*
X122179605Y-66000000D01*
X121820395Y-66000000D01*
X119688167Y-63867772D01*
X119306765Y-64200232D01*
X118823034Y-65367887D01*
X118822966Y-66631776D01*
X114157974Y-66631776D01*
X114168760Y-66565931D01*
X113910778Y-65943090D01*
X113379136Y-65384163D01*
X112674070Y-65071233D01*
X112367000Y-65121326D01*
X112113000Y-65121326D01*
X111805930Y-65071233D01*
X111100864Y-65384163D01*
X110569222Y-65943090D01*
X110311240Y-66565931D01*
X98984385Y-66565931D01*
X98984385Y-65400000D01*
X98958097Y-65260292D01*
X98875530Y-65131980D01*
X98749547Y-65045899D01*
X98600000Y-65015615D01*
X95400000Y-65015615D01*
X95260292Y-65041903D01*
X95131980Y-65124470D01*
X95045899Y-65250453D01*
X95015615Y-65400000D01*
X95015615Y-68600000D01*
X95041903Y-68739708D01*
X95124470Y-68868020D01*
X95204935Y-68923000D01*
X89239001Y-68923000D01*
X89077000Y-68760998D01*
X89077000Y-68277000D01*
X89265615Y-68277000D01*
X89265615Y-68500000D01*
X89291903Y-68639708D01*
X89374470Y-68768020D01*
X89500453Y-68854101D01*
X89650000Y-68884385D01*
X91250000Y-68884385D01*
X91389708Y-68858097D01*
X91518020Y-68775530D01*
X91603965Y-68649746D01*
X91630395Y-68713553D01*
X91736447Y-68819605D01*
X91875010Y-68877000D01*
X92528750Y-68877000D01*
X92623000Y-68782750D01*
X92623000Y-67827000D01*
X92877000Y-67827000D01*
X92877000Y-68782750D01*
X92971250Y-68877000D01*
X93624990Y-68877000D01*
X93763553Y-68819605D01*
X93869605Y-68713553D01*
X93927000Y-68574990D01*
X93927000Y-67921250D01*
X93832750Y-67827000D01*
X92877000Y-67827000D01*
X92623000Y-67827000D01*
X92603000Y-67827000D01*
X92603000Y-67573000D01*
X92623000Y-67573000D01*
X92623000Y-66617250D01*
X92877000Y-66617250D01*
X92877000Y-67573000D01*
X93832750Y-67573000D01*
X93927000Y-67478750D01*
X93927000Y-66825010D01*
X93869605Y-66686447D01*
X93763553Y-66580395D01*
X93624990Y-66523000D01*
X92971250Y-66523000D01*
X92877000Y-66617250D01*
X92623000Y-66617250D01*
X92528750Y-66523000D01*
X91875010Y-66523000D01*
X91736447Y-66580395D01*
X91630395Y-66686447D01*
X91603054Y-66752454D01*
X91525530Y-66631980D01*
X91399547Y-66545899D01*
X91250000Y-66515615D01*
X89650000Y-66515615D01*
X89510292Y-66541903D01*
X89381980Y-66624470D01*
X89295899Y-66750453D01*
X89265615Y-66900000D01*
X89265615Y-67123000D01*
X89077000Y-67123000D01*
X89077000Y-66239002D01*
X89273595Y-66042407D01*
X89291903Y-66139708D01*
X89374470Y-66268020D01*
X89500453Y-66354101D01*
X89650000Y-66384385D01*
X91250000Y-66384385D01*
X91389708Y-66358097D01*
X91518020Y-66275530D01*
X91603965Y-66149746D01*
X91630395Y-66213553D01*
X91736447Y-66319605D01*
X91875010Y-66377000D01*
X92528750Y-66377000D01*
X92623000Y-66282750D01*
X92623000Y-65327000D01*
X92877000Y-65327000D01*
X92877000Y-66282750D01*
X92971250Y-66377000D01*
X93624990Y-66377000D01*
X93763553Y-66319605D01*
X93869605Y-66213553D01*
X93927000Y-66074990D01*
X93927000Y-65421250D01*
X93832750Y-65327000D01*
X92877000Y-65327000D01*
X92623000Y-65327000D01*
X92603000Y-65327000D01*
X92603000Y-65073000D01*
X92623000Y-65073000D01*
X92623000Y-64117250D01*
X92877000Y-64117250D01*
X92877000Y-65073000D01*
X93832750Y-65073000D01*
X93927000Y-64978750D01*
X93927000Y-64325010D01*
X93869605Y-64186447D01*
X93763553Y-64080395D01*
X93624990Y-64023000D01*
X92971250Y-64023000D01*
X92877000Y-64117250D01*
X92623000Y-64117250D01*
X92528750Y-64023000D01*
X91875010Y-64023000D01*
X91736447Y-64080395D01*
X91630395Y-64186447D01*
X91603054Y-64252454D01*
X91525530Y-64131980D01*
X91399547Y-64045899D01*
X91250000Y-64015615D01*
X89650000Y-64015615D01*
X89510292Y-64041903D01*
X89381980Y-64124470D01*
X89295899Y-64250453D01*
X89265615Y-64400000D01*
X89265615Y-64629839D01*
X89079192Y-64666922D01*
X88891999Y-64791999D01*
X88091999Y-65591999D01*
X87966922Y-65779192D01*
X87922999Y-66000000D01*
X87923000Y-66000005D01*
X87923000Y-67788000D01*
X87737387Y-67788000D01*
X87651580Y-67729370D01*
X87743020Y-67670530D01*
X87829101Y-67544547D01*
X87859385Y-67395000D01*
X87859385Y-66795000D01*
X87833097Y-66655292D01*
X87750530Y-66526980D01*
X87624547Y-66440899D01*
X87475000Y-66410615D01*
X87277000Y-66410615D01*
X87277000Y-66039002D01*
X88407998Y-64908003D01*
X88408001Y-64908001D01*
X88533078Y-64720808D01*
X88543797Y-64666922D01*
X88577001Y-64500000D01*
X88577000Y-64499995D01*
X88577000Y-64284385D01*
X88850000Y-64284385D01*
X88989708Y-64258097D01*
X89118020Y-64175530D01*
X89204101Y-64049547D01*
X89234385Y-63900000D01*
X89234385Y-63777000D01*
X89799995Y-63777000D01*
X89800000Y-63777001D01*
X90020808Y-63733078D01*
X90088022Y-63688167D01*
X119867772Y-63688167D01*
X122000000Y-65820395D01*
X124132228Y-63688167D01*
X123799768Y-63306765D01*
X122632113Y-62823034D01*
X121368224Y-62822966D01*
X120200517Y-63306574D01*
X120200232Y-63306765D01*
X119867772Y-63688167D01*
X90088022Y-63688167D01*
X90208001Y-63608001D01*
X90907998Y-62908003D01*
X90908001Y-62908001D01*
X90985510Y-62791999D01*
X91033078Y-62720809D01*
X91077000Y-62500000D01*
X91077000Y-59650000D01*
X91033078Y-59429192D01*
X90908001Y-59241999D01*
X90907998Y-59241997D01*
X90184385Y-58518384D01*
X90184385Y-57500000D01*
X91765615Y-57500000D01*
X91765615Y-58900000D01*
X91791903Y-59039708D01*
X91874470Y-59168020D01*
X92000453Y-59254101D01*
X92150000Y-59284385D01*
X92423000Y-59284385D01*
X92423000Y-61159995D01*
X92422999Y-61160000D01*
X92466922Y-61380808D01*
X92591999Y-61568001D01*
X92703660Y-61679662D01*
X92639941Y-62000000D01*
X92729535Y-62450418D01*
X92984676Y-62832265D01*
X93366523Y-63087406D01*
X93816941Y-63177000D01*
X93863059Y-63177000D01*
X94313477Y-63087406D01*
X94695324Y-62832265D01*
X94950465Y-62450418D01*
X94993693Y-62233093D01*
X102822796Y-62233093D01*
X103001606Y-62665846D01*
X103332412Y-62997230D01*
X103764853Y-63176795D01*
X104233093Y-63177204D01*
X104665846Y-62998394D01*
X104997230Y-62667588D01*
X105034845Y-62577000D01*
X105814114Y-62577000D01*
X105984676Y-62832265D01*
X106366523Y-63087406D01*
X106816941Y-63177000D01*
X106863059Y-63177000D01*
X107313477Y-63087406D01*
X107644006Y-62866554D01*
X116313051Y-62866554D01*
X116401329Y-63040065D01*
X116844916Y-63189996D01*
X117312113Y-63158761D01*
X117598671Y-63040065D01*
X117686949Y-62866554D01*
X117000000Y-62179605D01*
X116313051Y-62866554D01*
X107644006Y-62866554D01*
X107695324Y-62832265D01*
X107950465Y-62450418D01*
X108040059Y-62000000D01*
X108009211Y-61844916D01*
X115810004Y-61844916D01*
X115841239Y-62312113D01*
X115959935Y-62598671D01*
X116133446Y-62686949D01*
X116820395Y-62000000D01*
X117179605Y-62000000D01*
X117866554Y-62686949D01*
X118040065Y-62598671D01*
X118189996Y-62155084D01*
X118158761Y-61687887D01*
X118040065Y-61401329D01*
X117866554Y-61313051D01*
X117179605Y-62000000D01*
X116820395Y-62000000D01*
X116133446Y-61313051D01*
X115959935Y-61401329D01*
X115810004Y-61844916D01*
X108009211Y-61844916D01*
X107950465Y-61549582D01*
X107695324Y-61167735D01*
X107644007Y-61133446D01*
X116313051Y-61133446D01*
X117000000Y-61820395D01*
X117686949Y-61133446D01*
X117598671Y-60959935D01*
X117155084Y-60810004D01*
X116687887Y-60841239D01*
X116401329Y-60959935D01*
X116313051Y-61133446D01*
X107644007Y-61133446D01*
X107313477Y-60912594D01*
X106863059Y-60823000D01*
X106816941Y-60823000D01*
X106366523Y-60912594D01*
X105984676Y-61167735D01*
X105814114Y-61423000D01*
X105035104Y-61423000D01*
X104998394Y-61334154D01*
X104667588Y-61002770D01*
X104235147Y-60823205D01*
X103766907Y-60822796D01*
X103334154Y-61001606D01*
X103002770Y-61332412D01*
X102823205Y-61764853D01*
X102822796Y-62233093D01*
X94993693Y-62233093D01*
X95040059Y-62000000D01*
X94950465Y-61549582D01*
X94695324Y-61167735D01*
X94313477Y-60912594D01*
X93863059Y-60823000D01*
X93816941Y-60823000D01*
X93577000Y-60870727D01*
X93577000Y-59284385D01*
X93850000Y-59284385D01*
X93989708Y-59258097D01*
X94118020Y-59175530D01*
X94204101Y-59049547D01*
X94234385Y-58900000D01*
X94234385Y-57500000D01*
X94210159Y-57371250D01*
X94823000Y-57371250D01*
X94823000Y-58024990D01*
X94880395Y-58163553D01*
X94986447Y-58269605D01*
X95125010Y-58327000D01*
X95778750Y-58327000D01*
X95873000Y-58232750D01*
X95873000Y-57277000D01*
X96127000Y-57277000D01*
X96127000Y-58232750D01*
X96221250Y-58327000D01*
X96874990Y-58327000D01*
X97013553Y-58269605D01*
X97119605Y-58163553D01*
X97177000Y-58024990D01*
X97177000Y-57371250D01*
X97082750Y-57277000D01*
X96127000Y-57277000D01*
X95873000Y-57277000D01*
X94917250Y-57277000D01*
X94823000Y-57371250D01*
X94210159Y-57371250D01*
X94208097Y-57360292D01*
X94125530Y-57231980D01*
X93999547Y-57145899D01*
X93850000Y-57115615D01*
X92150000Y-57115615D01*
X92010292Y-57141903D01*
X91881980Y-57224470D01*
X91795899Y-57350453D01*
X91765615Y-57500000D01*
X90184385Y-57500000D01*
X90184385Y-57350000D01*
X90158097Y-57210292D01*
X90075530Y-57081980D01*
X89953969Y-56998920D01*
X90068020Y-56925530D01*
X90154101Y-56799547D01*
X90184385Y-56650000D01*
X90184385Y-56427000D01*
X91765615Y-56427000D01*
X91765615Y-56500000D01*
X91791903Y-56639708D01*
X91874470Y-56768020D01*
X92000453Y-56854101D01*
X92150000Y-56884385D01*
X93850000Y-56884385D01*
X93989708Y-56858097D01*
X94118020Y-56775530D01*
X94204101Y-56649547D01*
X94234385Y-56500000D01*
X94234385Y-55100000D01*
X94208097Y-54960292D01*
X94125530Y-54831980D01*
X93999547Y-54745899D01*
X93850000Y-54715615D01*
X92150000Y-54715615D01*
X92010292Y-54741903D01*
X91881980Y-54824470D01*
X91795899Y-54950453D01*
X91765615Y-55100000D01*
X91765615Y-55273000D01*
X91577000Y-55273000D01*
X91577000Y-53239002D01*
X91689002Y-53127000D01*
X95373000Y-53127000D01*
X95373000Y-53665615D01*
X95200000Y-53665615D01*
X95060292Y-53691903D01*
X94931980Y-53774470D01*
X94845899Y-53900453D01*
X94815615Y-54050000D01*
X94815615Y-55650000D01*
X94841903Y-55789708D01*
X94924470Y-55918020D01*
X95050254Y-56003965D01*
X94986447Y-56030395D01*
X94880395Y-56136447D01*
X94823000Y-56275010D01*
X94823000Y-56928750D01*
X94917250Y-57023000D01*
X95873000Y-57023000D01*
X95873000Y-57003000D01*
X96127000Y-57003000D01*
X96127000Y-57023000D01*
X97082750Y-57023000D01*
X97177000Y-56928750D01*
X97177000Y-56275010D01*
X97119605Y-56136447D01*
X97013553Y-56030395D01*
X96947546Y-56003054D01*
X97068020Y-55925530D01*
X97154101Y-55799547D01*
X97184385Y-55650000D01*
X97184385Y-54050000D01*
X97158097Y-53910292D01*
X97075530Y-53781980D01*
X96949547Y-53695899D01*
X96800000Y-53665615D01*
X96527000Y-53665615D01*
X96527000Y-53127000D01*
X97873000Y-53127000D01*
X97873000Y-57334871D01*
X97729535Y-57549582D01*
X97639941Y-58000000D01*
X97729535Y-58450418D01*
X97873000Y-58665129D01*
X97873000Y-60000000D01*
X97883006Y-60049410D01*
X97911447Y-60091035D01*
X97953841Y-60118315D01*
X98000000Y-60127000D01*
X118822889Y-60127000D01*
X118822796Y-60233093D01*
X119001606Y-60665846D01*
X119332412Y-60997230D01*
X119764853Y-61176795D01*
X120233093Y-61177204D01*
X120665846Y-60998394D01*
X120997230Y-60667588D01*
X121176795Y-60235147D01*
X121176889Y-60127000D01*
X128985203Y-60127000D01*
X129049535Y-60450418D01*
X129304676Y-60832265D01*
X129583000Y-61018234D01*
X129583000Y-63600999D01*
X128323928Y-64860070D01*
X128235147Y-64823205D01*
X127766907Y-64822796D01*
X127334154Y-65001606D01*
X127002770Y-65332412D01*
X126823205Y-65764853D01*
X126822796Y-66233093D01*
X127001606Y-66665846D01*
X127332412Y-66997230D01*
X127764853Y-67176795D01*
X128233093Y-67177204D01*
X128665846Y-66998394D01*
X128997230Y-66667588D01*
X129176795Y-66235147D01*
X129177204Y-65766907D01*
X129139747Y-65676255D01*
X130567998Y-64248003D01*
X130568001Y-64248001D01*
X130693078Y-64060808D01*
X130737000Y-63840000D01*
X130737000Y-61018234D01*
X131015324Y-60832265D01*
X131270465Y-60450418D01*
X131334797Y-60127000D01*
X132548000Y-60127000D01*
X132548000Y-82548000D01*
X70877000Y-82548000D01*
X70877000Y-80571250D01*
X70782750Y-80477000D01*
X68647000Y-80477000D01*
X68647000Y-80497000D01*
X68393000Y-80497000D01*
X68393000Y-80477000D01*
X68373000Y-80477000D01*
X68373000Y-80223000D01*
X68393000Y-80223000D01*
X68393000Y-79727812D01*
X68448710Y-79672102D01*
X68393000Y-79616392D01*
X68393000Y-79594876D01*
X68562980Y-79501912D01*
X68647000Y-79259992D01*
X68647000Y-80223000D01*
X70782750Y-80223000D01*
X70877000Y-80128750D01*
X70877000Y-79560395D01*
X70919089Y-79602484D01*
X71102980Y-79501912D01*
X71269653Y-79022009D01*
X71239988Y-78514854D01*
X71102980Y-78184088D01*
X70919089Y-78083516D01*
X70877000Y-78125605D01*
X70877000Y-77775010D01*
X70819605Y-77636447D01*
X70713553Y-77530395D01*
X70574990Y-77473000D01*
X68741250Y-77473000D01*
X68647000Y-77567250D01*
X68647000Y-78386930D01*
X68562980Y-78184088D01*
X68393000Y-78091124D01*
X68393000Y-78069608D01*
X68448710Y-78013898D01*
X68393000Y-77958188D01*
X68393000Y-77567250D01*
X68298750Y-77473000D01*
X66465010Y-77473000D01*
X66326447Y-77530395D01*
X66220395Y-77636447D01*
X66168002Y-77762934D01*
X66158097Y-77710292D01*
X66075530Y-77581980D01*
X65949547Y-77495899D01*
X65800000Y-77465615D01*
X65477000Y-77465615D01*
X65477000Y-75577000D01*
X70260998Y-75577000D01*
X75691999Y-81008001D01*
X75879192Y-81133078D01*
X76100000Y-81177001D01*
X76100005Y-81177000D01*
X97014114Y-81177000D01*
X97184676Y-81432265D01*
X97566523Y-81687406D01*
X98016941Y-81777000D01*
X98063059Y-81777000D01*
X98513477Y-81687406D01*
X98895324Y-81432265D01*
X99150465Y-81050418D01*
X99193693Y-80833093D01*
X107022796Y-80833093D01*
X107201606Y-81265846D01*
X107532412Y-81597230D01*
X107964853Y-81776795D01*
X108433093Y-81777204D01*
X108865846Y-81598394D01*
X109197230Y-81267588D01*
X109234845Y-81177000D01*
X111215615Y-81177000D01*
X111215615Y-81450000D01*
X111241903Y-81589708D01*
X111324470Y-81718020D01*
X111450453Y-81804101D01*
X111600000Y-81834385D01*
X114900000Y-81834385D01*
X115039708Y-81808097D01*
X115168020Y-81725530D01*
X115254101Y-81599547D01*
X115284385Y-81450000D01*
X115284385Y-79750000D01*
X115258097Y-79610292D01*
X115175530Y-79481980D01*
X115049547Y-79395899D01*
X114900000Y-79365615D01*
X111600000Y-79365615D01*
X111460292Y-79391903D01*
X111331980Y-79474470D01*
X111245899Y-79600453D01*
X111215615Y-79750000D01*
X111215615Y-80023000D01*
X109235104Y-80023000D01*
X109198394Y-79934154D01*
X108867588Y-79602770D01*
X108435147Y-79423205D01*
X107966907Y-79422796D01*
X107534154Y-79601606D01*
X107202770Y-79932412D01*
X107023205Y-80364853D01*
X107022796Y-80833093D01*
X99193693Y-80833093D01*
X99240059Y-80600000D01*
X99150465Y-80149582D01*
X98895324Y-79767735D01*
X98513477Y-79512594D01*
X98063059Y-79423000D01*
X98016941Y-79423000D01*
X97566523Y-79512594D01*
X97184676Y-79767735D01*
X97014114Y-80023000D01*
X88427000Y-80023000D01*
X88427000Y-79184385D01*
X88650000Y-79184385D01*
X88789708Y-79158097D01*
X88918020Y-79075530D01*
X89001080Y-78953969D01*
X89074470Y-79068020D01*
X89200453Y-79154101D01*
X89350000Y-79184385D01*
X90950000Y-79184385D01*
X91089708Y-79158097D01*
X91218020Y-79075530D01*
X91304101Y-78949547D01*
X91334385Y-78800000D01*
X91334385Y-78550269D01*
X91420808Y-78533078D01*
X91608001Y-78408001D01*
X92731616Y-77284385D01*
X93850000Y-77284385D01*
X93989708Y-77258097D01*
X94118020Y-77175530D01*
X94204101Y-77049547D01*
X94234385Y-76900000D01*
X94234385Y-75500000D01*
X94208097Y-75360292D01*
X94125530Y-75231980D01*
X93999547Y-75145899D01*
X93850000Y-75115615D01*
X92150000Y-75115615D01*
X92010292Y-75141903D01*
X91881980Y-75224470D01*
X91795899Y-75350453D01*
X91765615Y-75500000D01*
X91765615Y-76618384D01*
X91310569Y-77073429D01*
X91308097Y-77060292D01*
X91225530Y-76931980D01*
X91099547Y-76845899D01*
X90950000Y-76815615D01*
X89350000Y-76815615D01*
X89210292Y-76841903D01*
X89081980Y-76924470D01*
X88998920Y-77046031D01*
X88925530Y-76931980D01*
X88799547Y-76845899D01*
X88650000Y-76815615D01*
X87050000Y-76815615D01*
X86910292Y-76841903D01*
X86781980Y-76924470D01*
X86695899Y-77050453D01*
X86665615Y-77200000D01*
X86665615Y-78800000D01*
X86691903Y-78939708D01*
X86774470Y-79068020D01*
X86900453Y-79154101D01*
X87050000Y-79184385D01*
X87273000Y-79184385D01*
X87273000Y-80023000D01*
X76339002Y-80023000D01*
X74987252Y-78671250D01*
X78623000Y-78671250D01*
X78623000Y-79324990D01*
X78680395Y-79463553D01*
X78786447Y-79569605D01*
X78925010Y-79627000D01*
X79578750Y-79627000D01*
X79673000Y-79532750D01*
X79673000Y-78577000D01*
X79927000Y-78577000D01*
X79927000Y-79532750D01*
X80021250Y-79627000D01*
X80674990Y-79627000D01*
X80813553Y-79569605D01*
X80919605Y-79463553D01*
X80977000Y-79324990D01*
X80977000Y-78671250D01*
X80882750Y-78577000D01*
X79927000Y-78577000D01*
X79673000Y-78577000D01*
X78717250Y-78577000D01*
X78623000Y-78671250D01*
X74987252Y-78671250D01*
X72687252Y-76371250D01*
X75023000Y-76371250D01*
X75023000Y-77024990D01*
X75080395Y-77163553D01*
X75186447Y-77269605D01*
X75325010Y-77327000D01*
X75978750Y-77327000D01*
X76073000Y-77232750D01*
X76073000Y-76277000D01*
X76327000Y-76277000D01*
X76327000Y-77232750D01*
X76421250Y-77327000D01*
X77074990Y-77327000D01*
X77213553Y-77269605D01*
X77319605Y-77163553D01*
X77377000Y-77024990D01*
X77377000Y-76371250D01*
X77282750Y-76277000D01*
X76327000Y-76277000D01*
X76073000Y-76277000D01*
X75117250Y-76277000D01*
X75023000Y-76371250D01*
X72687252Y-76371250D01*
X70908001Y-74591999D01*
X70720808Y-74466922D01*
X70500000Y-74422999D01*
X70499995Y-74423000D01*
X62784385Y-74423000D01*
X62784385Y-74150000D01*
X62758097Y-74010292D01*
X62675530Y-73881980D01*
X62549547Y-73795899D01*
X62400000Y-73765615D01*
X61000000Y-73765615D01*
X60860292Y-73791903D01*
X60731980Y-73874470D01*
X60645899Y-74000453D01*
X60615615Y-74150000D01*
X60615615Y-75850000D01*
X60641903Y-75989708D01*
X60724470Y-76118020D01*
X60850453Y-76204101D01*
X61000000Y-76234385D01*
X62400000Y-76234385D01*
X62539708Y-76208097D01*
X62668020Y-76125530D01*
X62754101Y-75999547D01*
X62784385Y-75850000D01*
X62784385Y-75577000D01*
X64323000Y-75577000D01*
X64323000Y-77465615D01*
X64000000Y-77465615D01*
X63860292Y-77491903D01*
X63731980Y-77574470D01*
X63645899Y-77700453D01*
X63632836Y-77764958D01*
X63579605Y-77636447D01*
X63473553Y-77530395D01*
X63334990Y-77473000D01*
X61501250Y-77473000D01*
X61407000Y-77567250D01*
X61407000Y-77958188D01*
X61351290Y-78013898D01*
X61407000Y-78069608D01*
X61407000Y-78091124D01*
X61237020Y-78184088D01*
X61153000Y-78426008D01*
X61153000Y-77567250D01*
X61058750Y-77473000D01*
X59225010Y-77473000D01*
X59086447Y-77530395D01*
X58980395Y-77636447D01*
X58923000Y-77775010D01*
X58923000Y-78125605D01*
X58880911Y-78083516D01*
X58697020Y-78184088D01*
X58530347Y-78663991D01*
X58560012Y-79171146D01*
X58697020Y-79501912D01*
X58880911Y-79602484D01*
X58923000Y-79560395D01*
X58923000Y-80128750D01*
X59017250Y-80223000D01*
X61153000Y-80223000D01*
X61153000Y-79299070D01*
X61237020Y-79501912D01*
X61407000Y-79594876D01*
X61407000Y-79616392D01*
X61351290Y-79672102D01*
X61407000Y-79727812D01*
X61407000Y-80223000D01*
X61427000Y-80223000D01*
X61427000Y-80477000D01*
X61407000Y-80477000D01*
X61407000Y-80497000D01*
X61153000Y-80497000D01*
X61153000Y-80477000D01*
X59017250Y-80477000D01*
X58923000Y-80571250D01*
X58923000Y-82548000D01*
X33452000Y-82548000D01*
X33452000Y-76468487D01*
X36864134Y-76468487D01*
X37068650Y-76879682D01*
X37414955Y-77181312D01*
X37691515Y-77295855D01*
X37873000Y-77235276D01*
X37873000Y-76287000D01*
X38127000Y-76287000D01*
X38127000Y-77235276D01*
X38308485Y-77295855D01*
X38585045Y-77181312D01*
X38931350Y-76879682D01*
X39135866Y-76468487D01*
X39075890Y-76287000D01*
X38127000Y-76287000D01*
X37873000Y-76287000D01*
X36924110Y-76287000D01*
X36864134Y-76468487D01*
X33452000Y-76468487D01*
X33452000Y-75851513D01*
X36864134Y-75851513D01*
X36924110Y-76033000D01*
X37873000Y-76033000D01*
X37873000Y-75084724D01*
X38127000Y-75084724D01*
X38127000Y-76033000D01*
X39075890Y-76033000D01*
X39135866Y-75851513D01*
X38931350Y-75440318D01*
X38679836Y-75221250D01*
X52673000Y-75221250D01*
X52673000Y-75874990D01*
X52730395Y-76013553D01*
X52836447Y-76119605D01*
X52975010Y-76177000D01*
X53628750Y-76177000D01*
X53723000Y-76082750D01*
X53723000Y-75127000D01*
X52767250Y-75127000D01*
X52673000Y-75221250D01*
X38679836Y-75221250D01*
X38585045Y-75138688D01*
X38308485Y-75024145D01*
X38127000Y-75084724D01*
X37873000Y-75084724D01*
X37691515Y-75024145D01*
X37414955Y-75138688D01*
X37068650Y-75440318D01*
X36864134Y-75851513D01*
X33452000Y-75851513D01*
X33452000Y-74125010D01*
X52673000Y-74125010D01*
X52673000Y-74778750D01*
X52767250Y-74873000D01*
X53723000Y-74873000D01*
X53723000Y-73917250D01*
X53977000Y-73917250D01*
X53977000Y-74873000D01*
X53997000Y-74873000D01*
X53997000Y-75127000D01*
X53977000Y-75127000D01*
X53977000Y-76082750D01*
X54071250Y-76177000D01*
X54724990Y-76177000D01*
X54863553Y-76119605D01*
X54969605Y-76013553D01*
X54996946Y-75947546D01*
X55074470Y-76068020D01*
X55200453Y-76154101D01*
X55350000Y-76184385D01*
X56950000Y-76184385D01*
X57089708Y-76158097D01*
X57218020Y-76075530D01*
X57304101Y-75949547D01*
X57334385Y-75800000D01*
X57334385Y-75577000D01*
X58215615Y-75577000D01*
X58215615Y-75850000D01*
X58241903Y-75989708D01*
X58324470Y-76118020D01*
X58450453Y-76204101D01*
X58600000Y-76234385D01*
X60000000Y-76234385D01*
X60139708Y-76208097D01*
X60268020Y-76125530D01*
X60354101Y-75999547D01*
X60384385Y-75850000D01*
X60384385Y-74150000D01*
X60358097Y-74010292D01*
X60275530Y-73881980D01*
X60149547Y-73795899D01*
X60000000Y-73765615D01*
X58600000Y-73765615D01*
X58460292Y-73791903D01*
X58331980Y-73874470D01*
X58245899Y-74000453D01*
X58215615Y-74150000D01*
X58215615Y-74423000D01*
X57334385Y-74423000D01*
X57334385Y-74200000D01*
X57308097Y-74060292D01*
X57225530Y-73931980D01*
X57099547Y-73845899D01*
X56950000Y-73815615D01*
X55350000Y-73815615D01*
X55210292Y-73841903D01*
X55081980Y-73924470D01*
X54996035Y-74050254D01*
X54969605Y-73986447D01*
X54863553Y-73880395D01*
X54724990Y-73823000D01*
X54071250Y-73823000D01*
X53977000Y-73917250D01*
X53723000Y-73917250D01*
X53628750Y-73823000D01*
X52975010Y-73823000D01*
X52836447Y-73880395D01*
X52730395Y-73986447D01*
X52673000Y-74125010D01*
X33452000Y-74125010D01*
X33452000Y-73050000D01*
X75015615Y-73050000D01*
X75015615Y-74650000D01*
X75041903Y-74789708D01*
X75124470Y-74918020D01*
X75250254Y-75003965D01*
X75186447Y-75030395D01*
X75080395Y-75136447D01*
X75023000Y-75275010D01*
X75023000Y-75928750D01*
X75117250Y-76023000D01*
X76073000Y-76023000D01*
X76073000Y-76003000D01*
X76327000Y-76003000D01*
X76327000Y-76023000D01*
X77282750Y-76023000D01*
X77377000Y-75928750D01*
X77377000Y-75275010D01*
X77319605Y-75136447D01*
X77213553Y-75030395D01*
X77147546Y-75003054D01*
X77268020Y-74925530D01*
X77354101Y-74799547D01*
X77384385Y-74650000D01*
X77384385Y-73931617D01*
X78250000Y-73066002D01*
X80149614Y-74965615D01*
X79000000Y-74965615D01*
X78860292Y-74991903D01*
X78731980Y-75074470D01*
X78645899Y-75200453D01*
X78615615Y-75350000D01*
X78615615Y-76950000D01*
X78641903Y-77089708D01*
X78724470Y-77218020D01*
X78850254Y-77303965D01*
X78786447Y-77330395D01*
X78680395Y-77436447D01*
X78623000Y-77575010D01*
X78623000Y-78228750D01*
X78717250Y-78323000D01*
X79673000Y-78323000D01*
X79673000Y-78303000D01*
X79927000Y-78303000D01*
X79927000Y-78323000D01*
X80882750Y-78323000D01*
X80977000Y-78228750D01*
X80977000Y-77575010D01*
X80919605Y-77436447D01*
X80813553Y-77330395D01*
X80747546Y-77303054D01*
X80868020Y-77225530D01*
X80954101Y-77099547D01*
X80984385Y-76950000D01*
X80984385Y-75831616D01*
X81000000Y-75816002D01*
X81715615Y-76531616D01*
X81715615Y-77650000D01*
X81741903Y-77789708D01*
X81824470Y-77918020D01*
X81950453Y-78004101D01*
X82100000Y-78034385D01*
X83500000Y-78034385D01*
X83639708Y-78008097D01*
X83768020Y-77925530D01*
X83854101Y-77799547D01*
X83884385Y-77650000D01*
X83884385Y-75950000D01*
X83858097Y-75810292D01*
X83775530Y-75681980D01*
X83649547Y-75595899D01*
X83500000Y-75565615D01*
X82381616Y-75565615D01*
X82037789Y-75221787D01*
X82100000Y-75234385D01*
X83500000Y-75234385D01*
X83639708Y-75208097D01*
X83768020Y-75125530D01*
X83854101Y-74999547D01*
X83884385Y-74850000D01*
X83884385Y-73150000D01*
X83858097Y-73010292D01*
X83775530Y-72881980D01*
X83649547Y-72795899D01*
X83500000Y-72765615D01*
X83377000Y-72765615D01*
X83377000Y-69800000D01*
X83333078Y-69579192D01*
X83208001Y-69391999D01*
X83207998Y-69391997D01*
X83043001Y-69226999D01*
X82855808Y-69101922D01*
X82635000Y-69057999D01*
X82634995Y-69058000D01*
X82337387Y-69058000D01*
X82252081Y-68999712D01*
X82288553Y-68984605D01*
X82394605Y-68878553D01*
X82452000Y-68739990D01*
X82452000Y-68586250D01*
X82357750Y-68492000D01*
X81427000Y-68492000D01*
X81427000Y-68512000D01*
X81173000Y-68512000D01*
X81173000Y-68492000D01*
X80242250Y-68492000D01*
X80148000Y-68586250D01*
X80148000Y-68739990D01*
X80205395Y-68878553D01*
X80311447Y-68984605D01*
X80349091Y-69000198D01*
X80256980Y-69059470D01*
X80170899Y-69185453D01*
X80140615Y-69335000D01*
X80140615Y-69935000D01*
X80166903Y-70074708D01*
X80249470Y-70203020D01*
X80348420Y-70270630D01*
X80259264Y-70328000D01*
X79595000Y-70328000D01*
X79374192Y-70371922D01*
X79186999Y-70496999D01*
X79186997Y-70497002D01*
X78250000Y-71433998D01*
X78147478Y-71331476D01*
X78177000Y-71183059D01*
X78177000Y-71136941D01*
X78087406Y-70686523D01*
X77832265Y-70304676D01*
X77450418Y-70049535D01*
X77000000Y-69959941D01*
X76549582Y-70049535D01*
X76167735Y-70304676D01*
X75912594Y-70686523D01*
X75823000Y-71136941D01*
X75823000Y-71183059D01*
X75912594Y-71633477D01*
X76167735Y-72015324D01*
X76549582Y-72270465D01*
X77000000Y-72360059D01*
X77404375Y-72279624D01*
X77015288Y-72668711D01*
X77000000Y-72665615D01*
X75400000Y-72665615D01*
X75260292Y-72691903D01*
X75131980Y-72774470D01*
X75045899Y-72900453D01*
X75015615Y-73050000D01*
X33452000Y-73050000D01*
X33452000Y-68311833D01*
X41867772Y-68311833D01*
X42200232Y-68693235D01*
X43367887Y-69176966D01*
X44631776Y-69177034D01*
X45799483Y-68693426D01*
X45799768Y-68693235D01*
X46132228Y-68311833D01*
X44000000Y-66179605D01*
X41867772Y-68311833D01*
X33452000Y-68311833D01*
X33452000Y-60127000D01*
X34665203Y-60127000D01*
X34729535Y-60450418D01*
X34984676Y-60832265D01*
X35263000Y-61018234D01*
X35263000Y-63839995D01*
X35262999Y-63840000D01*
X35306922Y-64060808D01*
X35431999Y-64248001D01*
X36860070Y-65676072D01*
X36823205Y-65764853D01*
X36822796Y-66233093D01*
X37001606Y-66665846D01*
X37332412Y-66997230D01*
X37764853Y-67176795D01*
X38233093Y-67177204D01*
X38665846Y-66998394D01*
X38997230Y-66667588D01*
X39012100Y-66631776D01*
X40822966Y-66631776D01*
X41306574Y-67799483D01*
X41306765Y-67799768D01*
X41688167Y-68132228D01*
X43820395Y-66000000D01*
X44179605Y-66000000D01*
X46311833Y-68132228D01*
X46693235Y-67799768D01*
X46725763Y-67721250D01*
X59473000Y-67721250D01*
X59473000Y-68924990D01*
X59530395Y-69063553D01*
X59636447Y-69169605D01*
X59775010Y-69227000D01*
X61503750Y-69227000D01*
X61598000Y-69132750D01*
X61598000Y-67627000D01*
X61852000Y-67627000D01*
X61852000Y-69132750D01*
X61946250Y-69227000D01*
X63674990Y-69227000D01*
X63813553Y-69169605D01*
X63919605Y-69063553D01*
X63977000Y-68924990D01*
X63977000Y-67721250D01*
X63882750Y-67627000D01*
X61852000Y-67627000D01*
X61598000Y-67627000D01*
X59567250Y-67627000D01*
X59473000Y-67721250D01*
X46725763Y-67721250D01*
X47176966Y-66632113D01*
X47176995Y-66075010D01*
X59473000Y-66075010D01*
X59473000Y-67278750D01*
X59567250Y-67373000D01*
X61598000Y-67373000D01*
X61598000Y-65867250D01*
X61852000Y-65867250D01*
X61852000Y-67373000D01*
X63882750Y-67373000D01*
X63977000Y-67278750D01*
X63977000Y-66150000D01*
X67015615Y-66150000D01*
X67015615Y-68850000D01*
X67041903Y-68989708D01*
X67124470Y-69118020D01*
X67250453Y-69204101D01*
X67400000Y-69234385D01*
X71150000Y-69234385D01*
X71289708Y-69208097D01*
X71418020Y-69125530D01*
X71504101Y-68999547D01*
X71534385Y-68850000D01*
X71534385Y-68077000D01*
X73624203Y-68077000D01*
X73864746Y-68176882D01*
X74134073Y-68177117D01*
X74382989Y-68074267D01*
X74573598Y-67883990D01*
X74676882Y-67635254D01*
X74677117Y-67365927D01*
X74574267Y-67117011D01*
X74383990Y-66926402D01*
X74135254Y-66823118D01*
X73865927Y-66822883D01*
X73623625Y-66923000D01*
X71534385Y-66923000D01*
X71534385Y-66150000D01*
X71508097Y-66010292D01*
X71425530Y-65881980D01*
X71299547Y-65795899D01*
X71150000Y-65765615D01*
X67400000Y-65765615D01*
X67260292Y-65791903D01*
X67131980Y-65874470D01*
X67045899Y-66000453D01*
X67015615Y-66150000D01*
X63977000Y-66150000D01*
X63977000Y-66075010D01*
X63919605Y-65936447D01*
X63813553Y-65830395D01*
X63674990Y-65773000D01*
X61946250Y-65773000D01*
X61852000Y-65867250D01*
X61598000Y-65867250D01*
X61503750Y-65773000D01*
X59775010Y-65773000D01*
X59636447Y-65830395D01*
X59530395Y-65936447D01*
X59473000Y-66075010D01*
X47176995Y-66075010D01*
X47177034Y-65368224D01*
X46693426Y-64200517D01*
X46693235Y-64200232D01*
X46311833Y-63867772D01*
X44179605Y-66000000D01*
X43820395Y-66000000D01*
X41688167Y-63867772D01*
X41306765Y-64200232D01*
X40823034Y-65367887D01*
X40822966Y-66631776D01*
X39012100Y-66631776D01*
X39176795Y-66235147D01*
X39177204Y-65766907D01*
X38998394Y-65334154D01*
X38667588Y-65002770D01*
X38235147Y-64823205D01*
X37766907Y-64822796D01*
X37676254Y-64860253D01*
X36504169Y-63688167D01*
X41867772Y-63688167D01*
X44000000Y-65820395D01*
X46132228Y-63688167D01*
X45799768Y-63306765D01*
X44737164Y-62866554D01*
X48313051Y-62866554D01*
X48401329Y-63040065D01*
X48844916Y-63189996D01*
X49312113Y-63158761D01*
X49598671Y-63040065D01*
X49686949Y-62866554D01*
X49000000Y-62179605D01*
X48313051Y-62866554D01*
X44737164Y-62866554D01*
X44632113Y-62823034D01*
X43368224Y-62822966D01*
X42200517Y-63306574D01*
X42200232Y-63306765D01*
X41867772Y-63688167D01*
X36504169Y-63688167D01*
X36417000Y-63600998D01*
X36417000Y-61844916D01*
X47810004Y-61844916D01*
X47841239Y-62312113D01*
X47959935Y-62598671D01*
X48133446Y-62686949D01*
X48820395Y-62000000D01*
X49179605Y-62000000D01*
X49866554Y-62686949D01*
X50040065Y-62598671D01*
X50189996Y-62155084D01*
X50179628Y-62000000D01*
X57959941Y-62000000D01*
X58049535Y-62450418D01*
X58304676Y-62832265D01*
X58686523Y-63087406D01*
X59136941Y-63177000D01*
X59183059Y-63177000D01*
X59633477Y-63087406D01*
X60015324Y-62832265D01*
X60185886Y-62577000D01*
X60964896Y-62577000D01*
X61001606Y-62665846D01*
X61332412Y-62997230D01*
X61764853Y-63176795D01*
X62233093Y-63177204D01*
X62665846Y-62998394D01*
X62997230Y-62667588D01*
X63176795Y-62235147D01*
X63177000Y-62000000D01*
X70959941Y-62000000D01*
X71049535Y-62450418D01*
X71304676Y-62832265D01*
X71686523Y-63087406D01*
X72136941Y-63177000D01*
X72183059Y-63177000D01*
X72633477Y-63087406D01*
X73015324Y-62832265D01*
X73270465Y-62450418D01*
X73360059Y-62000000D01*
X73296340Y-61679662D01*
X73407998Y-61568003D01*
X73408001Y-61568001D01*
X73504887Y-61423000D01*
X73533078Y-61380809D01*
X73577000Y-61160000D01*
X73577000Y-59284385D01*
X73850000Y-59284385D01*
X73989708Y-59258097D01*
X74118020Y-59175530D01*
X74204101Y-59049547D01*
X74234385Y-58900000D01*
X74234385Y-57500000D01*
X74208097Y-57360292D01*
X74125530Y-57231980D01*
X73999547Y-57145899D01*
X73850000Y-57115615D01*
X72150000Y-57115615D01*
X72010292Y-57141903D01*
X71881980Y-57224470D01*
X71795899Y-57350453D01*
X71765615Y-57500000D01*
X71765615Y-58900000D01*
X71791903Y-59039708D01*
X71874470Y-59168020D01*
X72000453Y-59254101D01*
X72150000Y-59284385D01*
X72423000Y-59284385D01*
X72423000Y-60870727D01*
X72183059Y-60823000D01*
X72136941Y-60823000D01*
X71686523Y-60912594D01*
X71304676Y-61167735D01*
X71049535Y-61549582D01*
X70959941Y-62000000D01*
X63177000Y-62000000D01*
X63177204Y-61766907D01*
X62998394Y-61334154D01*
X62667588Y-61002770D01*
X62235147Y-60823205D01*
X61766907Y-60822796D01*
X61334154Y-61001606D01*
X61002770Y-61332412D01*
X60965155Y-61423000D01*
X60185886Y-61423000D01*
X60015324Y-61167735D01*
X59633477Y-60912594D01*
X59183059Y-60823000D01*
X59136941Y-60823000D01*
X58686523Y-60912594D01*
X58304676Y-61167735D01*
X58049535Y-61549582D01*
X57959941Y-62000000D01*
X50179628Y-62000000D01*
X50158761Y-61687887D01*
X50040065Y-61401329D01*
X49866554Y-61313051D01*
X49179605Y-62000000D01*
X48820395Y-62000000D01*
X48133446Y-61313051D01*
X47959935Y-61401329D01*
X47810004Y-61844916D01*
X36417000Y-61844916D01*
X36417000Y-61018234D01*
X36695324Y-60832265D01*
X36950465Y-60450418D01*
X37014797Y-60127000D01*
X44822889Y-60127000D01*
X44822796Y-60233093D01*
X45001606Y-60665846D01*
X45332412Y-60997230D01*
X45764853Y-61176795D01*
X46233093Y-61177204D01*
X46338995Y-61133446D01*
X48313051Y-61133446D01*
X49000000Y-61820395D01*
X49686949Y-61133446D01*
X49598671Y-60959935D01*
X49155084Y-60810004D01*
X48687887Y-60841239D01*
X48401329Y-60959935D01*
X48313051Y-61133446D01*
X46338995Y-61133446D01*
X46665846Y-60998394D01*
X46997230Y-60667588D01*
X47176795Y-60235147D01*
X47176889Y-60127000D01*
X68000000Y-60127000D01*
X68049410Y-60116994D01*
X68091035Y-60088553D01*
X68118315Y-60046159D01*
X68127000Y-60000000D01*
X68127000Y-58665129D01*
X68270465Y-58450418D01*
X68360059Y-58000000D01*
X68270465Y-57549582D01*
X68127000Y-57334871D01*
X68127000Y-53127000D01*
X69448262Y-53127000D01*
X69466922Y-53220808D01*
G36*
X80375453Y-71559101D02*
X80525000Y-71589385D01*
X82075000Y-71589385D01*
X82214708Y-71563097D01*
X82223000Y-71557761D01*
X82223000Y-72765615D01*
X82100000Y-72765615D01*
X81960292Y-72791903D01*
X81831980Y-72874470D01*
X81745899Y-73000453D01*
X81715615Y-73150000D01*
X81715615Y-74850000D01*
X81727114Y-74911112D01*
X81408001Y-74591999D01*
X81407998Y-74591997D01*
X79066002Y-72250000D01*
X79834001Y-71482000D01*
X80262613Y-71482000D01*
X80375453Y-71559101D01*
X80375453Y-71559101D01*
G37*
X80375453Y-71559101D02*
X80525000Y-71589385D01*
X82075000Y-71589385D01*
X82214708Y-71563097D01*
X82223000Y-71557761D01*
X82223000Y-72765615D01*
X82100000Y-72765615D01*
X81960292Y-72791903D01*
X81831980Y-72874470D01*
X81745899Y-73000453D01*
X81715615Y-73150000D01*
X81715615Y-74850000D01*
X81727114Y-74911112D01*
X81408001Y-74591999D01*
X81407998Y-74591997D01*
X79066002Y-72250000D01*
X79834001Y-71482000D01*
X80262613Y-71482000D01*
X80375453Y-71559101D01*
G36*
X80845899Y-53200453D02*
X80815615Y-53350000D01*
X80815615Y-54950000D01*
X80841903Y-55089708D01*
X80924470Y-55218020D01*
X81050453Y-55304101D01*
X81200000Y-55334385D01*
X82800000Y-55334385D01*
X82939708Y-55308097D01*
X83068020Y-55225530D01*
X83154101Y-55099547D01*
X83184385Y-54950000D01*
X83184385Y-54727000D01*
X83423000Y-54727000D01*
X83423000Y-58723000D01*
X78700005Y-58723000D01*
X78700000Y-58722999D01*
X78479192Y-58766922D01*
X78291999Y-58891999D01*
X78171787Y-59012211D01*
X78184385Y-58950000D01*
X78184385Y-57350000D01*
X78158097Y-57210292D01*
X78075530Y-57081980D01*
X77953969Y-56998920D01*
X78068020Y-56925530D01*
X78154101Y-56799547D01*
X78184385Y-56650000D01*
X78184385Y-55050000D01*
X78158097Y-54910292D01*
X78075530Y-54781980D01*
X77949547Y-54695899D01*
X77800000Y-54665615D01*
X76200000Y-54665615D01*
X76060292Y-54691903D01*
X75931980Y-54774470D01*
X75845899Y-54900453D01*
X75815615Y-55050000D01*
X75815615Y-55223000D01*
X75577000Y-55223000D01*
X75577000Y-55000005D01*
X75577001Y-55000000D01*
X75533078Y-54779192D01*
X75514908Y-54751999D01*
X75408001Y-54591999D01*
X75407998Y-54591997D01*
X74408001Y-53591999D01*
X74220808Y-53466922D01*
X74000000Y-53422999D01*
X73999995Y-53423000D01*
X71239001Y-53423000D01*
X70943001Y-53127000D01*
X80896088Y-53127000D01*
X80845899Y-53200453D01*
X80845899Y-53200453D01*
G37*
X80845899Y-53200453D02*
X80815615Y-53350000D01*
X80815615Y-54950000D01*
X80841903Y-55089708D01*
X80924470Y-55218020D01*
X81050453Y-55304101D01*
X81200000Y-55334385D01*
X82800000Y-55334385D01*
X82939708Y-55308097D01*
X83068020Y-55225530D01*
X83154101Y-55099547D01*
X83184385Y-54950000D01*
X83184385Y-54727000D01*
X83423000Y-54727000D01*
X83423000Y-58723000D01*
X78700005Y-58723000D01*
X78700000Y-58722999D01*
X78479192Y-58766922D01*
X78291999Y-58891999D01*
X78171787Y-59012211D01*
X78184385Y-58950000D01*
X78184385Y-57350000D01*
X78158097Y-57210292D01*
X78075530Y-57081980D01*
X77953969Y-56998920D01*
X78068020Y-56925530D01*
X78154101Y-56799547D01*
X78184385Y-56650000D01*
X78184385Y-55050000D01*
X78158097Y-54910292D01*
X78075530Y-54781980D01*
X77949547Y-54695899D01*
X77800000Y-54665615D01*
X76200000Y-54665615D01*
X76060292Y-54691903D01*
X75931980Y-54774470D01*
X75845899Y-54900453D01*
X75815615Y-55050000D01*
X75815615Y-55223000D01*
X75577000Y-55223000D01*
X75577000Y-55000005D01*
X75577001Y-55000000D01*
X75533078Y-54779192D01*
X75514908Y-54751999D01*
X75408001Y-54591999D01*
X75407998Y-54591997D01*
X74408001Y-53591999D01*
X74220808Y-53466922D01*
X74000000Y-53422999D01*
X73999995Y-53423000D01*
X71239001Y-53423000D01*
X70943001Y-53127000D01*
X80896088Y-53127000D01*
X80845899Y-53200453D01*
M02*
