M48
;DRILL file {KiCad 4.0.7-e2-6376~58~ubuntu14.04.1} date Sat Mar 16 06:29:56 2019
;FORMAT={-:-/ absolute / inch / decimal}
FMAT,2
INCH,TZ
T1C0.016
T2C0.031
T3C0.039
T4C0.043
T5C0.053
T6C0.063
T7C0.126
%
G90
G05
M72
T1
X2.5197Y-2.0079
X2.5591Y-2.7913
X2.5748Y-2.6535
X2.7205Y-2.1378
X2.7402Y-2.2717
X2.7402Y-2.5236
X2.7953Y-2.7913
X2.8543Y-2.5906
X2.9134Y-2.6575
X2.9291Y-2.4764
X2.9528Y-2.2717
X2.9606Y-2.7638
X3.0197Y-2.126
X3.0354Y-3.0906
X3.0354Y-3.2244
X3.0433Y-2.5906
X3.1024Y-2.4449
X3.126Y-2.6929
X3.1496Y-2.2047
X3.1811Y-2.8622
X3.2087Y-2.5787
X3.2283Y-2.2835
X3.2677Y-1.7717
X3.2677Y-2.4016
X3.2874Y-3.1024
X3.2874Y-3.2205
X3.2953Y-2.6575
X3.3071Y-2.8307
X3.3661Y-2.2244
X3.4055Y-2.5354
X3.5236Y-2.126
X3.5827Y-2.2677
X3.6102Y-2.3819
X3.6693Y-2.126
X3.6811Y-3.1102
X3.7205Y-2.6654
X3.7205Y-2.8071
X3.752Y-2.9724
X3.8622Y-2.437
X3.8701Y-2.8268
X3.9291Y-3.0591
X3.9331Y-2.5315
X4.0157Y-2.0079
X4.0827Y-2.626
X4.2756Y-2.5433
X4.2756Y-2.7913
X4.3307Y-2.4409
T2
X1.411Y-2.3622
X1.4961Y-2.5984
X1.4961Y-2.9984
X1.811Y-2.3622
X1.8898Y-1.6535
X1.9291Y-2.4409
X2.2441Y-2.2835
X2.2835Y-1.7717
X2.2835Y-2.1717
X2.2898Y-1.6535
X2.3291Y-2.4409
X2.4409Y-2.4409
X2.6441Y-2.2835
X2.8409Y-2.4409
X3.0315Y-2.4016
X3.0315Y-2.8016
X3.0709Y-1.8504
X3.4709Y-1.8504
X3.6945Y-2.4409
X3.8598Y-3.1732
X3.8913Y-2.2835
X4.0945Y-2.4409
X4.2063Y-2.4409
X4.2457Y-1.6535
X4.252Y-1.7717
X4.252Y-2.1717
X4.2598Y-3.1732
X4.2913Y-2.2835
X4.6063Y-2.4409
X4.6457Y-1.6535
X4.7244Y-2.3622
X5.0394Y-2.5984
X5.0394Y-2.9984
X5.1244Y-2.3622
T3
X1.5748Y-1.811
X1.5748Y-2.211
X4.9606Y-1.811
X4.9606Y-2.211
T4
X2.3551Y-3.1041
X2.4551Y-3.1041
X2.5551Y-3.1041
X2.6551Y-3.1041
X2.7551Y-3.1041
T5
X3.9016Y-2.9173
X4.0984Y-2.9173
X4.4921Y-2.9173
X4.689Y-2.9173
T6
X3.8189Y-2.6378
X4.4189Y-2.6378
T7
X1.4567Y-1.4567
X1.7323Y-2.5984
X3.0709Y-1.4567
X3.4646Y-1.4567
X4.8031Y-2.5984
X5.0787Y-1.4567
T0
M30
